<svg width="396" height="269" viewBox="0 0 396 269" fill="none" xmlns="http://www.w3.org/2000/svg">
<g filter="url(#filter0_d_61_2424)">
<path d="M328.09 190.038V207.922H354.24H383.083V190.038H328.09Z" fill="#F5F5F5"/>
<path d="M325.786 185.039V190.037H385.004V185.039H354.24H325.786Z" fill="#E0E0E0"/>
<path d="M355.392 207.921H383.083V190.037H385.004V185.039H354.24V189.573L355.392 207.921Z" fill="#E0E0E0"/>
<path d="M346.932 192.921H335.783V195.615H346.932V192.921Z" fill="#E0E0E0"/>
<path d="M348.669 198.979H334.35V204.666H348.669V198.979Z" fill="#EBEEF1"/>
<path d="M391.344 246.355L390.197 1.45958H385.457V49.6717H373.196L372.967 1.44238H368.226V49.6717H326.096L325.867 1.44238H321.126V49.6717H308.911L308.688 1.44238H303.947V246.355H309.84L309.685 213.493H321.149V246.355H327.047L326.893 213.493H368.249V246.355H374.147L373.993 213.493H385.457V246.355H391.344ZM315.108 181.038L310.872 162.885H319.567L315.108 181.038ZM321.138 163.997V206.878L315.979 184.885L321.138 163.997ZM321.138 101.673L315.979 79.6789L321.138 58.7914V101.673ZM320.22 105.611H309.622L315.039 83.4907L320.22 105.611ZM315.108 75.804L310.253 55.014H320.198L315.108 75.804ZM314.167 79.6388L309.163 99.9932L308.963 57.3469L314.167 79.6388ZM309.467 164.725L314.167 184.845L309.651 203.221L309.467 164.725ZM315.039 188.725L319.573 208.139H310.281L315.039 188.725ZM309.599 157.537L309.559 157.371L309.41 157.405L309.192 110.976H321.115V157.554L309.599 157.537ZM326.371 110.959H368.215V157.537H326.606L326.371 110.959ZM379.037 83.4907L384.196 105.588H373.609L379.037 83.4907ZM373.431 98.8182L373.242 58.6423L378.143 79.6445L373.431 98.8182ZM385.468 103.066L380.006 79.656L385.468 57.4214V103.066ZM385.468 105.507V105.588H385.136L385.468 105.507ZM385.468 165.247V205.514L380.648 184.879L385.468 165.247ZM379.736 181.016L375.494 162.862H384.196L379.736 181.016ZM379.088 75.8098L374.233 55.0197H384.196L379.088 75.8098ZM385.451 110.936V157.514H374.245L374.205 157.348L373.706 157.463L373.505 110.959L385.451 110.936ZM378.79 184.879L373.935 204.643L373.74 163.235L378.79 184.879ZM379.69 188.731L384.219 208.145H374.91L379.69 188.731ZM368.226 55.0484V105.616H326.382L326.142 55.0484H368.226ZM327.598 208.139H326.841L326.629 162.885H368.226V208.139H327.598Z" fill="#E0E0E0"/>
<path d="M364.552 69.3154H356.722V105.817H364.552V69.3154Z" fill="#E0E0E0"/>
<path d="M362.35 97.0641C362.35 97.3714 362.259 97.6717 362.089 97.9271C361.918 98.1826 361.675 98.3817 361.391 98.4993C361.108 98.6168 360.795 98.6476 360.494 98.5877C360.193 98.5277 359.916 98.3798 359.699 98.1625C359.481 97.9453 359.333 97.6685 359.273 97.3672C359.214 97.0659 359.244 96.7535 359.362 96.4697C359.479 96.1858 359.679 95.9432 359.934 95.7725C360.189 95.6019 360.49 95.5108 360.797 95.5108C361.001 95.51 361.204 95.5497 361.392 95.6275C361.581 95.7053 361.753 95.8196 361.897 95.964C362.042 96.1084 362.156 96.28 362.234 96.4688C362.312 96.6576 362.351 96.8599 362.35 97.0641Z" fill="#FAFAFA"/>
<path d="M361.927 78.9854H359.531V93.9058H361.927V78.9854Z" fill="#FAFAFA"/>
<path d="M356.596 69.3154H348.766V105.817H356.596V69.3154Z" fill="#EBEBEB"/>
<path d="M354.394 97.0648C354.398 97.3739 354.309 97.677 354.139 97.9353C353.969 98.1936 353.726 98.3954 353.441 98.5147C353.155 98.634 352.841 98.6656 352.538 98.6052C352.235 98.5449 351.956 98.3954 351.738 98.176C351.521 97.9566 351.373 97.6771 351.315 97.3735C351.257 97.0698 351.291 96.7557 351.413 96.4714C351.534 96.1871 351.738 95.9455 351.997 95.7775C352.257 95.6096 352.56 95.5229 352.87 95.5286C353.274 95.536 353.659 95.7006 353.944 95.9874C354.228 96.2742 354.39 96.6607 354.394 97.0648Z" fill="#FAFAFA"/>
<path d="M353.971 78.9854H351.575V93.9058H353.971V78.9854Z" fill="#FAFAFA"/>
<path d="M349.024 69.3154H341.194V105.817H349.024V69.3154Z" fill="#F5F5F5"/>
<path d="M346.817 97.0641C346.817 97.3714 346.726 97.6717 346.555 97.9271C346.385 98.1826 346.142 98.3817 345.858 98.4993C345.574 98.6168 345.262 98.6476 344.961 98.5877C344.659 98.5277 344.383 98.3798 344.165 98.1625C343.948 97.9453 343.8 97.6685 343.74 97.3672C343.68 97.0659 343.711 96.7535 343.829 96.4697C343.946 96.1858 344.145 95.9432 344.401 95.7725C344.656 95.6019 344.957 95.5108 345.264 95.5108C345.468 95.51 345.67 95.5497 345.859 95.6275C346.048 95.7053 346.22 95.8196 346.364 95.964C346.508 96.1084 346.623 96.28 346.701 96.4688C346.778 96.6576 346.818 96.8599 346.817 97.0641Z" fill="#E0E0E0"/>
<path d="M346.398 78.9854H344.002V93.9058H346.398V78.9854Z" fill="#E0E0E0"/>
<path d="M331.507 105.267L340.919 73.1501L337.674 71.7285L328.021 104.103L331.507 105.267Z" fill="#F5F5F5"/>
<path d="M317.561 157.537V152.012H356.601L356.722 157.537H317.561Z" fill="#F5F5F5"/>
<path d="M356.619 152.911C356.619 152.911 321.997 153.163 319.756 153.696C319.275 153.805 318.782 155.932 319.756 156.127C320.731 156.322 356.619 156.614 356.619 156.614V152.911Z" fill="#EBEEF1"/>
<path d="M322.101 151.788V146.263H353.019L353.122 151.788H322.101Z" fill="#EBEBEB"/>
<path d="M353.036 147.168C353.036 147.168 325.608 147.42 323.837 147.948C323.453 148.062 323.063 150.189 323.837 150.384C324.611 150.579 353.036 150.871 353.036 150.871V147.168Z" fill="#FAFAFA"/>
<path d="M321.957 146.331V140.806H352.881L352.979 146.331H321.957Z" fill="#E0E0E0"/>
<path d="M352.899 141.705C352.899 141.705 325.471 141.957 323.7 142.49C323.316 142.599 322.926 144.726 323.7 144.921C324.474 145.116 352.899 145.408 352.899 145.408V141.705Z" fill="#FAFAFA"/>
<path d="M368.072 13.8926H360.236V50.3942H368.072V13.8926Z" fill="#F5F5F5"/>
<path d="M365.864 41.6471C365.864 41.9544 365.773 42.2547 365.602 42.5102C365.432 42.7656 365.189 42.9647 364.905 43.0823C364.621 43.1999 364.309 43.2306 364.008 43.1707C363.706 43.1107 363.43 42.9628 363.212 42.7455C362.995 42.5283 362.847 42.2515 362.787 41.9502C362.727 41.6489 362.758 41.3365 362.876 41.0527C362.993 40.7688 363.192 40.5262 363.448 40.3556C363.703 40.1849 364.003 40.0938 364.311 40.0938C364.515 40.093 364.717 40.1327 364.906 40.2105C365.095 40.2883 365.266 40.4027 365.411 40.547C365.555 40.6914 365.67 40.863 365.747 41.0518C365.825 41.2406 365.865 41.4429 365.864 41.6471Z" fill="#E0E0E0"/>
<path d="M365.446 23.5625H363.05V38.483H365.446V23.5625Z" fill="#E0E0E0"/>
<path d="M360.115 13.8926H352.285V50.3942H360.115V13.8926Z" fill="#EBEBEB"/>
<path d="M357.909 41.6471C357.909 41.9544 357.817 42.2547 357.647 42.5102C357.476 42.7656 357.233 42.9647 356.95 43.0823C356.666 43.1999 356.353 43.2306 356.052 43.1707C355.751 43.1107 355.474 42.9628 355.257 42.7455C355.04 42.5283 354.892 42.2515 354.832 41.9502C354.772 41.6489 354.802 41.3365 354.92 41.0527C355.038 40.7688 355.237 40.5262 355.492 40.3556C355.748 40.1849 356.048 40.0938 356.355 40.0938C356.559 40.093 356.762 40.1327 356.951 40.2105C357.139 40.2883 357.311 40.4027 357.455 40.547C357.6 40.6914 357.714 40.863 357.792 41.0518C357.87 41.2406 357.909 41.4429 357.909 41.6471Z" fill="#FAFAFA"/>
<path d="M357.49 23.5625H355.094V38.483H357.49V23.5625Z" fill="#FAFAFA"/>
<path d="M352.537 13.8926H344.708V50.3942H352.537V13.8926Z" fill="#E0E0E0"/>
<path d="M350.33 41.6471C350.33 41.9544 350.239 42.2547 350.069 42.5102C349.898 42.7656 349.655 42.9647 349.371 43.0823C349.088 43.1999 348.775 43.2306 348.474 43.1707C348.173 43.1107 347.896 42.9628 347.679 42.7455C347.461 42.5283 347.313 42.2515 347.253 41.9502C347.194 41.6489 347.224 41.3365 347.342 41.0527C347.459 40.7688 347.659 40.5262 347.914 40.3556C348.169 40.1849 348.47 40.0938 348.777 40.0938C348.981 40.093 349.184 40.1327 349.372 40.2105C349.561 40.2883 349.733 40.4027 349.877 40.547C350.022 40.6914 350.136 40.863 350.214 41.0518C350.291 41.2406 350.331 41.4429 350.33 41.6471Z" fill="#FAFAFA"/>
<path d="M349.912 23.5625H347.516V38.483H349.912V23.5625Z" fill="#FAFAFA"/>
<path d="M237.473 222.32V235.773H235.226V237.229H237.473V246.234H279.448V238.043H276.341V236.255H279.448V233.584H280.83V232.363H279.19V222.32H237.473Z" fill="#F5F5F5"/>
<path d="M268.299 222.36V246.085H279.448V237.894H276.341V236.255L279.448 236.312V233.635H280.858L280.835 232.254L279.19 232.214V222.32L268.299 222.36Z" fill="#E0E0E0"/>
<path d="M269.096 237.041C269.096 237.121 261.501 237.19 252.13 237.19C242.758 237.19 235.168 237.121 235.168 237.041C235.168 236.96 242.758 236.892 252.13 236.892C261.501 236.892 269.096 236.955 269.096 237.041Z" fill="#E0E0E0"/>
<path d="M269.096 235.671C269.096 235.756 261.501 235.82 252.13 235.82C242.758 235.82 235.168 235.756 235.168 235.671C235.168 235.585 242.758 235.521 252.13 235.521C261.501 235.521 269.096 235.59 269.096 235.671Z" fill="#E0E0E0"/>
<path d="M271.274 231.997C271.274 232.077 263.679 232.146 254.313 232.146C244.947 232.146 237.346 232.077 237.346 231.997C237.346 231.916 244.941 231.848 254.313 231.848C263.685 231.848 271.274 231.911 271.274 231.997Z" fill="#E0E0E0"/>
<path d="M271.475 242.016C271.475 242.096 263.88 242.165 254.508 242.165C245.136 242.165 237.542 242.096 237.542 242.016C237.542 241.936 245.136 241.867 254.508 241.867C263.88 241.867 271.475 241.936 271.475 242.016Z" fill="#E0E0E0"/>
<path d="M122.763 241.121C121.88 240.365 119.897 237.969 121.428 235.177C122.001 234.151 123.147 233.647 124.236 233.2C125.34 232.827 126.38 232.288 127.32 231.6C128.988 230.179 129.452 227.823 130.559 225.926C131.831 223.747 134.204 222.12 136.715 222.234C139.581 222.366 141.988 224.71 143.072 227.393C144.155 230.076 144.218 233.039 144.218 235.928C144.218 237.527 144.161 239.333 142.986 240.411C141.908 241.402 140.28 241.419 138.813 241.373L123.107 240.892" fill="#F5F5F5"/>
<path d="M152.822 197.931H111.552L119.003 242.291C119.157 243.215 119.57 244.077 120.194 244.776C120.818 245.475 121.628 245.983 122.529 246.24L122.672 246.28C122.798 246.315 122.913 246.355 123.039 246.378C123.317 246.431 123.598 246.463 123.881 246.475V246.515L124.082 246.481H142.493C142.832 246.481 143.17 246.448 143.502 246.384C144.578 246.218 145.569 245.703 146.324 244.919C147.079 244.135 147.555 243.125 147.681 242.044L151.269 211.481L151.43 210.266L152.851 198.16L152.822 197.931ZM145.01 226.218H140.785L141.209 213.344H146.122L145.01 226.218ZM146.517 213.35H150.575L149.068 226.218H145.422L146.517 213.35ZM134.405 240.502L134.147 229.314H140.252L139.879 240.502H134.405ZM127.814 229.314H133.746L134.004 240.502H128.685L127.814 229.314ZM128.272 240.502H123.297C122.827 237.482 122.213 233.555 121.548 229.314H127.401L128.272 240.502ZM127.601 226.218L126.604 213.344H133.408L133.7 226.218H127.601ZM134.113 226.218L133.815 213.344H140.785L140.361 226.218H134.113ZM133.746 210.26L133.471 198.332H141.318L140.923 210.26H133.746ZM133.333 210.26H126.335L125.406 198.332H133.03L133.333 210.26ZM125.951 210.26H118.545L117.811 205.675C117.043 200.854 116.751 199.037 116.59 198.355H124.993L125.951 210.26ZM126.191 213.344L127.16 226.218H121.061C120.855 224.917 120.648 223.593 120.442 222.269C119.961 219.231 119.485 216.193 119.032 213.344H126.191ZM120.648 226.218H116.636L114.481 213.344H118.596C119.25 217.328 119.943 221.759 120.648 226.218ZM121.13 229.308C121.738 233.177 122.339 236.994 122.884 240.497H119.055L117.181 229.308H121.13ZM140.298 240.497L140.67 229.308H144.746L143.789 240.497H140.298ZM141.301 210.26L141.697 198.332H147.394L146.374 210.26H141.301ZM116.2 198.332C116.367 199.197 117.118 203.886 118.126 210.26H113.982L111.982 198.332H116.2ZM147.394 240.497H144.224L145.182 229.308H148.73L147.394 240.497ZM150.942 210.26H146.787L147.807 198.332H152.341L150.942 210.26Z" fill="#E0E0E0"/>
<path d="M26.482 43.0449H6.06445V83.5131H26.482V43.0449Z" fill="#EBEBEB"/>
<path d="M49.3186 43.0449H27.2617V83.5131H49.3186V43.0449Z" fill="#EBEBEB"/>
<path d="M49.3186 86.3398H27.2617V125.438H49.3186V86.3398Z" fill="#EBEBEB"/>
<path d="M52.1504 42.3459H75.3823V6.44617H76.1676V42.3459H95.0719V5.64941H52.1504V42.3459Z" fill="#EBEBEB"/>
<path d="M95.0717 43.0449H76.1675V83.5131H95.0717V43.0449Z" fill="#EBEBEB"/>
<path d="M95.0717 86.3398H76.1675V125.438H95.0717V86.3398Z" fill="#EBEBEB"/>
<path d="M26.482 86.3398H6.06445V125.438H26.482V86.3398Z" fill="#EBEBEB"/>
<path d="M75.3823 86.3398H52.1504V125.438H75.3823V86.3398Z" fill="#EBEBEB"/>
<path d="M26.482 126.144H6.06445V161.378H26.482V126.144Z" fill="#EBEBEB"/>
<path d="M95.0717 126.144H76.1675V161.378H95.0717V126.144Z" fill="#EBEBEB"/>
<path d="M26.4762 42.3459V6.44617H27.2615V42.3459H49.3241V5.64941H6.06445V42.3459H26.4762Z" fill="#EBEBEB"/>
<path d="M75.3823 126.144H52.1504V161.378H75.3823V126.144Z" fill="#EBEBEB"/>
<path d="M49.3186 126.144H27.2617V161.378H49.3186V126.144Z" fill="#EBEBEB"/>
<path d="M75.3823 43.0449H52.1504V83.5131H75.3823V43.0449Z" fill="#EBEBEB"/>
<path d="M38.9954 205.394C41.2554 204.33 43.7973 204.021 46.2465 204.511C47.5591 204.729 48.929 205.124 49.829 206.11C50.7289 207.096 50.8894 208.833 49.8634 209.681C49.202 210.133 48.4019 210.337 47.6049 210.255C45.6904 210.255 43.5925 209.899 42.0334 211.051C41.1621 211.705 40.5775 212.771 39.5342 213.126C39.0115 213.246 38.4639 213.193 37.974 212.975C37.484 212.757 37.0781 212.385 36.8173 211.917C36.3221 210.956 36.2134 209.843 36.5135 208.804C36.6367 208.083 36.9248 207.4 37.3553 206.809C37.7858 206.217 38.3471 205.733 38.9954 205.394Z" fill="#EBEBEB"/>
<path d="M33.9452 195.644C35.298 197.57 37.9175 196.928 39.104 195.753C40.2906 194.578 40.8237 192.887 41.2994 191.253C42.3656 187.539 43.4432 183.647 42.6464 179.869C42.4573 178.723 41.9554 177.652 41.1962 176.774C40.8099 176.342 40.3173 176.018 39.7673 175.835C39.2173 175.652 38.629 175.616 38.0608 175.731C36.7424 176.08 35.9228 177.376 35.3266 178.597C33.5805 182.23 32.6642 186.207 32.644 190.238C32.644 192.113 32.8619 194.085 33.9166 195.632" fill="#EBEBEB"/>
<path d="M30.248 198.407C31.7097 196.687 31.9676 194.136 31.3371 191.958C30.5969 189.797 29.2762 187.881 27.5196 186.421C25.5216 184.653 23.1991 183.29 20.6813 182.409C19.7055 182.012 18.655 181.834 17.6032 181.887C17.0786 181.916 16.5691 182.074 16.1195 182.346C15.6698 182.617 15.2936 182.995 15.0237 183.446C14.3072 184.822 14.9951 186.484 15.7403 187.843C17.0558 190.237 18.5585 192.523 20.2342 194.681C21.5755 196.4 23.1002 198.12 25.1694 198.911C27.2387 199.702 29.3538 199.605 30.4429 198.183" fill="#EBEBEB"/>
<path d="M33.8535 224.682C33.9295 224.398 33.9718 224.105 33.9796 223.811C34.0427 223.175 34.1172 222.372 34.2089 221.421C34.3293 220.245 34.5092 219.076 34.7477 217.918C35.0587 216.508 35.4843 215.126 36.0202 213.786C36.5439 212.447 37.2541 211.188 38.1296 210.048C38.8422 209.118 39.7551 208.359 40.8007 207.83C41.508 207.479 42.2664 207.243 43.0477 207.131C43.3416 207.118 43.6335 207.076 43.919 207.005C43.6238 206.971 43.3257 206.971 43.0305 207.005C42.2188 207.068 41.4248 207.275 40.6861 207.618C39.5891 208.138 38.6261 208.902 37.8717 209.853C36.9577 211.01 36.2216 212.297 35.6878 213.671C35.141 215.031 34.717 216.437 34.421 217.872C34.1958 219.043 34.0408 220.226 33.9567 221.415C33.8822 222.429 33.8535 223.249 33.8363 223.817C33.8136 224.105 33.8194 224.395 33.8535 224.682Z" fill="#E0E0E0"/>
<path d="M34.0201 222.848C34.0372 222.713 34.0372 222.576 34.0201 222.441V221.294C34.0201 220.286 34.0201 218.824 34.0717 217.024C34.1577 213.424 34.4672 209.572 35.0691 204.087C35.6423 198.928 36.3989 192.972 37.2014 189.086C37.3733 188.203 37.5453 187.407 37.7058 186.707C37.8663 186.008 37.9981 185.412 38.1242 184.925C38.2503 184.437 38.3249 184.093 38.3936 183.778C38.4358 183.648 38.4608 183.513 38.4682 183.377C38.4039 183.496 38.3557 183.623 38.3249 183.755C38.2389 184.048 38.1242 184.42 37.9867 184.867C37.8491 185.314 37.6886 185.951 37.5109 186.644C37.3332 187.338 37.1383 188.135 36.9377 189.017C35.9582 193.616 35.2254 198.264 34.7423 202.94C34.1691 208.414 33.8711 213.401 33.8481 217.013C33.8481 218.812 33.8481 220.274 33.9112 221.283C33.9112 221.753 33.9628 222.137 33.9857 222.429C33.98 222.57 33.9916 222.71 34.0201 222.848Z" fill="#E0E0E0"/>
<path d="M34.043 213.236C34.0779 212.831 34.0779 212.425 34.043 212.021C33.9972 211.241 33.8882 210.118 33.6704 208.736C33.4042 207.122 33.0483 205.524 32.6043 203.95C32.0801 202.014 31.4094 200.121 30.5981 198.287C29.2125 194.898 27.2216 191.79 24.7227 189.115C24.2894 188.659 23.828 188.23 23.3413 187.831C23.1292 187.648 22.9401 187.47 22.7681 187.333L22.2293 186.96C21.9066 186.716 21.5655 186.498 21.209 186.307C22.385 187.232 23.503 188.23 24.5565 189.293C26.9699 191.986 28.9081 195.07 30.2885 198.413C31.0839 200.236 31.756 202.111 32.3005 204.024C32.8221 205.784 33.1717 207.401 33.4469 208.765C33.722 210.129 33.8424 211.241 33.9284 212.015C33.9375 212.424 33.9758 212.832 34.043 213.236Z" fill="#E0E0E0"/>
<path d="M24.7515 230.19L25.7144 243.391H42.6698L43.6328 230.19H24.7515Z" fill="#E0E0E0"/>
<path d="M45.6618 224.991H23.1177V230.196H45.6618V224.991Z" fill="#E0E0E0"/>
<path d="M23.1177 242.887V244.325H24.1724H45.2834V242.887H23.1177Z" fill="#EBEBEB"/>
<path d="M25.2099 246.864L24.1724 244.325H44.4752L43.2658 246.864H25.2099Z" fill="#E0E0E0"/>
<path d="M43.34 234.506C43.3206 234.55 43.2955 234.59 43.2655 234.627L43.0075 234.965L42.0216 236.226L41.9758 236.283L41.9356 236.226L39.511 232.867H39.6486L37.2583 236.249L37.1838 236.358L37.1035 236.255L34.2375 232.884H34.4037L34.249 233.079C33.3662 234.18 32.5294 235.246 31.7154 236.255L31.6294 236.364L31.5492 236.249L29.1589 232.867H29.2965L26.356 236.22L26.3044 236.278L26.2643 236.209C25.8745 235.561 25.5649 235.062 25.3414 234.661L25.1121 234.243C25.0823 234.198 25.0573 234.15 25.0376 234.099C25.0376 234.099 25.0777 234.14 25.135 234.231L25.3987 234.627L26.3674 236.146H26.2757C27.0266 235.257 27.9953 234.105 29.1417 232.747L29.2163 232.661L29.2793 232.758L31.6925 236.123H31.532L34.0598 232.942L34.2146 232.747L34.2948 232.644L34.3751 232.747L37.201 236.123H37.0462C37.9175 234.908 38.7257 233.773 39.4594 232.758L39.5282 232.661L39.597 232.758L41.97 236.152H41.884L42.9158 234.919L43.191 234.604C43.2827 234.535 43.34 234.501 43.34 234.506Z" fill="#F5F5F5"/>
<path d="M43.8676 230.104C43.8676 230.161 39.6201 230.213 34.381 230.213C29.142 230.213 24.8945 230.161 24.8945 230.104C24.8945 230.047 29.142 230.001 34.381 230.001C39.6201 230.001 43.8676 230.047 43.8676 230.104Z" fill="#F5F5F5"/>
<path d="M44.7276 244.469C44.7276 244.527 40.1076 244.578 34.4099 244.578C28.7123 244.578 24.0923 244.527 24.0923 244.469C24.0923 244.412 28.6779 244.366 34.4099 244.366C40.142 244.366 44.7276 244.412 44.7276 244.469Z" fill="#F5F5F5"/>
<path d="M325.93 197.702C325.878 197.765 325.454 197.507 324.984 197.129C324.514 196.75 324.17 196.389 324.221 196.326C324.273 196.263 324.697 196.515 325.167 196.899C325.637 197.283 325.998 197.639 325.93 197.702Z" fill="#263238"/>
<path d="M338.844 178.431C338.918 176.631 338.97 174.785 338.402 173.071C337.835 171.358 336.516 169.793 334.751 169.426C332.733 169.007 330.67 170.28 329.546 172C328.423 173.719 328.027 175.806 327.695 177.835C325.396 191.834 324.549 206.033 325.167 220.206L333.41 221.352C337.027 206.569 338.184 193.644 338.844 178.431Z" fill="#455A64"/>
<path d="M333.605 169.363C333.601 169.408 333.59 169.453 333.571 169.495C333.531 169.592 333.49 169.718 333.433 169.867C333.301 170.217 333.118 170.693 332.86 171.289C332.745 171.598 332.59 171.937 332.47 172.321C332.35 172.705 332.212 173.123 332.069 173.57C331.926 174.017 331.771 174.493 331.61 175.003C331.45 175.513 331.329 176.064 331.18 176.637C330.494 179.323 329.964 182.046 329.593 184.793C329.145 187.895 328.853 191.328 328.624 194.933C328.2 202.156 328.137 208.69 327.948 213.448C327.862 215.821 327.781 217.735 327.69 219.06C327.644 219.702 327.609 220.206 327.586 220.584C327.586 220.745 327.586 220.871 327.552 220.98C327.558 221.025 327.558 221.072 327.552 221.117C327.546 221.072 327.546 221.025 327.552 220.98V220.579C327.552 220.206 327.552 219.696 327.598 219.054C327.655 217.73 327.701 215.81 327.764 213.442C327.896 208.702 327.93 202.15 328.337 194.916C328.572 191.299 328.87 187.86 329.335 184.753C329.72 182 330.274 179.272 330.991 176.585C331.152 176.012 331.301 175.439 331.438 174.946C331.576 174.453 331.771 173.966 331.926 173.519C332.08 173.071 332.218 172.659 332.35 172.275C332.482 171.891 332.642 171.558 332.768 171.249C333.02 170.675 333.221 170.188 333.341 169.844L333.508 169.483C333.582 169.397 333.599 169.357 333.605 169.363Z" fill="#263238"/>
<path d="M334.367 169.368C334.801 169.878 335.143 170.46 335.376 171.088C336.007 172.79 336.263 174.608 336.127 176.419C335.909 181.004 335.502 187.252 334.981 194.188C334.459 201.124 333.834 207.372 333.347 211.911C333.106 214.175 332.894 216.01 332.739 217.271C332.659 217.884 332.596 218.366 332.55 218.727C332.55 218.876 332.51 219.002 332.493 219.105C332.5 219.147 332.5 219.189 332.493 219.231C332.485 219.187 332.485 219.143 332.493 219.099C332.493 218.996 332.493 218.87 332.493 218.721C332.527 218.36 332.567 217.873 332.625 217.259C332.751 215.964 332.923 214.135 333.141 211.894C333.571 207.36 334.144 201.095 334.688 194.165C335.233 187.235 335.674 180.981 335.944 176.424C336.094 174.637 335.874 172.838 335.296 171.139C335.043 170.521 334.732 169.928 334.367 169.368Z" fill="#263238"/>
<path d="M340.082 190.68C339.018 190.502 337.995 190.135 337.061 189.597C338.126 189.768 339.15 190.135 340.082 190.68Z" fill="#263238"/>
<path d="M341.08 182.3C340.63 182.653 340.127 182.931 339.589 183.125C339.091 183.406 338.548 183.599 337.984 183.698C338.928 183.061 339.975 182.593 341.08 182.317V182.3Z" fill="#263238"/>
<path d="M340.563 175.439C340.164 175.561 339.74 175.583 339.331 175.502C338.917 175.52 338.505 175.442 338.127 175.272C338.941 175.132 339.776 175.189 340.563 175.439Z" fill="#263238"/>
<path d="M332.057 171.047C331.988 171.093 331.627 170.64 331.249 170.044C330.871 169.448 330.624 168.926 330.676 168.898C330.727 168.869 331.106 169.305 331.484 169.907C331.755 170.241 331.951 170.63 332.057 171.047Z" fill="#263238"/>
<path d="M329.249 175.203C328.882 175.334 328.489 175.377 328.102 175.329C327.712 175.362 327.32 175.303 326.956 175.157C326.956 175.071 327.483 175.02 328.102 175.031C328.493 174.999 328.885 175.058 329.249 175.203Z" fill="#263238"/>
<path d="M327.231 183.486C327.196 183.566 326.658 183.411 325.998 183.148C325.339 182.884 324.852 182.615 324.852 182.54C325.283 182.559 325.704 182.674 326.084 182.878C326.755 183.142 327.26 183.411 327.231 183.486Z" fill="#263238"/>
<path d="M327.013 190.462C327.013 190.542 326.56 190.708 325.964 190.835C325.368 190.961 324.869 190.995 324.858 190.915C324.846 190.835 325.31 190.668 325.907 190.548C326.503 190.428 326.996 190.382 327.013 190.462Z" fill="#263238"/>
<path d="M326.062 201.875C326.062 201.955 325.58 202.11 324.95 202.224C324.319 202.339 323.803 202.362 323.803 202.282C323.803 202.201 324.285 202.047 324.915 201.932C325.546 201.817 326.05 201.794 326.062 201.875Z" fill="#263238"/>
<path d="M325.431 208.174C325.471 208.243 325.053 208.541 324.502 208.833C323.952 209.126 323.476 209.298 323.436 209.229C323.396 209.16 323.815 208.862 324.365 208.57C324.915 208.277 325.397 208.1 325.431 208.174Z" fill="#263238"/>
<path d="M330.579 215.327C330.504 215.367 330.143 214.869 329.765 214.21C329.488 213.834 329.293 213.404 329.191 212.949C329.26 212.908 329.621 213.407 330 214.095C330.276 214.461 330.473 214.881 330.579 215.327Z" fill="#263238"/>
<path d="M332.063 203.439C332.115 203.502 331.714 204.012 331.158 204.528C330.602 205.044 330.109 205.468 330.051 205.411C329.994 205.354 330.401 204.866 330.951 204.322C331.501 203.777 332.006 203.382 332.063 203.439Z" fill="#263238"/>
<path d="M331.731 197.209C331.673 197.266 331.301 196.957 330.894 196.521C330.487 196.086 330.217 195.69 330.275 195.639C330.332 195.587 330.71 195.891 331.112 196.321C331.513 196.751 331.794 197.152 331.731 197.209Z" fill="#263238"/>
<path d="M332.75 189.241C332.814 189.298 332.475 189.774 332 190.301C331.524 190.829 331.088 191.218 331.031 191.167C330.974 191.115 331.306 190.634 331.782 190.106C332.257 189.579 332.693 189.189 332.75 189.241Z" fill="#263238"/>
<path d="M333.324 183.464C333.266 183.521 332.802 183.154 332.28 182.638C331.759 182.122 331.381 181.664 331.438 181.606C331.495 181.549 331.965 181.916 332.487 182.432C333.008 182.948 333.381 183.406 333.324 183.464Z" fill="#263238"/>
<path d="M334.453 175.651C334.363 176.067 334.183 176.458 333.926 176.797C333.57 177.399 333.221 177.858 333.152 177.817C333.083 177.777 333.312 177.244 333.673 176.671C334.035 176.098 334.384 175.611 334.453 175.651Z" fill="#263238"/>
<path d="M336.579 168.411C336.509 168.823 336.349 169.214 336.109 169.557C335.783 170.165 335.456 170.623 335.387 170.589C335.453 170.167 335.611 169.766 335.852 169.414C336.184 168.829 336.505 168.371 336.579 168.411Z" fill="#263238"/>
<path d="M338.987 171.695C339.021 171.77 338.689 171.999 338.248 172.211C337.806 172.423 337.422 172.538 337.388 172.463C337.353 172.389 337.68 172.16 338.121 171.948C338.563 171.735 338.953 171.627 338.987 171.695Z" fill="#263238"/>
<path d="M339.044 197.702C338.484 197.707 337.93 197.573 337.434 197.312C336.899 197.137 336.418 196.83 336.035 196.418C336.559 196.576 337.066 196.786 337.548 197.043C338.068 197.212 338.569 197.433 339.044 197.702Z" fill="#263238"/>
<path d="M338.059 203.21C338.059 203.29 337.577 203.451 336.953 203.571C336.328 203.692 335.806 203.726 335.806 203.646C335.806 203.566 336.282 203.405 336.912 203.285C337.283 203.168 337.676 203.142 338.059 203.21Z" fill="#263238"/>
<path d="M336.849 212.657C336.342 212.403 335.909 212.022 335.594 211.55C335.207 211.137 334.936 210.629 334.809 210.077C335.181 210.479 335.521 210.91 335.823 211.367C336.204 211.765 336.547 212.196 336.849 212.657Z" fill="#263238"/>
<path d="M323.602 216.973C323.551 216.909 323.883 216.537 324.348 216.141C324.812 215.746 325.236 215.471 325.288 215.528C325.339 215.585 325.007 215.964 324.543 216.365C324.078 216.766 323.637 217.047 323.602 216.973Z" fill="#263238"/>
<path d="M319.79 196.36C319.257 194.687 318.248 192.732 316.489 192.709C315.967 192.738 315.462 192.907 315.028 193.197C314.593 193.487 314.245 193.889 314.018 194.36C313.538 195.296 313.307 196.34 313.347 197.392C313.565 204.852 314.838 212.243 317.131 219.346H323.562C323.489 211.536 322.217 203.784 319.79 196.36Z" fill="#455A64"/>
<path d="M308.16 185.819C307.26 182.219 304.577 180.276 301.459 180.087C298.593 180.586 297.515 183.389 297.177 186.255C296.839 189.121 297.75 191.987 298.605 194.732C301.429 203.56 304.252 212.391 307.076 221.226L315.101 220.349C312.545 208.524 311.089 197.558 308.16 185.819Z" fill="#455A64"/>
<path d="M316.489 192.709C316.284 192.998 316.102 193.303 315.945 193.62C315.614 194.537 315.512 195.521 315.646 196.486C315.767 197.707 315.91 199.18 316.116 200.797C316.323 202.413 316.615 204.185 316.976 206.03C317.704 209.727 318.524 213.046 319.046 215.465C319.309 216.675 319.51 217.655 319.619 218.331C319.676 218.641 319.722 218.904 319.756 219.116C319.767 219.208 319.767 219.3 319.756 219.392C319.715 219.308 319.686 219.219 319.67 219.128L319.481 218.354L318.799 215.488C318.226 213.086 317.378 209.756 316.65 206.065C316.283 204.213 316.002 202.436 315.807 200.808C315.704 199.994 315.635 199.221 315.566 198.516C315.497 197.81 315.429 197.123 315.394 196.498C315.282 195.51 315.422 194.51 315.801 193.592C315.964 193.251 316.198 192.95 316.489 192.709Z" fill="#263238"/>
<path d="M301.569 179.869C301.215 180.275 300.893 180.708 300.606 181.165C299.868 182.443 299.449 183.88 299.385 185.355C299.346 187.552 299.682 189.741 300.376 191.826C301.082 194.205 301.85 196.819 302.669 199.564L306.756 213.608C307.261 215.396 307.673 216.846 307.966 217.89L308.281 219.036C308.324 219.171 308.355 219.309 308.373 219.449C308.308 219.323 308.258 219.191 308.224 219.053L307.857 217.907C307.542 216.875 307.1 215.431 306.556 213.659L302.377 199.599C301.574 196.847 300.812 194.234 300.113 191.849C299.426 189.741 299.11 187.53 299.179 185.315C299.258 183.813 299.716 182.356 300.508 181.079C300.794 180.62 301.152 180.212 301.569 179.869Z" fill="#263238"/>
<path d="M313.319 219.501C313.25 219.378 313.19 219.249 313.141 219.116C313.032 218.859 312.866 218.486 312.683 217.97C312.304 216.984 311.811 215.534 311.307 213.717C310.803 211.9 310.298 209.705 309.817 207.257C309.335 204.809 308.842 202.098 308.309 199.295C307.776 196.492 307.128 193.81 306.412 191.431C305.789 189.32 305.009 187.258 304.079 185.263C303.448 183.918 302.726 182.618 301.918 181.371C301.643 180.924 301.396 180.603 301.247 180.368C301.162 180.253 301.086 180.133 301.018 180.007C301.122 180.105 301.214 180.214 301.293 180.334C301.459 180.557 301.723 180.867 302.015 181.308C302.862 182.536 303.614 183.828 304.262 185.171C305.228 187.164 306.033 189.23 306.67 191.351C307.454 193.957 308.1 196.603 308.607 199.278C309.135 202.104 309.633 204.792 310.092 207.245C310.55 209.699 311.038 211.883 311.519 213.7C312.001 215.517 312.453 216.973 312.803 217.97C312.969 218.469 313.118 218.847 313.204 219.116C313.255 219.241 313.293 219.369 313.319 219.501Z" fill="#263238"/>
<path d="M298.742 193.414C298.742 193.494 298.33 193.666 297.774 193.798C297.218 193.93 296.748 193.982 296.73 193.901C296.713 193.821 297.149 193.649 297.705 193.517C298.261 193.386 298.725 193.334 298.742 193.414Z" fill="#263238"/>
<path d="M297.894 187.951C297.001 188.108 296.091 188.142 295.188 188.054C295.609 187.858 296.072 187.772 296.535 187.802C296.994 187.733 297.462 187.785 297.894 187.951Z" fill="#263238"/>
<path d="M298.8 182.959C298.748 183.022 298.312 182.741 297.825 182.329C297.338 181.916 296.994 181.538 297.046 181.475C297.097 181.412 297.533 181.692 298.02 182.105C298.507 182.518 298.851 182.896 298.8 182.959Z" fill="#263238"/>
<path d="M301.241 178.338C301.322 178.338 301.299 178.745 301.287 179.215C301.276 179.685 301.287 180.075 301.19 180.092C301.092 180.11 300.978 179.714 300.995 179.21C301.012 178.705 301.161 178.321 301.241 178.338Z" fill="#263238"/>
<path d="M306.235 180.517C306.298 180.563 306.103 180.958 305.793 181.4C305.484 181.841 305.186 182.156 305.117 182.111C305.048 182.065 305.243 181.669 305.552 181.228C305.862 180.787 306.166 180.471 306.235 180.517Z" fill="#263238"/>
<path d="M309.467 186.14C309.502 186.22 309.089 186.455 308.544 186.679C308 186.902 307.535 187.017 307.507 186.942C307.478 186.868 307.891 186.627 308.435 186.404C308.98 186.18 309.438 186.094 309.467 186.14Z" fill="#263238"/>
<path d="M311.433 191.93C310.659 192.464 309.708 192.679 308.779 192.532C309.654 192.289 310.539 192.088 311.433 191.93Z" fill="#263238"/>
<path d="M302.428 190.285C302.348 190.285 302.428 189.86 302.549 189.396C302.669 188.932 302.881 188.565 302.956 188.588C303.03 188.611 302.956 189.012 302.83 189.482C302.703 189.952 302.491 190.313 302.428 190.285Z" fill="#263238"/>
<path d="M303.672 197.558C303.699 197.135 303.823 196.723 304.033 196.355C304.309 195.724 304.607 195.237 304.67 195.271C304.64 195.695 304.515 196.107 304.303 196.475C304.028 197.1 303.747 197.587 303.672 197.558Z" fill="#263238"/>
<path d="M300.565 199.541C300.531 199.622 300.027 199.484 299.419 199.289C298.811 199.094 298.307 198.922 298.324 198.842C298.341 198.762 298.897 198.813 299.505 199.008C300.113 199.203 300.594 199.473 300.565 199.541Z" fill="#263238"/>
<path d="M302.354 205.468C302.406 205.537 302.062 205.864 301.592 206.196C301.122 206.529 300.703 206.769 300.652 206.683C300.6 206.597 300.95 206.294 301.42 205.955C301.89 205.617 302.308 205.405 302.354 205.468Z" fill="#263238"/>
<path d="M303.793 211.378C303.793 211.458 303.386 211.624 302.847 211.756C302.308 211.888 301.849 211.934 301.827 211.854C301.804 211.773 302.234 211.607 302.778 211.475C303.323 211.343 303.775 211.315 303.793 211.378Z" fill="#263238"/>
<path d="M311.6 196.865C311.64 196.934 311.279 197.226 310.752 197.438C310.224 197.65 309.76 197.661 309.743 197.581C309.726 197.501 310.144 197.352 310.643 197.163C311.141 196.974 311.554 196.796 311.6 196.865Z" fill="#263238"/>
<path d="M312.706 206.058C312.671 206.133 312.241 206.001 311.743 205.766C311.244 205.531 310.866 205.279 310.9 205.193C310.935 205.107 311.37 205.244 311.869 205.479C312.367 205.714 312.746 205.984 312.706 206.058Z" fill="#263238"/>
<path d="M314.678 212.634C314.232 212.616 313.796 212.501 313.399 212.296C312.723 212.032 312.201 211.751 312.253 211.677C312.697 211.699 313.131 211.817 313.526 212.021C313.949 212.14 314.342 212.35 314.678 212.634Z" fill="#263238"/>
<path d="M304.108 217.786C304.068 217.712 304.595 217.362 305.203 216.881C305.549 216.552 305.934 216.267 306.349 216.032C306.412 216.084 306.028 216.605 305.392 217.11C305.035 217.45 304.591 217.684 304.108 217.786Z" fill="#263238"/>
<path d="M309.307 214.445C309.226 214.445 309.112 214.009 308.911 213.499C308.711 212.989 308.504 212.576 308.567 212.53C308.63 212.485 308.974 212.834 309.186 213.39C309.398 213.946 309.387 214.439 309.307 214.445Z" fill="#263238"/>
<path d="M307.931 206.535C307.885 206.598 307.547 206.437 307.18 206.173C306.813 205.91 306.555 205.646 306.607 205.6C306.658 205.554 306.991 205.698 307.358 205.961C307.724 206.225 307.977 206.466 307.931 206.535Z" fill="#263238"/>
<path d="M320.054 194.119C320.1 194.182 319.773 194.509 319.32 194.841C318.867 195.173 318.466 195.414 318.414 195.328C318.363 195.242 318.695 194.938 319.148 194.606C319.601 194.274 320.002 194.073 320.054 194.119Z" fill="#263238"/>
<path d="M321.877 199.128C321.877 199.209 321.373 199.318 320.731 199.249C320.089 199.18 319.619 198.968 319.642 198.893C319.665 198.819 320.158 198.893 320.788 198.957C321.419 199.02 321.872 199.048 321.877 199.128Z" fill="#263238"/>
<path d="M314.025 200.253C314.025 200.327 313.572 200.499 312.959 200.539C312.345 200.579 311.852 200.476 311.858 200.396C311.864 200.316 312.351 200.287 312.936 200.247C313.52 200.207 314.007 200.172 314.025 200.253Z" fill="#263238"/>
<path d="M314.701 195.529C314.701 195.61 314.213 195.621 313.692 195.38C313.17 195.14 312.861 194.767 312.918 194.71C312.975 194.652 313.336 194.893 313.812 195.111C314.288 195.329 314.712 195.443 314.701 195.529Z" fill="#263238"/>
<path d="M322.553 204.494C322.507 204.563 322.02 204.334 321.458 203.978C320.896 203.623 320.472 203.279 320.518 203.21C320.564 203.141 321.051 203.376 321.613 203.726C322.175 204.076 322.599 204.437 322.553 204.494Z" fill="#263238"/>
<path d="M341.716 218.509H299.82V225.938H341.716V218.509Z" fill="#38BEC9"/>
<path d="M302.944 224.464L308.04 246.653H333.015L338.586 224.464H302.944Z" fill="#38BEC9"/>
<path d="M341.693 225.943C341.693 226.023 332.24 226.092 320.587 226.092C308.934 226.092 299.476 226.023 299.476 225.943C299.476 225.863 308.928 225.794 320.587 225.794C332.246 225.794 341.693 225.863 341.693 225.943Z" fill="#263238"/>
<path d="M318.392 200.424C318.323 200.47 318.037 200.131 317.75 199.679C317.464 199.226 317.292 198.819 317.36 198.779C317.429 198.739 317.716 199.065 318.002 199.524C318.289 199.982 318.478 200.372 318.392 200.424Z" fill="#263238"/>
<path d="M318.409 206.386C318.329 206.386 318.409 205.859 318.627 205.24C318.845 204.62 319.046 204.179 319.126 204.202C319.148 204.596 319.074 204.99 318.908 205.348C318.707 205.95 318.478 206.415 318.409 206.386Z" fill="#263238"/>
<path d="M320.45 212.662C320.139 212.334 319.9 211.943 319.751 211.516C319.518 211.138 319.372 210.713 319.321 210.272C319.395 210.238 319.705 210.736 320.02 211.39C320.256 211.777 320.403 212.212 320.45 212.662Z" fill="#263238"/>
<path d="M316.025 217.706C315.968 217.654 316.214 217.264 316.598 216.84C316.982 216.416 317.315 216.112 317.378 216.164C317.441 216.216 317.188 216.605 316.804 217.029C316.42 217.454 316.088 217.757 316.025 217.706Z" fill="#263238"/>
<path d="M315.096 208.547C315.096 208.627 314.684 208.621 314.196 208.547C313.709 208.472 313.336 208.329 313.348 208.248C313.359 208.168 313.766 208.174 314.248 208.248C314.729 208.323 315.113 208.449 315.096 208.547Z" fill="#263238"/>
<path d="M282.871 160.874H289.445C289.445 160.874 275.024 59.3421 275.832 30.6934L274.812 160.874H282.871Z" fill="#E0E0E0"/>
<path d="M252.021 0.147367C252.021 0.147367 276.594 -1.34296 275.935 25.8383C274.032 104.539 283.289 163.74 283.289 163.74H191.227V2.96179L252.021 0.147367Z" fill="#EBEBEB"/>
<path d="M188.934 206.047L252.806 206.007C256.494 206.006 260.031 204.539 262.639 201.93C265.247 199.322 266.712 195.784 266.712 192.095L266.677 31.9654C266.678 30.1354 266.317 28.3232 265.616 26.6328C264.915 24.9424 263.888 23.4069 262.592 22.1145C261.296 20.8221 259.758 19.7981 258.066 19.1013C256.374 18.4045 254.561 18.0485 252.731 18.0538L188.859 18.0939C187.032 18.0931 185.223 18.4525 183.535 19.1514C181.847 19.8504 180.314 20.8751 179.022 22.1672C177.731 23.4592 176.707 24.9932 176.008 26.6813C175.31 28.3695 174.952 30.1787 174.953 32.0055L174.982 192.136C174.982 193.966 175.343 195.778 176.045 197.469C176.746 199.159 177.775 200.695 179.071 201.987C180.367 203.279 181.905 204.303 183.597 205C185.29 205.697 187.103 206.053 188.934 206.047Z" fill="#455A64"/>
<path d="M188.933 23.7578H201.32H237.484H252.679C255.264 23.7578 257.742 24.7845 259.57 26.6119C261.397 28.4393 262.424 30.9179 262.424 33.5023L262.452 189.798C262.452 192.382 261.426 194.861 259.598 196.688C257.771 198.515 255.292 199.542 252.708 199.542L188.962 199.582C186.378 199.582 183.899 198.556 182.072 196.728C180.244 194.901 179.218 192.422 179.218 189.838L179.189 33.5023C179.189 30.9179 180.216 28.4393 182.043 26.6119C183.87 24.7845 186.349 23.7578 188.933 23.7578Z" fill="#EBEBEB"/>
<path d="M196.959 0.129883L258.085 0.703086C249.12 0.284648 247.206 3.84997 245.732 6.10839C242.929 10.4361 243.21 15.3771 246.415 19.4239C248.28 21.6275 250.839 23.1313 253.671 23.6885H186.692C182.795 19.8653 181.981 15.7898 182.56 12.1213C183.66 5.16834 189.868 0.129883 196.959 0.129883Z" fill="#EBEBEB"/>
<path d="M264.878 3.34062C264.74 3.27669 264.609 3.19789 264.488 3.10561C264.133 2.86502 263.764 2.64678 263.382 2.45216C261.959 1.74828 260.435 1.27244 258.865 1.04208C256.552 0.651635 254.181 0.778883 251.923 1.41466C249.178 2.2972 246.883 4.21029 245.521 6.75118C244.093 9.25307 243.619 12.1868 244.185 15.011C244.471 16.2243 244.993 17.3695 245.721 18.3815C246.359 19.273 247.117 20.0717 247.974 20.7545C249.199 21.7577 250.574 22.5623 252.049 23.1391C253.093 23.5403 253.706 23.6721 253.694 23.7123C253.545 23.6949 253.397 23.6642 253.253 23.6206C252.824 23.5206 252.401 23.3962 251.986 23.248C250.477 22.7098 249.069 21.9232 247.819 20.9208C246.948 20.2314 246.177 19.4252 245.526 18.5248C244.77 17.4959 244.227 16.3268 243.927 15.0856C243.324 12.1944 243.802 9.18267 245.268 6.61935C246.667 4.01225 249.028 2.05424 251.849 1.16245C254.147 0.529105 256.559 0.421354 258.905 0.847189C260.494 1.08937 262.03 1.59705 263.45 2.34898C263.832 2.55829 264.198 2.79588 264.545 3.05975C264.663 3.14531 264.774 3.23917 264.878 3.34062Z" fill="#263238"/>
<path d="M267.462 4.7793C267.945 5.04457 268.398 5.35964 268.815 5.71935C270.02 6.73055 271.096 7.88556 272.019 9.15857C272.702 10.0724 273.306 11.0427 273.825 12.059C274.453 13.2667 274.917 14.5523 275.206 15.8822C275.533 17.3267 275.401 18.903 275.459 20.5424C275.516 22.1817 275.556 23.9358 275.608 25.7643C275.734 29.427 275.9 33.4337 276.095 37.7385C276.095 39.8995 276.095 42.1178 276.06 44.4163C276.026 46.7149 276.06 49.0707 276.06 51.4954C276.06 61.1768 276.267 71.8269 276.685 83.0216C277.493 105.376 279.144 125.548 280.594 140.124C281.34 147.415 281.999 153.308 282.475 157.372C282.715 159.401 282.905 160.977 283.048 162.055C283.105 162.59 283.151 162.997 283.185 163.276C283.185 163.551 283.22 163.694 283.22 163.694C283.22 163.694 283.22 163.557 283.151 163.281C283.082 163.006 283.059 162.594 282.985 162.066C282.847 160.983 282.641 159.412 282.377 157.389C281.861 153.319 281.173 147.432 280.4 140.147C278.898 125.57 277.213 105.388 276.387 83.033C275.969 71.8613 275.814 61.2112 275.814 51.5068C275.814 49.0822 275.814 46.7206 275.814 44.4278C275.814 42.135 275.871 39.9052 275.866 37.7614C275.676 33.4567 275.527 29.4442 275.413 25.7815C275.361 23.9529 275.315 22.2104 275.287 20.5596C275.258 18.9088 275.373 17.3439 275.057 15.9281C274.781 14.6092 274.33 13.3331 273.716 12.1335C273.207 11.1209 272.615 10.1527 271.945 9.23882C271.034 7.95984 269.975 6.79209 268.792 5.75947C268.61 5.59923 268.419 5.44993 268.219 5.31238C268.087 5.20397 267.949 5.10256 267.806 5.00858C267.571 4.86528 267.462 4.7793 267.462 4.7793Z" fill="#263238"/>
<path d="M262.419 121.248C262.419 121.248 261.616 184.375 256.572 193.586L167.634 192.44L169.445 184.857L262.447 70.5254L262.419 121.248Z" fill="#E0E0E0"/>
<path d="M262.418 33.4619C262.418 33.4619 260.824 173.369 251.848 185.607H165.18C165.18 185.607 185.121 80.6251 179.189 33.502L262.418 33.4619Z" fill="#EBEEF1"/>
<path d="M263.169 33.4619C263.169 33.4619 261.575 173.369 252.599 185.607H165.18C165.18 185.607 179.08 82.2128 179.08 35.749" fill="#FAFAFA"/>
<path d="M179.081 35.7496V36.489C179.081 36.982 179.081 37.7157 179.081 38.6729C179.081 39.6302 179.081 40.8282 179.029 42.2382C178.977 43.6483 179 45.282 178.909 47.1219C178.662 54.4876 178.077 65.195 177.04 78.5793C174.902 105.342 170.958 142.778 165.347 185.631L165.203 185.465H252.6L252.485 185.522C253.187 184.372 253.72 183.127 254.067 181.825C254.434 180.524 254.761 179.217 255.024 177.898C255.597 175.267 255.993 172.631 256.366 170.017C257.099 164.783 257.632 159.619 258.085 154.54C258.997 144.412 259.616 134.696 260.132 125.49C261.135 107.073 261.708 90.7026 262.126 77.0604C262.545 63.4181 262.774 52.5215 262.929 45.024C262.998 41.281 263.055 38.3863 263.095 36.426C263.095 35.4458 263.129 34.7064 263.135 34.2019C263.141 33.6975 263.135 33.4453 263.135 33.4453C263.135 33.4453 263.135 33.6975 263.135 34.2019C263.135 34.7064 263.135 35.4458 263.135 36.426C263.106 38.3863 263.066 41.281 263.02 45.024C262.894 52.5215 262.688 63.4296 262.304 77.0661C261.92 90.7026 261.364 107.085 260.372 125.502C259.868 134.713 259.255 144.417 258.349 154.563C257.885 159.63 257.357 164.795 256.629 170.04C256.257 172.659 255.844 175.302 255.294 177.938C255.024 179.262 254.72 180.581 254.325 181.888C253.973 183.224 253.427 184.5 252.703 185.677L252.663 185.74H165.014V185.573C170.637 142.744 174.621 105.325 176.805 78.5449C177.871 65.1664 178.484 54.4704 178.765 47.1047C178.863 45.2648 178.88 43.6311 178.909 42.2211C178.937 40.811 178.96 39.6187 178.983 38.6557C179.006 37.6927 179.018 36.9361 179.029 36.4718C179.04 36.0075 179.081 35.7496 179.081 35.7496Z" fill="#263238"/>
<path d="M262.435 33.2845C262.435 33.2845 262.24 23.54 252.691 23.54C243.141 23.54 186.715 23.54 186.715 23.54C186.715 23.54 179.189 25.6265 179.189 33.9781L238.131 38.5064L262.435 33.2845Z" fill="#FAFAFA"/>
<path d="M196.958 0.130028H196.798C196.695 0.130028 196.534 0.130028 196.328 0.130028C195.721 0.136489 195.116 0.188222 194.517 0.284793C192.263 0.635897 190.131 1.542 188.315 2.92153C185.573 5.08867 183.606 8.08485 182.709 11.4623C182.221 13.5138 182.31 15.6603 182.967 17.6643C183.303 18.7412 183.785 19.7672 184.4 20.7138C185.018 21.712 185.763 22.6254 186.618 23.4307L186.526 23.3964H203.373L238.693 23.511L249.401 23.5798L252.307 23.6142H253.064H253.322C253.322 23.6142 253.236 23.6142 253.064 23.6142H252.307H249.401H238.693H203.373L186.526 23.574H186.469L186.434 23.5397C185.555 22.7139 184.785 21.7797 184.142 20.7596C183.525 19.7877 183.037 18.7394 182.691 17.6414C182.031 15.5902 181.949 13.3963 182.456 11.3018C183.378 7.88735 185.391 4.86797 188.188 2.70371C189.233 1.90583 190.392 1.27184 191.628 0.823604C192.552 0.476265 193.514 0.237736 194.494 0.112833C195.097 0.0236998 195.707 -0.012741 196.316 0.00392366C196.533 0.0287348 196.748 0.0709044 196.958 0.130028Z" fill="#263238"/>
<path d="M262.447 89.7969C262.447 89.7969 262.447 89.9688 262.447 90.2956C262.447 90.6223 262.447 91.121 262.447 91.763V97.3861C262.447 102.27 262.402 109.343 262.31 118.079C262.218 126.814 262.075 137.218 261.691 148.762C261.496 154.534 261.221 160.599 260.636 166.858C260.051 173.118 259.243 179.583 258.12 186.158C257.678 188.732 257.208 191.265 256.692 193.638L256.664 193.753H256.572C231.649 193.696 209.415 193.289 193.411 193.014L174.524 192.635L169.411 192.515L168.087 192.475H169.416L174.524 192.544L193.439 192.83C209.443 193.048 231.678 193.403 256.595 193.472L256.452 193.587C256.968 191.231 257.438 188.692 257.879 186.135C258.997 179.572 259.805 173.112 260.395 166.858C260.986 160.605 261.267 154.552 261.467 148.779C261.868 137.241 262.012 126.837 262.149 118.102C262.287 109.366 262.327 102.31 262.384 97.4147C262.384 94.9786 262.424 93.0813 262.436 91.7916C262.436 91.1496 262.436 90.6452 262.436 90.3242C262.436 90.0032 262.447 89.7969 262.447 89.7969Z" fill="#263238"/>
<path d="M256.641 39.6071C253.918 39.8059 251.184 39.8059 248.461 39.6071C251.184 39.4083 253.918 39.4083 256.641 39.6071Z" fill="#263238"/>
<path d="M256.641 37.4684C253.918 37.6672 251.184 37.6672 248.461 37.4684C251.184 37.2696 253.918 37.2696 256.641 37.4684Z" fill="#263238"/>
<path d="M256.641 35.3415C253.918 35.5402 251.184 35.5402 248.461 35.3415C251.184 35.1427 253.918 35.1427 256.641 35.3415Z" fill="#263238"/>
<path d="M188.63 40.9883H188.808H189.295L191.1 40.9424L191.049 40.994C191.049 40.5928 191.049 40.1572 191.049 39.6871C191.049 39.4406 191.049 39.2114 191.049 38.9305C191.074 38.7819 191.147 38.6456 191.257 38.5422C191.366 38.4387 191.507 38.3738 191.656 38.3573C191.949 38.3573 192.201 38.3573 192.516 38.3573C192.678 38.3892 192.824 38.4765 192.928 38.604C193.033 38.7316 193.09 38.8916 193.089 39.0566C193.089 39.6699 193.089 40.3062 193.089 40.9654L193.003 40.8851H195.296L195.21 40.9711C195.21 40.054 195.21 39.1082 195.21 38.1051C195.21 37.8643 195.21 37.6236 195.21 37.3828C195.2 37.2749 195.166 37.1706 195.11 37.0774C195.055 36.9842 194.979 36.9045 194.889 36.844L193.892 35.8639L192.946 34.9009L192.476 34.4423C192.316 34.2875 192.189 34.1271 192.006 34.0927C191.917 34.068 191.824 34.0639 191.734 34.0808C191.644 34.0977 191.558 34.1351 191.484 34.1901C191.347 34.3047 191.198 34.471 191.06 34.6085L190.241 35.434C189.73 35.967 189.192 36.4543 188.802 36.9128C188.686 37.1817 188.647 37.4771 188.687 37.7669V38.5694C188.687 39.0623 188.687 39.4922 188.687 39.8591C188.687 40.2259 188.687 40.4667 188.687 40.6902C188.687 40.9138 188.687 40.9826 188.687 40.9883C188.679 40.8968 188.679 40.8047 188.687 40.7132C188.687 40.4953 188.687 40.2259 188.687 39.8992C188.687 39.5725 188.687 39.091 188.687 38.5923V37.7784C188.687 37.6293 188.687 37.4803 188.687 37.3255C188.687 37.1586 188.73 36.9945 188.813 36.8498C189.237 36.3339 189.736 35.8753 190.258 35.3308L191.066 34.4996C191.215 34.3506 191.335 34.213 191.507 34.0583C191.601 33.9891 191.708 33.9419 191.823 33.92C191.937 33.8982 192.054 33.9023 192.167 33.9322C192.391 34.004 192.59 34.1394 192.74 34.3219L193.204 34.7805L194.173 35.7263L195.17 36.7065C195.263 36.7901 195.347 36.8822 195.422 36.9816C195.496 37.0964 195.538 37.2291 195.543 37.3657C195.543 37.6064 195.543 37.8471 195.543 38.0936C195.543 39.0623 195.543 40.0139 195.543 40.9596V41.0456H195.457H193.164H192.946V40.9654C192.946 40.3005 192.946 39.6642 192.946 39.0509C192.949 38.916 192.903 38.7845 192.818 38.6797C192.733 38.5748 192.614 38.5033 192.482 38.4777C192.224 38.4777 191.909 38.4777 191.656 38.4777C191.539 38.4927 191.429 38.5438 191.342 38.6239C191.255 38.7039 191.194 38.809 191.169 38.9248C191.169 39.154 191.169 39.4177 191.169 39.6527V41.0112H191.118H189.283H188.802L188.63 40.9883Z" fill="#263238"/>
<path d="M213.495 37.2397H212.383V36.4258H215.633V37.2397H214.521V40.0484H213.495V37.2397Z" fill="#38BEC9"/>
<path d="M218.264 39.3549H216.728L216.447 40.0542H215.398L217.021 36.4258H218.029L219.634 40.0484H218.568L218.264 39.3549ZM217.961 38.5982L217.496 37.4518L217.032 38.5982H217.961Z" fill="#38BEC9"/>
<path d="M219.652 39.7272L219.99 38.9706C220.347 39.1966 220.76 39.3196 221.182 39.3259C221.606 39.3259 221.756 39.2056 221.756 39.0279C221.756 38.4547 219.698 38.8731 219.698 37.5318C219.698 36.8841 220.225 36.3854 221.303 36.3854C221.76 36.3753 222.212 36.484 222.615 36.7007L222.3 37.4573C221.993 37.2851 221.649 37.1906 221.297 37.1822C220.867 37.1822 220.724 37.3255 220.724 37.5032C220.724 38.0764 222.776 37.6465 222.776 38.982C222.776 39.6125 222.248 40.1284 221.171 40.1284C220.637 40.1388 220.111 39.9998 219.652 39.7272Z" fill="#38BEC9"/>
<path d="M224.655 38.7358L224.271 39.1428V40.0484H223.257V36.4258H224.271V37.9333L225.676 36.4258H226.822L225.338 38.0308L226.897 40.0484H225.704L224.655 38.7358Z" fill="#38BEC9"/>
<path d="M226.817 39.7272L227.155 38.9705C227.514 39.1976 227.929 39.3207 228.353 39.3259C228.777 39.3259 228.926 39.2056 228.926 39.0279C228.926 38.4547 226.863 38.8731 226.863 37.5318C226.863 36.8841 227.39 36.3854 228.468 36.3854C228.927 36.3754 229.381 36.484 229.786 36.7007L229.471 37.4573C229.162 37.285 228.816 37.1906 228.462 37.1822C228.032 37.1822 227.889 37.3255 227.889 37.5031C227.889 38.0763 229.947 37.6464 229.947 38.982C229.947 39.6125 229.419 40.1284 228.342 40.1284C227.806 40.138 227.278 39.9991 226.817 39.7272Z" fill="#38BEC9"/>
<path d="M261.26 49.0475C261.26 49.1277 242.757 49.1965 219.944 49.1965C197.13 49.1965 178.622 49.1277 178.622 49.0475C178.622 48.9672 197.119 48.8984 219.944 48.8984C242.769 48.8984 261.26 48.9672 261.26 49.0475Z" fill="#E0E0E0"/>
<path d="M261.971 77.5924C261.971 77.6726 243.474 77.7414 220.655 77.7414C197.836 77.7414 179.338 77.6726 179.338 77.5924C179.338 77.5121 197.83 77.4434 220.655 77.4434C243.48 77.4434 261.971 77.5064 261.971 77.5924Z" fill="#E0E0E0"/>
<path d="M261.054 104.975C261.054 105.055 241.777 105.124 218.006 105.124C194.236 105.124 174.953 105.055 174.953 104.975C174.953 104.895 194.224 104.826 218.006 104.826C241.789 104.826 261.054 104.889 261.054 104.975Z" fill="#E0E0E0"/>
<path d="M259.896 131.669C259.896 131.755 240.121 131.818 215.76 131.818C191.399 131.818 171.623 131.755 171.623 131.669C171.623 131.583 191.387 131.52 215.76 131.52C240.132 131.52 259.896 131.588 259.896 131.669Z" fill="#E0E0E0"/>
<path d="M257.145 161.699C257.145 161.785 237.295 161.848 212.819 161.848C188.343 161.848 168.493 161.785 168.493 161.699C168.493 161.613 188.337 161.55 212.819 161.55C237.301 161.55 257.145 161.619 257.145 161.699Z" fill="#E0E0E0"/>
<path d="M195.554 68.7943C195.547 68.7314 195.547 68.668 195.554 68.6051C195.554 68.4618 195.554 68.2898 195.554 68.0835C195.554 67.5963 195.554 66.9371 195.52 66.1289C195.52 64.4093 195.485 62.0649 195.457 59.2504L195.588 59.3765H186.033L186.182 59.2275V61.7897C186.182 62.6266 186.182 63.452 186.182 64.2545C186.182 65.8595 186.182 67.3727 186.182 68.7599L186.05 68.6338L192.929 68.6968L194.883 68.7312H195.405H195.6C195.379 68.7581 195.157 68.7696 194.935 68.7656L193.009 68.7943L186.045 68.863H185.918V68.7312C185.918 67.3441 185.918 65.8308 185.918 64.2258C185.918 63.4233 185.918 62.5979 185.918 61.7611V59.1988L186.067 59.0498H195.623H195.749V59.1816C195.749 62.0477 195.697 64.4322 195.686 66.1461C195.686 66.9485 195.657 67.5963 195.651 68.072C195.646 68.5478 195.56 68.8057 195.554 68.7943Z" fill="#263238"/>
<path d="M250.518 63.3717C250.518 63.4519 239.628 63.5207 226.163 63.5207C212.698 63.5207 201.808 63.4519 201.808 63.3717C201.808 63.2914 212.698 63.2227 226.163 63.2227C239.628 63.2227 250.518 63.2857 250.518 63.3717Z" fill="#263238"/>
<path d="M226.937 67.1549C226.937 67.2409 221.314 67.3097 214.372 67.3097C207.431 67.3097 201.808 67.2409 201.808 67.1549C201.808 67.0689 207.431 67.0059 214.372 67.0059C221.314 67.0059 226.937 67.0746 226.937 67.1549Z" fill="#263238"/>
<path d="M195.812 54.1953C196.207 54.2985 195.456 58.4657 193.777 63.3666C193.565 63.9799 193.353 64.5761 193.141 65.1493L192.82 65.9919L192.659 66.3988L192.613 66.502C192.589 66.5671 192.561 66.6304 192.527 66.6912C192.457 66.8098 192.372 66.9195 192.275 67.0179C192.085 67.1975 191.849 67.321 191.593 67.3747C191.337 67.4283 191.071 67.4099 190.825 67.3217C190.599 67.2311 190.402 67.0828 190.252 66.8918L190.154 66.7485L190.103 66.6568L190.005 66.4848C189.764 66.0377 189.558 65.6078 189.38 65.218C188.675 63.6475 188.4 62.6157 188.578 62.5297C188.756 62.4437 189.38 63.3035 190.297 64.7079L191.054 65.8543L191.163 66.0033L191.209 66.0721H191.255C191.283 66.0721 191.324 66.0721 191.318 66.032L191.352 65.9345L191.49 65.5218C191.581 65.241 191.673 64.9486 191.771 64.6735L192.344 62.8966C194.012 58.0415 195.399 54.0922 195.812 54.1953Z" fill="#38BEC9"/>
<path d="M194.505 97.5741C194.501 97.5111 194.501 97.4479 194.505 97.385C194.505 97.2417 194.505 97.0697 194.505 96.8633C194.505 96.3742 194.494 95.7208 194.471 94.903C194.471 93.1834 194.431 90.8447 194.408 88.0246L194.534 88.1507H184.985L185.134 88.0016V90.5696C185.134 91.4122 185.134 92.2376 185.134 93.0401C185.134 94.6393 185.134 96.1526 185.134 97.5455L185.007 97.4194L191.886 97.4824L193.841 97.5168H194.362C194.425 97.5089 194.488 97.5089 194.551 97.5168C194.332 97.5397 194.112 97.5493 193.892 97.5455L191.966 97.5799L185.002 97.6486H184.87V97.5168C184.87 96.1239 184.87 94.6107 184.87 93.0114C184.87 92.2089 184.87 91.3835 184.87 90.5409V87.973C184.732 88.1048 185.048 87.7895 185.019 87.8239H194.568H194.666V87.9558C194.637 90.8218 194.614 93.2006 194.597 94.9202C194.597 95.7227 194.586 96.3647 194.563 96.8462C194.565 97.09 194.546 97.3336 194.505 97.5741Z" fill="#263238"/>
<path d="M249.475 92.1461C249.475 92.2321 238.584 92.3009 225.12 92.3009C211.655 92.3009 200.759 92.2321 200.759 92.1461C200.759 92.0601 211.65 91.9971 225.12 91.9971C238.59 91.9971 249.475 92.0888 249.475 92.1461Z" fill="#263238"/>
<path d="M193.026 124.355C193.026 124.355 193.026 124.286 193.026 124.166C193.026 124.045 193.026 123.85 193.026 123.644C193.026 123.157 193.026 122.498 192.992 121.689C192.992 119.97 192.958 117.625 192.929 114.811L193.055 114.937H183.505L183.654 114.788V117.345C183.654 118.187 183.654 119.013 183.654 119.815C183.654 121.42 183.654 122.933 183.654 124.32L183.528 124.194L190.407 124.257L192.361 124.292H192.883H193.072C192.854 124.319 192.633 124.331 192.413 124.326L190.487 124.355L183.523 124.424H183.396V124.292C183.396 122.905 183.396 121.391 183.396 119.786C183.396 118.984 183.396 118.158 183.396 117.316V114.759L183.546 114.61H193.095H193.227V114.742C193.198 117.608 193.175 119.987 193.158 121.707C193.158 122.509 193.158 123.157 193.129 123.633C193.115 123.876 193.08 124.117 193.026 124.355Z" fill="#263238"/>
<path d="M247.974 118.932C247.974 119.012 237.083 119.081 223.618 119.081C210.154 119.081 199.263 119.012 199.263 118.932C199.263 118.852 210.154 118.783 223.618 118.783C237.083 118.783 247.974 118.846 247.974 118.932Z" fill="#263238"/>
<path d="M190.717 152.699C190.71 152.636 190.71 152.573 190.717 152.51C190.717 152.367 190.717 152.195 190.717 151.988C190.717 151.501 190.717 150.842 190.682 150.034C190.682 148.314 190.642 145.97 190.613 143.155L190.745 143.282H181.196C181.161 143.316 181.477 143.001 181.339 143.132V148.159C181.339 149.764 181.339 151.278 181.339 152.665L181.207 152.539L188.086 152.602L190.04 152.636H190.568H190.757C190.538 152.664 190.318 152.675 190.098 152.671L188.172 152.699L181.201 152.768H181.075V152.636C181.075 151.249 181.075 149.736 181.075 148.131V145.666C181.075 145.242 181.075 144.818 181.075 144.388V143.104C180.944 143.236 181.259 142.92 181.23 142.955H190.78H190.912V143.087C190.912 145.953 190.866 148.337 190.848 150.051C190.848 150.854 190.848 151.501 190.814 151.977C190.798 152.22 190.765 152.461 190.717 152.699Z" fill="#263238"/>
<path d="M245.681 147.277C245.681 147.357 234.791 147.426 221.326 147.426C207.861 147.426 196.965 147.357 196.965 147.277C196.965 147.197 207.856 147.128 221.326 147.128C234.796 147.128 245.681 147.191 245.681 147.277Z" fill="#263238"/>
<path d="M189.341 179.588C189.341 179.588 189.341 179.52 189.341 179.399C189.341 179.279 189.341 179.084 189.341 178.872C189.341 178.39 189.341 177.725 189.306 176.917C189.306 175.198 189.272 172.859 189.243 170.039L189.369 170.171H179.82L179.969 170.022V172.59C179.969 173.432 179.969 174.258 179.969 175.06C179.969 176.659 179.969 178.173 179.969 179.565L179.837 179.434L186.715 179.502L188.67 179.537H189.192H189.381C189.381 179.537 189.163 179.537 188.722 179.565L186.796 179.6L179.831 179.663H179.705V179.537C179.705 178.144 179.705 176.631 179.705 175.031C179.705 174.229 179.705 173.404 179.705 172.561V170.045L179.854 169.896H189.404H189.536V170.045C189.507 172.911 189.484 175.295 189.472 177.009C189.472 177.819 189.461 178.461 189.438 178.935C189.421 179.155 189.388 179.373 189.341 179.588Z" fill="#263238"/>
<path d="M246.008 173.684C246.008 173.764 235.117 173.833 221.652 173.833C208.188 173.833 197.291 173.764 197.291 173.684C197.291 173.604 208.182 173.535 221.652 173.535C235.122 173.535 246.008 173.604 246.008 173.684Z" fill="#263238"/>
<path d="M237.163 122.606C237.163 122.692 228.594 122.755 218.018 122.755C207.442 122.755 198.873 122.692 198.873 122.606C198.873 122.52 207.471 122.457 218.018 122.457C228.565 122.457 237.163 122.526 237.163 122.606Z" fill="#263238"/>
<path d="M212.79 151.897C212.79 151.983 209.323 152.046 205.041 152.046C200.759 152.046 197.291 151.983 197.291 151.897C197.291 151.811 200.759 151.748 205.041 151.748C209.323 151.748 212.79 151.817 212.79 151.897Z" fill="#263238"/>
<path d="M251.568 0.238877C251.568 0.319125 239.37 0.38791 224.329 0.38791C209.288 0.38791 197.085 0.319125 197.085 0.238877C197.085 0.158628 209.283 0.0898438 224.329 0.0898438C239.376 0.0898438 251.568 0.158628 251.568 0.238877Z" fill="#263238"/>
<path d="M373.603 246.653C373.603 246.733 294.5 246.802 196.964 246.802C99.428 246.802 20.3145 246.733 20.3145 246.653C20.3145 246.573 99.4165 246.504 196.964 246.504C294.512 246.504 373.603 246.573 373.603 246.653Z" fill="#263238"/>
<path d="M114.75 94.0718C114.75 94.0718 129.43 114.707 132.181 115.601C141.599 118.731 152.014 97.0582 152.014 97.0582L146.414 98.2906L136.136 104.773L124.919 89.4346L114.75 95.287" fill="#A57E6D"/>
<path d="M133.975 111.038C133.857 110.718 133.81 110.376 133.838 110.035C133.831 108.381 134.421 106.779 135.5 105.524C135.705 105.252 135.962 105.024 136.256 104.854C135.553 105.724 134.974 106.689 134.537 107.72C134.194 108.794 134.004 109.911 133.975 111.038Z" fill="#755246"/>
<path d="M136.027 232.094L138.125 241.959L145.032 242.578L147.944 239.305L145.278 227.525L136.027 232.094Z" fill="#A57E6D"/>
<path d="M93.9769 230.345C93.8795 230.666 93.9769 242.956 93.9769 242.956L97.8518 245.249L102.913 242.211L103.985 230.328L93.9769 230.345Z" fill="#A57E6D"/>
<path d="M90.6868 124.05C90.6868 124.05 85.7171 133.451 83.5848 141.137C81.4525 148.824 79.4176 153.215 81.6129 160.116C83.8083 167.017 86.7374 193.173 88.1818 200.074C89.3684 205.76 91.9994 228.023 93.9139 235.08H104.673L105.768 156.035C105.768 156.035 124.896 200.424 127.091 205.755C129.286 211.085 135.718 233.841 135.718 233.841L146.855 232.122C146.855 232.122 140.108 192.76 138.068 183.348C136.027 173.936 130.226 148.383 127.876 140.358C125.526 132.333 125.767 126.813 122.431 122.921L90.6868 124.05Z" fill="#263238"/>
<path d="M107.218 125.598C107.218 125.598 107.275 125.512 107.43 125.449C107.662 125.368 107.914 125.368 108.146 125.449C108.325 125.509 108.485 125.616 108.609 125.758C108.733 125.9 108.816 126.072 108.851 126.258C108.901 126.487 108.878 126.727 108.787 126.943C108.695 127.16 108.54 127.343 108.341 127.468C108.142 127.593 107.909 127.654 107.675 127.642C107.44 127.631 107.214 127.548 107.029 127.404C106.878 127.291 106.759 127.141 106.686 126.968C106.612 126.794 106.586 126.605 106.61 126.418C106.634 126.174 106.744 125.947 106.92 125.776C107.04 125.656 107.132 125.633 107.143 125.644C106.965 125.871 106.853 126.143 106.822 126.429C106.814 126.576 106.843 126.721 106.908 126.853C106.972 126.984 107.069 127.097 107.189 127.18C107.331 127.286 107.501 127.347 107.678 127.354C107.854 127.362 108.029 127.316 108.179 127.222C108.329 127.129 108.447 126.992 108.518 126.83C108.589 126.668 108.609 126.489 108.576 126.315C108.555 126.17 108.497 126.034 108.408 125.918C108.318 125.803 108.201 125.712 108.066 125.656C107.796 125.552 107.5 125.532 107.218 125.598Z" fill="#455A64"/>
<path d="M110.336 146.022C110.253 146.056 110.166 146.081 110.078 146.096C109.9 146.137 109.642 146.182 109.31 146.222C108.357 146.337 107.392 146.322 106.444 146.177C106.125 146.131 105.809 146.066 105.498 145.982C105.32 145.926 105.157 145.83 105.022 145.701C104.885 145.557 104.795 145.375 104.764 145.179C104.672 144.44 104.678 143.706 104.632 142.886C104.563 141.293 104.495 139.545 104.414 137.728C104.271 134.053 104.157 130.729 104.088 128.321C104.088 127.175 104.036 126.189 104.019 125.455V124.682C104.004 124.592 104.004 124.501 104.019 124.412C104.046 124.499 104.059 124.59 104.059 124.682C104.059 124.894 104.099 125.146 104.122 125.455C104.162 126.172 104.214 127.135 104.283 128.321C104.403 130.729 104.552 134.053 104.695 137.722C104.764 139.556 104.833 141.304 104.89 142.881C104.93 143.666 104.919 144.457 104.988 145.122C105.011 145.272 105.078 145.411 105.18 145.523C105.282 145.635 105.414 145.715 105.561 145.752C105.858 145.84 106.161 145.909 106.467 145.959C107.398 146.117 108.345 146.163 109.287 146.096C109.963 146.062 110.33 145.97 110.336 146.022Z" fill="#455A64"/>
<path d="M125.526 133.016C125.397 133.148 125.248 133.258 125.085 133.343C124.649 133.594 124.183 133.786 123.698 133.916C122.891 134.139 122.048 134.193 121.22 134.073C120.392 133.954 119.598 133.664 118.887 133.223C118.177 132.781 117.566 132.197 117.092 131.507C116.619 130.818 116.294 130.037 116.137 129.216C116.038 128.722 116.005 128.217 116.04 127.714C116.039 127.519 116.072 127.325 116.137 127.141C116.144 127.812 116.213 128.482 116.343 129.141C116.518 129.926 116.847 130.667 117.312 131.323C117.778 131.978 118.369 132.534 119.052 132.957C119.735 133.381 120.496 133.663 121.29 133.789C122.084 133.914 122.894 133.879 123.675 133.687C124.311 133.521 124.931 133.296 125.526 133.016Z" fill="#455A64"/>
<path d="M111.643 128.819C111.397 127.228 111.345 125.613 111.488 124.01C111.742 125.6 111.794 127.216 111.643 128.819Z" fill="#455A64"/>
<path d="M113.506 128.476C113.437 127.686 113.437 126.892 113.506 126.103C113.476 125.311 113.522 124.518 113.644 123.735C113.823 124.515 113.877 125.318 113.804 126.114C113.832 126.912 113.731 127.71 113.506 128.476Z" fill="#455A64"/>
<path d="M123.887 127.226C123.887 127.226 123.795 127.266 123.6 127.306L122.769 127.478C122.047 127.627 120.992 127.805 119.685 127.994C112.865 128.97 105.951 129.11 99.096 128.412C97.7833 128.275 96.7229 128.137 95.9949 128.023L95.1581 127.885C95.0578 127.876 94.9593 127.853 94.8657 127.816C94.9646 127.802 95.0649 127.802 95.1638 127.816L96.0121 127.897C96.7401 127.977 97.8063 128.08 99.1189 128.189C102.537 128.473 105.967 128.584 109.396 128.521C112.827 128.447 116.252 128.196 119.657 127.77C120.964 127.61 122.024 127.467 122.752 127.352L123.595 127.237C123.692 127.225 123.789 127.221 123.887 127.226Z" fill="#455A64"/>
<path d="M95.8056 128.773C95.6154 129.254 95.3353 129.694 94.9802 130.069C94.1752 131.039 93.152 131.804 91.9942 132.302C90.8365 132.8 89.5772 133.017 88.3195 132.935C87.8024 132.93 87.2908 132.827 86.812 132.631C86.812 132.58 87.3852 132.711 88.331 132.723C89.5498 132.745 90.7592 132.506 91.8782 132.023C92.9973 131.539 94.0001 130.822 94.8197 129.92C95.4617 129.255 95.7597 128.773 95.8056 128.773Z" fill="#455A64"/>
<path d="M109.941 142.433C109.855 142.433 109.757 139.63 109.723 136.179C109.688 132.729 109.723 129.92 109.803 129.92C109.883 129.92 109.981 132.717 110.021 136.174C110.061 139.63 110.021 142.433 109.941 142.433Z" fill="#455A64"/>
<path d="M105.848 155.715C105.722 154.492 105.695 153.261 105.768 152.035C105.744 150.806 105.817 149.577 105.985 148.36C106.111 149.583 106.138 150.813 106.066 152.04C106.093 153.269 106.02 154.498 105.848 155.715Z" fill="#455A64"/>
<path d="M123.589 148.406C123 148.559 122.4 148.668 121.795 148.733C120.683 148.911 119.147 149.157 117.462 149.467C115.776 149.776 114.252 150.103 113.151 150.344C112.562 150.499 111.962 150.612 111.357 150.682C111.91 150.436 112.486 150.244 113.077 150.109C114.171 149.816 115.69 149.461 117.381 149.146C119.072 148.83 120.62 148.618 121.743 148.498C122.354 148.408 122.972 148.377 123.589 148.406Z" fill="#455A64"/>
<path d="M125.251 151.043C124.553 151.107 123.853 151.13 123.153 151.112C121.857 151.112 120.069 151.175 118.097 151.278C116.125 151.381 114.343 151.519 113.047 151.628C112.353 151.718 111.655 151.765 110.955 151.771C111.138 151.697 111.331 151.654 111.528 151.645C111.884 151.576 112.405 151.501 113.047 151.421C114.337 151.255 116.125 151.077 118.103 150.974C120.08 150.871 121.88 150.871 123.176 150.905C123.829 150.905 124.322 150.945 124.712 150.968C124.894 150.968 125.076 150.993 125.251 151.043Z" fill="#455A64"/>
<path d="M101.635 149.323C101.129 149.167 100.635 148.975 100.156 148.75C98.9815 148.264 97.7818 147.841 96.5622 147.483C95.3421 147.134 94.1041 146.851 92.8535 146.635C92.3275 146.575 91.8064 146.477 91.2944 146.342C91.825 146.302 92.3584 146.329 92.8822 146.423C95.433 146.739 97.9174 147.458 100.242 148.555C100.736 148.754 101.204 149.012 101.635 149.323Z" fill="#455A64"/>
<path d="M149.32 238.21V238.978C149.32 238.978 162.544 243.856 162.756 246.332L136.795 246.946L136.944 238.296C140.871 239.975 144.912 240.102 149.32 238.21Z" fill="#38BEC9"/>
<g opacity="0.6">
<path d="M139.639 240.995C139.391 241.077 139.182 241.247 139.052 241.474C138.922 241.7 138.88 241.966 138.934 242.222C139.006 242.472 139.172 242.686 139.397 242.818C139.622 242.95 139.889 242.991 140.143 242.932C140.406 242.846 140.628 242.665 140.764 242.425C140.901 242.184 140.943 241.901 140.883 241.631C140.779 241.378 140.582 241.174 140.332 241.062C140.083 240.95 139.799 240.938 139.541 241.029" fill="#EBEEF1"/>
</g>
<g opacity="0.6">
<path d="M136.818 246.945L136.852 244.864L161.718 245.036C161.718 245.036 162.864 245.512 162.778 246.332L136.818 246.945Z" fill="#EBEEF1"/>
</g>
<path d="M149.435 239.053C149.435 239.179 148.804 239.248 148.191 239.672C147.577 240.096 147.256 240.635 147.136 240.589C147.016 240.543 147.193 239.804 147.944 239.305C148.695 238.806 149.463 238.933 149.435 239.053Z" fill="#263238"/>
<path d="M152.185 240.112C152.22 240.233 151.675 240.462 151.257 241.007C150.838 241.551 150.724 242.124 150.598 242.124C150.472 242.124 150.374 241.408 150.907 240.737C151.44 240.066 152.18 239.975 152.185 240.112Z" fill="#263238"/>
<path d="M153.808 243.334C153.693 243.362 153.504 242.732 153.808 242.033C154.112 241.333 154.702 241.041 154.759 241.144C154.817 241.247 154.456 241.631 154.186 242.21C153.917 242.789 153.934 243.317 153.808 243.334Z" fill="#263238"/>
<path d="M103.274 241.156C103.274 241.156 96.3957 246.046 93.0425 241.81L92.1712 243.868L88.2505 258.49C88.1179 258.948 88.1571 259.439 88.3608 259.871C88.5645 260.303 88.9186 260.645 89.3568 260.834C89.693 260.968 90.0605 261.003 90.416 260.935C90.7714 260.867 91.1 260.699 91.363 260.45C94.1946 257.756 104.581 247.777 104.478 246.424L104.438 242.836C104.435 242.474 104.325 242.12 104.121 241.821C103.916 241.522 103.628 241.291 103.291 241.156H103.274Z" fill="#38BEC9"/>
<g opacity="0.6">
<path d="M89.6948 260.932L104.483 245.175V245.96C104.558 246.814 104.191 247.147 103.784 247.68C102.586 249.296 99.2788 252.902 91.4202 260.439C91.1965 260.657 90.922 260.815 90.6216 260.899C90.3212 260.983 90.0046 260.99 89.7006 260.921L89.6948 260.932Z" fill="#EBEEF1"/>
</g>
<g opacity="0.6">
<path d="M102.317 242.841C102.088 243.007 101.929 243.252 101.87 243.528C101.811 243.804 101.856 244.092 101.996 244.337C102.155 244.571 102.397 244.735 102.672 244.797C102.948 244.859 103.237 244.813 103.48 244.67C103.723 244.493 103.891 244.233 103.951 243.939C104.012 243.646 103.96 243.34 103.807 243.082C103.617 242.856 103.347 242.712 103.054 242.68C102.76 242.648 102.465 242.73 102.231 242.91" fill="#EBEEF1"/>
</g>
<path d="M93.9602 252.866C93.8513 252.912 93.4386 251.944 92.338 251.416C91.2375 250.889 90.2344 251.118 90.2115 251.004C90.1885 250.889 90.4293 250.814 90.8649 250.751C91.4348 250.692 92.0097 250.798 92.5215 251.055C93.0399 251.304 93.4713 251.704 93.7596 252.202C93.9774 252.586 94.0061 252.849 93.9602 252.866Z" fill="#263238"/>
<path d="M92.6356 255.337C92.5439 255.417 91.9535 254.816 90.9962 254.535C90.039 254.254 89.2193 254.409 89.1906 254.294C89.162 254.179 90.0332 253.812 91.1166 254.145C92.1999 254.477 92.7273 255.286 92.6356 255.337Z" fill="#263238"/>
<path d="M96.4243 249.719C96.3383 249.805 95.4327 248.871 93.9825 248.309C92.5323 247.747 91.2426 247.782 91.2368 247.661C91.2311 247.541 92.5839 247.306 94.1315 247.931C95.6792 248.556 96.516 249.645 96.4243 249.719Z" fill="#263238"/>
<path d="M96.7513 245.243C96.7055 245.357 95.6794 244.927 94.3496 244.87C93.0198 244.813 91.9651 245.134 91.9249 245.019C91.8848 244.904 92.9395 244.389 94.3725 244.446C95.8055 244.503 96.8144 245.162 96.7513 245.243Z" fill="#263238"/>
<path d="M93.5926 244.83C93.5764 244.594 93.6116 244.357 93.6958 244.136C93.8746 243.51 94.1766 242.925 94.5843 242.417C94.8456 242.022 95.2308 241.726 95.6791 241.574C95.8319 241.537 95.9924 241.549 96.1382 241.608C96.2841 241.666 96.4081 241.769 96.493 241.901C96.6448 242.164 96.6938 242.475 96.6306 242.772C96.4745 243.376 96.1127 243.907 95.6073 244.273C95.102 244.64 94.4848 244.818 93.862 244.778C93.2485 244.726 92.6644 244.493 92.1837 244.108C91.703 243.724 91.3475 243.205 91.1622 242.617C91.1146 242.47 91.1001 242.314 91.12 242.16C91.1398 242.007 91.1934 241.859 91.2769 241.729C91.3732 241.604 91.5066 241.513 91.658 241.468C91.8095 241.424 91.971 241.429 92.1195 241.482C92.5466 241.666 92.9181 241.959 93.1971 242.331C93.62 242.816 93.952 243.373 94.1773 243.976C94.2788 244.189 94.3335 244.422 94.3378 244.658C93.9934 243.883 93.5377 243.163 92.985 242.52C92.7278 242.206 92.3971 241.96 92.022 241.803C91.9415 241.774 91.8538 241.771 91.7714 241.795C91.6891 241.819 91.6163 241.868 91.5635 241.935C91.5186 242.023 91.4919 242.119 91.485 242.218C91.4781 242.316 91.4911 242.415 91.5234 242.509C91.6983 243.01 92.014 243.451 92.4328 243.779C92.8516 244.106 93.3557 244.306 93.885 244.354C94.4122 244.392 94.9364 244.247 95.3688 243.943C95.8012 243.639 96.1154 243.195 96.258 242.686C96.3094 242.481 96.2871 242.264 96.195 242.073C96.1498 241.999 96.0821 241.941 96.0016 241.908C95.9211 241.875 95.8322 241.868 95.7479 241.889C95.368 242.016 95.0373 242.259 94.8021 242.583C94.2711 243.256 93.8618 244.016 93.5926 244.83Z" fill="#263238"/>
<path d="M116.9 75.5002C115.822 74.6404 114.561 74.0385 113.46 73.2361C112.36 72.4336 111.305 70.3185 111.047 68.96L102.203 69.7338C101.264 73.2271 100.877 76.8457 101.056 80.4584C101.131 81.9946 101.354 83.634 102.386 84.7746C103.532 86.03 105.315 86.3624 106.972 86.6318L115.042 87.9215C115.994 88.0706 117.02 88.2139 117.908 87.7954C118.732 87.3207 119.346 86.5532 119.628 85.6459C120.274 83.8798 120.359 81.9571 119.87 80.141C119.382 78.3249 118.344 76.7041 116.9 75.5002Z" fill="#263238"/>
<path d="M84.21 83.4162C83.7399 80.7966 84.2444 78.1312 84.4851 75.5117C84.8405 71.6942 84.6341 67.7505 84.4851 63.8413C84.3361 59.932 84.187 55.9827 84.6972 52.2167C85.2073 48.4508 86.4168 44.8625 88.4631 42.8391C90.5095 40.8157 93.4557 40.6953 95.4963 43.183L94.6939 53.1109C95.8754 67.1954 96.021 81.3476 95.1295 95.4534C92.433 95.9823 89.662 96.0095 86.9556 95.5337C86.6274 95.5112 86.3125 95.395 86.0484 95.1989C85.7842 95.0028 85.5819 94.735 85.4653 94.4274C85.1328 93.4644 85.5914 92.4155 85.7691 91.4066C85.9321 90.0274 85.7852 88.6292 85.3392 87.3139C84.892 86.0363 84.515 84.7351 84.21 83.4162Z" fill="#263238"/>
<path d="M91.7186 44.0191C92.518 43.219 93.5024 42.6284 94.5846 42.2995C95.0137 42.1402 95.48 42.1104 95.9259 42.2136C96.1463 42.2728 96.3403 42.4045 96.4765 42.5876C96.6128 42.7707 96.6833 42.9943 96.6768 43.2224L94.0286 46.9711C93.7394 47.1824 93.3943 47.3038 93.0365 47.3201C92.6786 47.3364 92.3239 47.2469 92.0167 47.0629C91.7575 46.961 91.5242 46.8028 91.3338 46.5995C91.1434 46.3962 91.0008 46.1531 90.9161 45.8878C90.8868 45.5344 90.9446 45.1793 91.0845 44.8535C91.2244 44.5277 91.4422 44.2412 91.7186 44.0191Z" fill="#455A64"/>
<path d="M111.552 54.8595C111.328 52.2062 110.106 49.7365 108.133 47.9491C106.159 46.1617 103.581 45.1898 100.919 45.2297C99.5435 45.2471 98.1861 45.5421 96.9278 46.0971C95.6696 46.6521 94.5364 47.4555 93.5964 48.4593C92.6563 49.463 91.9288 50.6464 91.4574 51.9383C90.986 53.2302 90.7804 54.604 90.8531 55.9773L92.8135 78.9054C92.8503 79.3491 93.0361 79.7673 93.3408 80.0919C95.0298 81.8711 97.3493 82.9166 99.8008 83.0038C101.914 82.9441 103.951 82.2021 105.607 80.8887C105.879 80.6796 106.09 80.4025 106.22 80.0854C106.35 79.7683 106.394 79.4225 106.347 79.0831L105.63 73.1734C106.142 73.1068 106.649 73.0111 107.149 72.8868C108.445 72.3594 111.592 71.3735 111.735 66.1803C111.879 62.4062 111.818 58.627 111.552 54.8595Z" fill="#A57E6D"/>
<path d="M105.137 63.3825C105.603 63.1991 106.09 63.074 106.587 63.0099C106.817 62.9698 107.034 62.9068 107.063 62.752C107.061 62.514 106.987 62.2823 106.851 62.0871C106.593 61.554 106.318 60.9923 106.026 60.4076C104.879 58.0173 104.031 56.0398 104.128 55.9996C104.226 55.9595 105.235 57.8568 106.387 60.2471C106.662 60.8203 106.925 61.3935 107.183 61.9667C107.348 62.2297 107.415 62.5421 107.373 62.8494C107.345 62.9328 107.299 63.0088 107.237 63.0714C107.175 63.134 107.1 63.1816 107.017 63.2105C106.893 63.2546 106.764 63.2835 106.633 63.2965C106.14 63.3858 105.637 63.4147 105.137 63.3825Z" fill="#263238"/>
<path d="M109.831 58.1037C109.85 58.321 109.783 58.537 109.643 58.7045C109.504 58.8721 109.303 58.9775 109.086 58.9979C108.981 59.015 108.873 59.0111 108.769 58.9863C108.665 58.9615 108.567 58.9163 108.481 58.8534C108.394 58.7905 108.321 58.7111 108.266 58.6198C108.21 58.5285 108.174 58.4271 108.158 58.3215C108.14 58.104 108.208 57.8881 108.347 57.72C108.486 57.5519 108.686 57.4448 108.903 57.4216C109.008 57.4053 109.116 57.41 109.22 57.4355C109.324 57.461 109.422 57.5067 109.508 57.5701C109.595 57.6334 109.668 57.7132 109.723 57.8047C109.778 57.8963 109.815 57.9979 109.831 58.1037Z" fill="#263238"/>
<path d="M110.193 56.4579C110.113 56.6012 109.385 56.1311 108.473 56.2687C107.562 56.4063 107.006 57.0483 106.885 56.9279C106.765 56.8075 106.885 56.6241 107.138 56.3547C107.451 55.9787 107.892 55.7317 108.376 55.6611C108.863 55.5929 109.358 55.705 109.769 55.9764C110.101 56.1655 110.233 56.3891 110.193 56.4579Z" fill="#263238"/>
<path d="M101.325 58.8996C101.345 59.1169 101.277 59.3329 101.137 59.5004C100.998 59.668 100.797 59.7734 100.58 59.7938C100.474 59.8109 100.366 59.8067 100.262 59.7816C100.158 59.7564 100.059 59.7107 99.973 59.6473C99.8866 59.5838 99.8137 59.5037 99.7585 59.4118C99.7033 59.3198 99.667 59.2178 99.6516 59.1117C99.6325 58.8944 99.7001 58.6784 99.8397 58.5109C99.9794 58.3433 100.18 58.2379 100.397 58.2175C100.503 58.2012 100.611 58.2059 100.714 58.2314C100.818 58.2569 100.916 58.3026 101.003 58.366C101.089 58.4293 101.162 58.5091 101.217 58.6006C101.272 58.6922 101.309 58.7938 101.325 58.8996Z" fill="#263238"/>
<path d="M101.446 57.3357C101.337 57.4733 100.626 56.9058 99.6461 56.923C98.666 56.9402 97.9609 57.4962 97.852 57.3644C97.7431 57.2325 97.9036 57.0606 98.2074 56.7912C98.6116 56.4589 99.1172 56.2748 99.6404 56.2696C100.163 56.267 100.67 56.443 101.079 56.7683C101.389 57.0377 101.498 57.2784 101.446 57.3357Z" fill="#263238"/>
<path d="M105.63 73.1728C105.63 73.1728 102.076 73.746 97.4907 71.499C97.4907 71.499 99.3078 75.9127 105.831 74.8121L105.63 73.1728Z" fill="#755246"/>
<path d="M104.931 65.5544C104.738 65.355 104.499 65.2061 104.235 65.1211C103.971 65.0361 103.691 65.0176 103.418 65.0672C103.22 65.1006 103.031 65.173 102.862 65.2803C102.692 65.3876 102.546 65.5275 102.432 65.692C102.321 65.8478 102.262 66.0341 102.262 66.2251C102.262 66.416 102.321 66.6023 102.432 66.7581C102.594 66.9047 102.794 67.002 103.009 67.0385C103.225 67.0751 103.446 67.0494 103.647 66.9645C104.061 66.784 104.435 66.5229 104.747 66.1964C104.844 66.1183 104.926 66.0231 104.988 65.9155C105.021 65.8661 105.038 65.8083 105.038 65.7493C105.038 65.6902 105.021 65.6325 104.988 65.5831" fill="#755246"/>
<path d="M101.927 53.9813C101.858 54.2278 100.947 54.1991 99.8978 54.4227C98.8489 54.6462 98.0177 54.9959 97.8572 54.8067C97.7827 54.7093 97.9088 54.4685 98.2298 54.2335C98.6631 53.8967 99.1698 53.6669 99.7087 53.5629C100.247 53.4503 100.804 53.462 101.337 53.5973C101.738 53.6833 101.956 53.8609 101.927 53.9813Z" fill="#263238"/>
<path d="M109.964 54.5033C109.786 54.7154 109.035 54.5377 108.135 54.5663C107.235 54.595 106.496 54.7784 106.307 54.5663C106.226 54.4632 106.335 54.2568 106.656 54.0505C107.101 53.8028 107.603 53.6762 108.112 53.6836C108.626 53.6648 109.136 53.7814 109.591 54.0218C109.929 54.1938 110.044 54.4001 109.964 54.5033Z" fill="#263238"/>
<path d="M101.532 43.9738C101.214 43.6324 100.823 43.3674 100.388 43.1986C99.9534 43.0298 99.486 42.9617 99.0211 42.9993C94.9514 42.9993 90.8587 46.0201 89.1162 49.7001C87.3736 53.38 87.9698 58.3956 90.1537 61.8348L91.6841 61.8806C94.768 61.2387 98.7345 51.8152 102.397 46.4042C102.856 45.7163 102.042 44.6043 101.532 43.9738Z" fill="#263238"/>
<path d="M109.533 45.4759C107.59 43.8194 104.547 41.9049 101.285 43.7277C100.918 44.7709 102.128 45.8772 103.091 46.4848C104.501 47.379 105.699 47.9407 106.633 48.5942C108.525 49.9068 110.961 52.1767 111.54 55.0083C111.58 55.186 111.62 60.769 111.792 60.7117C111.964 60.6544 112.485 53.8333 112.537 52.234C112.64 48.8464 111.477 47.1268 109.533 45.4759Z" fill="#263238"/>
<path d="M92.4119 59.9207C92.3088 59.8863 88.3995 58.9634 88.7492 62.867C89.0988 66.7705 92.9336 65.6355 92.9278 65.5209C92.9221 65.4062 92.4119 59.9207 92.4119 59.9207Z" fill="#A57E6D"/>
<path d="M91.61 64.1448C91.61 64.1448 91.5469 64.1964 91.438 64.2594C91.3608 64.3017 91.2758 64.328 91.1882 64.3369C91.1006 64.3457 91.0121 64.3369 90.9279 64.311C90.663 64.173 90.4395 63.967 90.2803 63.7142C90.1212 63.4614 90.0321 63.1709 90.0222 62.8723C89.9838 62.5378 90.021 62.1989 90.1311 61.8807C90.1572 61.7542 90.2135 61.6359 90.2954 61.5361C90.3773 61.4362 90.4822 61.3578 90.6012 61.3074C90.6772 61.2808 90.7601 61.2817 90.8356 61.31C90.911 61.3383 90.9741 61.3922 91.0139 61.4622C91.0769 61.5654 91.0597 61.6456 91.0826 61.6514C91.1056 61.6571 91.1572 61.5769 91.1113 61.4221C91.0831 61.3261 91.0223 61.243 90.9393 61.1871C90.8827 61.1517 90.8196 61.1278 90.7536 61.117C90.6877 61.1062 90.6203 61.1086 90.5553 61.124C90.3979 61.1696 90.2548 61.2546 90.1395 61.371C90.0241 61.4873 89.9404 61.6312 89.8961 61.7889C89.7591 62.1406 89.71 62.5203 89.7528 62.8952C89.7636 63.2455 89.8784 63.5846 90.0826 63.8694C90.2867 64.1542 90.571 64.3718 90.8992 64.4945C91.0065 64.5173 91.1176 64.5153 91.2239 64.4884C91.3302 64.4616 91.429 64.4107 91.5125 64.3397C91.61 64.2365 91.6272 64.1505 91.61 64.1448Z" fill="#755246"/>
<path d="M110.405 46.1524C110.049 46.2994 109.675 46.3977 109.293 46.4448C107.463 46.7619 105.592 46.7619 103.761 46.4448C103.379 46.4066 103.004 46.3119 102.649 46.1639C103.034 46.1736 103.417 46.2119 103.796 46.2785C104.706 46.3788 105.62 46.4286 106.536 46.4276C107.452 46.4194 108.367 46.3581 109.276 46.2442C109.649 46.181 110.027 46.1504 110.405 46.1524Z" fill="#455A64"/>
<path d="M112.09 48.766C111.841 48.9238 111.562 49.0291 111.27 49.0755C109.882 49.4097 108.422 49.2788 107.115 48.703C106.837 48.6058 106.582 48.4537 106.364 48.2559C107.271 48.6121 108.218 48.8566 109.184 48.9838C110.158 49.0309 111.134 48.9578 112.09 48.766Z" fill="#455A64"/>
<path d="M88.7896 51.0871C88.7896 51.0355 89.6436 51.0871 90.9964 50.8693C91.7859 50.7456 92.5655 50.5656 93.3293 50.3305C94.26 50.0282 95.1696 49.6644 96.052 49.2414C96.9291 48.806 97.779 48.3179 98.5971 47.7797C99.2615 47.332 99.9006 46.8479 100.512 46.3295C101.549 45.4468 102.117 44.8048 102.145 44.8392C102.037 45.0063 101.912 45.1619 101.773 45.3035C101.623 45.4834 101.464 45.6556 101.297 45.8194C101.102 46.0143 100.884 46.2378 100.62 46.4614C100.021 47.0026 99.3875 47.5043 98.7232 47.9632C97.9042 48.5196 97.0481 49.0195 96.1609 49.4592C95.2662 49.8883 94.3408 50.2504 93.3924 50.5426C92.6159 50.7716 91.8223 50.9384 91.0193 51.0413C90.7115 51.085 90.4015 51.1118 90.0907 51.1215C89.856 51.1382 89.6204 51.1382 89.3857 51.1215C89.1863 51.1328 88.9863 51.1213 88.7896 51.0871Z" fill="#455A64"/>
<path d="M102.065 46.2324C102.001 46.431 101.919 46.6229 101.819 46.8056C101.722 47.032 101.61 47.2522 101.486 47.4648C101.343 47.7113 101.199 48.0094 100.993 48.3074C100.544 49.0267 100.038 49.7091 99.4799 50.348C98.7928 51.1271 98.0369 51.8427 97.2215 52.4861C96.3955 53.1201 95.5129 53.6765 94.5847 54.1484C93.824 54.5245 93.0342 54.8388 92.2231 55.0884C91.8849 55.2031 91.5582 55.2661 91.2831 55.3406C91.0079 55.4151 90.7615 55.4495 90.5608 55.4839C90.355 55.5262 90.146 55.5511 89.936 55.5584C89.936 55.5068 90.813 55.375 92.1715 54.9222C92.9585 54.6536 93.7248 54.3279 94.4643 53.9477C96.2901 53.0058 97.9263 51.7349 99.2907 50.199C99.8494 49.5754 100.363 48.9126 100.827 48.2157C101.647 47.0177 102.019 46.2324 102.065 46.2324Z" fill="#455A64"/>
<path d="M99.021 42.9997C99.274 42.9149 99.5451 42.8991 99.8063 42.9538C100.444 43.0527 101.04 43.331 101.526 43.7563C101.665 43.8792 101.792 44.0155 101.904 44.1633C102.005 44.3021 102.09 44.4522 102.156 44.6104C102.284 44.8653 102.391 45.1298 102.477 45.4014C102.583 45.6503 102.597 45.9284 102.518 46.1867C102.477 46.1867 102.489 45.8886 102.317 45.4587C102.21 45.2041 102.089 44.9554 101.956 44.7136C101.891 44.5696 101.81 44.4331 101.715 44.3066C101.609 44.1746 101.492 44.0519 101.365 43.9397C100.909 43.542 100.362 43.2625 99.7719 43.1258C99.3191 43.0226 99.0267 43.0398 99.021 42.9997Z" fill="#455A64"/>
<path d="M89.2657 60.3614C89.2568 60.292 89.2375 60.2244 89.2084 60.1608C89.1683 60.0289 89.0995 59.8455 89.025 59.5876C88.7911 58.9026 88.5997 58.2039 88.4518 57.4954C88.2405 56.4466 88.1425 55.3781 88.1594 54.3084C88.1758 53.0001 88.3962 51.7024 88.8129 50.4622C89.0365 49.825 89.3246 49.2123 89.6727 48.6337C90.0093 48.0981 90.393 47.5936 90.8191 47.1261C91.5384 46.3352 92.3528 45.6364 93.2437 45.0454C93.8428 44.6427 94.4648 44.2752 95.1066 43.9448L95.634 43.6754C95.6976 43.6492 95.7573 43.6145 95.8117 43.5723L95.6225 43.6411C95.4964 43.6984 95.3073 43.7672 95.078 43.8818C94.4195 44.188 93.7836 44.5405 93.175 44.9365C92.2636 45.5209 91.4296 46.2181 90.693 47.0115C90.2654 47.486 89.8817 47.9982 89.5466 48.5419C89.1864 49.1295 88.8905 49.754 88.6638 50.4048C88.2407 51.6631 88.0221 52.9809 88.0161 54.3084C88.0072 55.3874 88.1187 56.464 88.3486 57.5183C88.4991 58.2298 88.7022 58.9291 88.9562 59.6105C89.0422 59.857 89.1281 60.0347 89.174 60.1837C89.2 60.2452 89.2307 60.3046 89.2657 60.3614Z" fill="#455A64"/>
<path d="M105.441 66.5929C105.441 66.4726 104.552 66.3464 103.526 65.8879C102.5 65.4293 101.772 64.7415 101.715 64.8504C102.119 65.4956 102.723 65.9908 103.434 66.2605C104.495 66.742 105.435 66.6904 105.441 66.5929Z" fill="#263238"/>
<path d="M111.592 76.8876L105.986 76.2227L92.7275 77.9365L85.958 81.7082L97.7201 86.6664L106.278 84.9124L111.592 76.8876Z" fill="#A57E6D"/>
<path d="M89.4145 79.4779L80.0254 83.3069L82.129 101.334C82.129 101.334 85.6199 100.085 87.4942 109.193C89.3686 118.301 89.3973 124.13 89.3973 124.13L123.549 122.915C123.549 122.915 122.305 101.082 121.68 96.2154L119.387 77.6265L110.577 76.1533C110.577 76.1533 102.088 90.4949 89.4145 79.4779Z" fill="#455A64"/>
<path d="M119.393 77.6266C119.393 77.6266 123.554 77.3286 126.845 83.0835C129.344 87.4628 130.226 89.1538 130.226 89.1538L120.551 94.8056L116.682 84.2414L119.393 77.6266Z" fill="#455A64"/>
<path d="M80.1399 83.2441C80.1399 83.2441 76.3969 85.365 74.4078 88.1106C72.4188 90.8563 70.04 95.8947 70.04 95.8947L81.5041 102.269L83.2237 98.9958L80.1399 83.2441Z" fill="#455A64"/>
<path d="M83.3438 98.675C83.2922 98.675 83.5902 97.8897 83.8539 96.6C84.0124 95.8444 84.114 95.078 84.1577 94.3072C84.2106 93.3668 84.1876 92.4237 84.0889 91.487C83.9684 90.5528 83.7768 89.6292 83.5157 88.7242C83.298 87.9856 83.0279 87.2634 82.7075 86.5632C82.1343 85.3709 81.6987 84.6888 81.7445 84.6602C81.8835 84.7938 82.0031 84.9462 82.0999 85.113C82.3984 85.5457 82.6647 85.9997 82.8967 86.4715C83.2498 87.1703 83.545 87.8969 83.7794 88.6439C84.0527 89.5634 84.2445 90.5052 84.3526 91.4583C84.4574 92.4101 84.4747 93.3695 84.4042 94.3244C84.3452 95.0978 84.2205 95.8648 84.0316 96.6172C83.9122 97.1287 83.7551 97.6307 83.5616 98.119C83.519 98.3147 83.4454 98.5024 83.3438 98.675Z" fill="#263238"/>
<path d="M120.046 86.3569C119.954 86.3569 119.651 84.5685 118.739 82.5336C118.147 81.3208 117.495 80.1385 116.785 78.9912C117.093 79.2511 117.36 79.5565 117.576 79.8969C118.709 81.4725 119.504 83.2662 119.909 85.1646C120.02 85.5516 120.067 85.9546 120.046 86.3569Z" fill="#263238"/>
<path d="M113.271 76.1817C113.254 76.2829 113.223 76.3813 113.179 76.474C113.099 76.6575 113.007 76.9383 112.835 77.2765C112.371 78.2465 111.794 79.1585 111.116 79.9935C110.121 81.244 108.935 82.3293 107.602 83.2092C105.286 84.725 102.592 85.5631 99.8252 85.6289C97.058 85.6947 94.3275 84.9857 91.9421 83.5818C91.0124 83.044 90.1487 82.3996 89.3684 81.6615C89.0875 81.4093 88.8984 81.18 88.7608 81.0367C88.6232 80.8934 88.5602 80.8075 88.5716 80.8017C88.5831 80.796 88.8812 81.0826 89.4486 81.5755C90.248 82.2723 91.1183 82.8833 92.0452 83.3983C93.4167 84.1654 94.8974 84.7183 96.436 85.0377C98.3157 85.4481 100.259 85.4774 102.15 85.124C104.041 84.7705 105.843 84.0415 107.447 82.9799C108.766 82.1244 109.947 81.0729 110.949 79.8617C111.628 79.0466 112.22 78.1629 112.715 77.2249C113.076 76.56 113.271 76.176 113.271 76.1817Z" fill="#263238"/>
<path d="M97.2217 97.1267C95.2931 91.0135 94.0173 84.7133 93.4157 78.3313C93.0316 73.8317 91.8566 70.2033 91.6961 65.7725L89.1338 70.3065C87.7912 76.007 86.8545 81.7956 86.3309 87.6287C86.1646 89.4572 86.1016 91.4978 87.2939 92.8964C88.2511 94.0429 89.9019 94.5645 90.4293 95.9402C91.0025 97.4305 90.1656 99.6316 91.5757 100.377C91.9426 100.526 92.3474 100.555 92.7316 100.459C93.1159 100.363 93.4598 100.148 93.7137 99.8437C94.2044 99.2245 94.5562 98.507 94.7455 97.74C94.8773 98.8864 96.2186 100.102 97.0899 99.3278C97.6402 98.8062 97.4568 97.8718 97.2217 97.1267Z" fill="#263238"/>
<path d="M28.5922 149.461C29.0819 150.652 29.8142 151.727 30.7424 152.619C31.6706 153.51 32.7743 154.199 33.9833 154.641C35.1923 155.082 36.48 155.267 37.7644 155.184C39.0488 155.1 40.3017 154.75 41.4434 154.156L169.182 87.5383L185.495 63.8994L157.448 68.1812L32.6447 137.848C30.6653 138.953 29.1596 140.745 28.4127 142.885C27.6659 145.025 27.7297 147.365 28.5922 149.461Z" fill="#38BEC9"/>
<path d="M32.6447 137.848C30.6653 138.952 29.1596 140.744 28.4127 142.885C27.6659 145.025 27.7297 147.364 28.5922 149.461C29.0819 150.651 29.8142 151.726 30.7424 152.618C31.6706 153.51 32.7743 154.198 33.9833 154.64C35.1923 155.081 36.48 155.266 37.7644 155.183C39.0488 155.1 40.3017 154.75 41.4434 154.155L32.6447 137.848Z" fill="#263238"/>
<g opacity="0.4">
<path d="M157.442 68.1807L32.644 137.848L34.1458 140.634L159.437 71.9008L157.442 68.1807Z" fill="black"/>
</g>
<g opacity="0.4">
<path d="M166.986 83.7715L39.9985 151.478L41.443 154.155L169.181 87.5374L166.986 83.7715Z" fill="black"/>
</g>
<g opacity="0.4">
<path d="M161.941 75.6777L36.2666 144.554L38.2671 148.268L164.079 79.5125L161.941 75.6777Z" fill="black"/>
</g>
<g opacity="0.4">
<path d="M169.182 87.5372L157.442 68.1801L174.61 65.5605L179.889 72.0148L169.182 87.5372Z" fill="#EBEEF1"/>
</g>
<path d="M146.614 99.541L148.907 97.122C148.907 97.122 148.638 91.6136 149.578 90.2436L150.065 89.4297C150.065 89.4297 149.578 86.7528 151.016 86.1337C151.423 85.1192 151.951 84.7065 152.667 85.2739C152.667 85.2739 152.266 83.2563 154.146 82.9811C156.026 82.706 156.565 91.2467 156.565 91.2467C156.565 91.2467 157.505 95.0757 155.356 95.0757C155.356 95.0757 154.146 96.417 152.799 96.5546C152.799 96.5546 152.398 98.8474 150.506 98.7041L146.614 99.541Z" fill="#A57E6D"/>
<path d="M152.512 95.5684C152.512 95.5684 152.621 95.6371 152.724 95.8435C152.861 96.1389 152.899 96.4705 152.833 96.7893C152.745 97.2649 152.496 97.6958 152.128 98.0102C151.688 98.3819 151.177 98.6608 150.626 98.8299C149.662 99.1641 148.654 99.3572 147.634 99.4031C147.213 99.4542 146.786 99.4309 146.373 99.3343C147.784 99.2207 149.178 98.9496 150.529 98.5261C151.043 98.3683 151.523 98.1156 151.945 97.7809C152.282 97.5113 152.521 97.1389 152.627 96.7205C152.708 96.3338 152.668 95.9314 152.512 95.5684Z" fill="#755246"/>
<path d="M154.18 92.5356C154.089 92.5356 154.083 90.816 153.676 88.7639C153.269 86.7119 152.627 85.1184 152.713 85.084C152.932 85.3915 153.1 85.7321 153.212 86.0928C153.541 86.94 153.794 87.8147 153.968 88.7066C154.141 89.5988 154.239 90.5037 154.261 91.4122C154.295 91.7885 154.268 92.168 154.18 92.5356Z" fill="#755246"/>
<path d="M152.558 93.4757C152.472 93.4757 152.312 91.8077 151.882 89.79C151.452 87.7723 150.93 86.1673 151.011 86.1387C151.567 87.2721 151.953 88.4811 152.157 89.7269C152.471 90.9506 152.606 92.2133 152.558 93.4757Z" fill="#755246"/>
<path d="M155.562 93.4129C155.631 93.3671 155.912 93.8944 155.728 94.5593C155.545 95.2243 155.04 95.5453 155.006 95.4707C154.972 95.3962 155.298 95.0466 155.442 94.4848C155.585 93.9231 155.482 93.4416 155.562 93.4129Z" fill="#755246"/>
<path d="M150.311 93.8083C150.187 93.1179 150.128 92.4175 150.134 91.7161C150.044 91.0206 150.015 90.3186 150.048 89.6182C150.308 90.2808 150.438 90.9871 150.432 91.6989C150.522 92.4034 150.481 93.1185 150.311 93.8083Z" fill="#755246"/>
<path d="M70.6017 95.8945C70.6017 95.8945 63.0182 111.881 61.8718 114.266C60.7254 116.65 58.874 121.058 61.8718 123.529C64.8697 125.999 85.7572 126.154 85.7572 126.154L86.7947 117.734L73.0378 114.403L81.12 102.269L70.6017 95.8945Z" fill="#A57E6D"/>
<path d="M88.6235 117.883C89.0448 116.965 89.6633 116.151 90.4348 115.499C91.7475 114.352 94.6364 113.469 95.0204 112.375C95.4045 111.28 96.4878 112.134 96.2299 113.492C96.0694 114.364 94.281 116.639 94.281 116.639C94.281 116.639 96.3789 117.161 97.7776 116.358C99.1762 115.556 104.083 114.106 104.587 114.794C105.092 115.481 103.894 115.82 103.349 116.135C102.931 116.37 99.6806 117.981 99.6806 117.981C99.6806 117.981 106.146 117.763 106.96 118.072C107.774 118.382 106.96 119.184 106.53 119.219C106.278 119.219 105.166 120.222 104.381 120.938C103.849 121.437 103.15 121.719 102.421 121.729H100.919L105.504 122.211C105.504 122.211 106.29 122.933 105.195 123.311C104.702 123.478 90.8647 125.472 89.7871 125.535C87.9299 125.644 84.9951 126.109 84.9951 126.109L85.7403 117.511L88.6235 117.883Z" fill="#A57E6D"/>
<path d="M106.622 119.253C105.648 119.729 104.602 120.04 103.526 120.175C102.473 120.41 101.39 120.474 100.316 120.365C100.316 120.279 101.744 120.193 103.475 119.883C105.206 119.574 106.593 119.172 106.622 119.253Z" fill="#755246"/>
<path d="M121.336 60.4827L124.936 54.1316C122.706 50.513 121.911 46.1914 122.706 42.0163C123.502 37.8412 125.83 34.1146 129.233 31.5691C132.637 29.0235 136.87 27.843 141.099 28.2598C145.329 28.6766 149.25 30.6604 152.091 33.8213C154.932 36.9822 156.488 41.0916 156.453 45.3416C156.419 49.5916 154.795 53.6749 151.903 56.7887C149.01 59.9026 145.057 61.8218 140.821 62.1691C136.585 62.5164 132.372 61.2667 129.011 58.6656L121.336 60.4827Z" fill="#EBEEF1"/>
<path d="M121.336 60.4832L129.034 58.7636H129.137L129.074 58.6776L128.977 58.7693C131.346 60.6168 134.162 61.8035 137.139 62.2086C138.031 62.3331 138.933 62.3792 139.833 62.3461C140.297 62.3461 140.768 62.3117 141.249 62.2716L142.682 62.0538C144.969 61.6163 147.141 60.7154 149.067 59.4065C150.992 58.0977 152.629 56.4086 153.877 54.4433C155.125 52.4779 155.957 50.278 156.323 47.9789C156.689 45.6797 156.58 43.3301 156.003 41.0746C155.363 38.4814 154.111 36.0795 152.352 34.07C150.57 32.009 148.322 30.4035 145.795 29.3869C143.37 28.4284 140.76 28.0268 138.159 28.2119C135.7 28.3801 133.309 29.0886 131.155 30.2869C127.288 32.4448 124.397 36.0046 123.078 40.2319C122.551 42.0291 122.301 43.8964 122.339 45.7691C122.429 48.7575 123.31 51.6686 124.89 54.2066V54.1379L121.347 60.5233L125.004 54.2181V54.1837V54.1493C123.462 51.6221 122.61 48.7344 122.534 45.7748C122.508 43.9242 122.763 42.0804 123.291 40.3065C124.589 36.1237 127.446 32.6001 131.27 30.4646C133.387 29.2957 135.735 28.605 138.148 28.4412C140.707 28.2548 143.275 28.6466 145.663 29.5876C148.148 30.5819 150.36 32.1538 152.117 34.1732C153.846 36.1471 155.078 38.5053 155.711 41.0516C156.324 43.4905 156.394 46.0342 155.917 48.5033C155.458 50.7618 154.542 52.9028 153.226 54.7952C151.91 56.6876 150.222 58.2915 148.265 59.5088C146.531 60.5886 144.616 61.3477 142.613 61.75L141.197 61.9678C140.727 62.0079 140.257 62.0194 139.799 62.0481C138.91 62.0877 138.02 62.0455 137.139 61.922C134.189 61.536 131.393 60.3772 129.034 58.563L128.61 58.2363L128.937 58.6547L128.977 58.5458L121.336 60.4832Z" fill="#263238"/>
<path d="M130.897 46.2388L133.276 43.86L137.861 47.9355L146.866 39.2744L149.073 41.6475L137.523 52.5211L130.897 46.2388Z" fill="#38BEC9"/>
</g>
<defs>
<filter id="filter0_d_61_2424" x="2.06445" y="0" width="393.279" height="268.969" filterUnits="userSpaceOnUse" color-interpolation-filters="sRGB">
<feFlood flood-opacity="0" result="BackgroundImageFix"/>
<feColorMatrix in="SourceAlpha" type="matrix" values="0 0 0 0 0 0 0 0 0 0 0 0 0 0 0 0 0 0 127 0" result="hardAlpha"/>
<feOffset dy="4"/>
<feGaussianBlur stdDeviation="2"/>
<feComposite in2="hardAlpha" operator="out"/>
<feColorMatrix type="matrix" values="0 0 0 0 0 0 0 0 0 0 0 0 0 0 0 0 0 0 0.25 0"/>
<feBlend mode="normal" in2="BackgroundImageFix" result="effect1_dropShadow_61_2424"/>
<feBlend mode="normal" in="SourceGraphic" in2="effect1_dropShadow_61_2424" result="shape"/>
</filter>
</defs>
</svg>
