<svg width="396" height="269" viewBox="0 0 396 269" fill="none" xmlns="http://www.w3.org/2000/svg">
<g filter="url(#filter0_d_57_1694)">
<path d="M328.09 190.038V207.922H354.24H383.083V190.038H328.09Z" fill="#F5F5F5"/>
<path d="M325.786 185.039V190.037H385.004V185.039H354.24H325.786Z" fill="#E0E0E0"/>
<path d="M355.392 207.921H383.083V190.037H385.004V185.039H354.24V189.573L355.392 207.921Z" fill="#E0E0E0"/>
<path d="M346.932 192.921H335.783V195.615H346.932V192.921Z" fill="#E0E0E0"/>
<path d="M348.669 198.98H334.35V204.666H348.669V198.98Z" fill="white"/>
<path d="M391.344 246.355L390.197 1.45958H385.457V49.6717H373.196L372.967 1.44238H368.226V49.6717H326.096L325.867 1.44238H321.126V49.6717H308.911L308.688 1.44238H303.947V246.355H309.84L309.685 213.493H321.149V246.355H327.047L326.893 213.493H368.249V246.355H374.147L373.993 213.493H385.457V246.355H391.344ZM315.108 181.038L310.872 162.885H319.567L315.108 181.038ZM321.138 163.997V206.878L315.979 184.885L321.138 163.997ZM321.138 101.673L315.979 79.6789L321.138 58.7914V101.673ZM320.22 105.611H309.622L315.039 83.4907L320.22 105.611ZM315.108 75.804L310.253 55.014H320.198L315.108 75.804ZM314.167 79.6388L309.163 99.9932L308.963 57.3469L314.167 79.6388ZM309.467 164.725L314.167 184.845L309.651 203.221L309.467 164.725ZM315.039 188.725L319.573 208.139H310.281L315.039 188.725ZM309.599 157.537L309.559 157.371L309.41 157.405L309.192 110.976H321.115V157.554L309.599 157.537ZM326.371 110.959H368.215V157.537H326.606L326.371 110.959ZM379.037 83.4907L384.196 105.588H373.609L379.037 83.4907ZM373.431 98.8182L373.242 58.6423L378.143 79.6445L373.431 98.8182ZM385.468 103.066L380.006 79.656L385.468 57.4214V103.066ZM385.468 105.507V105.588H385.136L385.468 105.507ZM385.468 165.247V205.514L380.648 184.879L385.468 165.247ZM379.736 181.016L375.494 162.862H384.196L379.736 181.016ZM379.088 75.8098L374.233 55.0197H384.196L379.088 75.8098ZM385.451 110.936V157.514H374.245L374.205 157.348L373.706 157.463L373.505 110.959L385.451 110.936ZM378.79 184.879L373.935 204.643L373.74 163.235L378.79 184.879ZM379.69 188.731L384.219 208.145H374.91L379.69 188.731ZM368.226 55.0484V105.616H326.382L326.142 55.0484H368.226ZM327.598 208.139H326.841L326.629 162.885H368.226V208.139H327.598Z" fill="#E0E0E0"/>
<path d="M364.552 69.3154H356.722V105.817H364.552V69.3154Z" fill="#E0E0E0"/>
<path d="M362.35 97.0641C362.35 97.3714 362.259 97.6717 362.089 97.9271C361.918 98.1826 361.675 98.3817 361.391 98.4993C361.108 98.6168 360.795 98.6476 360.494 98.5877C360.193 98.5277 359.916 98.3798 359.699 98.1625C359.481 97.9453 359.333 97.6685 359.273 97.3672C359.214 97.0659 359.244 96.7535 359.362 96.4697C359.479 96.1858 359.679 95.9432 359.934 95.7725C360.189 95.6019 360.49 95.5108 360.797 95.5108C361.001 95.51 361.204 95.5497 361.392 95.6275C361.581 95.7053 361.753 95.8196 361.897 95.964C362.042 96.1084 362.156 96.28 362.234 96.4688C362.312 96.6576 362.351 96.8599 362.35 97.0641Z" fill="#FAFAFA"/>
<path d="M361.927 78.9854H359.531V93.9058H361.927V78.9854Z" fill="#FAFAFA"/>
<path d="M356.596 69.3154H348.766V105.817H356.596V69.3154Z" fill="#EBEBEB"/>
<path d="M354.394 97.0643C354.398 97.3734 354.309 97.6766 354.139 97.9349C353.969 98.1932 353.726 98.3949 353.441 98.5142C353.155 98.6336 352.841 98.6651 352.538 98.6047C352.235 98.5444 351.956 98.3949 351.738 98.1755C351.521 97.9561 351.373 97.6766 351.315 97.373C351.257 97.0693 351.291 96.7552 351.413 96.4709C351.534 96.1866 351.738 95.945 351.997 95.7771C352.257 95.6091 352.56 95.5224 352.87 95.5281C353.274 95.5355 353.659 95.7001 353.944 95.9869C354.228 96.2737 354.39 96.6602 354.394 97.0643Z" fill="#FAFAFA"/>
<path d="M353.971 78.9854H351.575V93.9058H353.971V78.9854Z" fill="#FAFAFA"/>
<path d="M349.024 69.3154H341.194V105.817H349.024V69.3154Z" fill="#F5F5F5"/>
<path d="M346.817 97.0641C346.817 97.3714 346.726 97.6717 346.555 97.9271C346.385 98.1826 346.142 98.3817 345.858 98.4993C345.574 98.6168 345.262 98.6476 344.961 98.5877C344.659 98.5277 344.383 98.3798 344.165 98.1625C343.948 97.9453 343.8 97.6685 343.74 97.3672C343.68 97.0659 343.711 96.7535 343.829 96.4697C343.946 96.1858 344.145 95.9432 344.401 95.7725C344.656 95.6019 344.957 95.5108 345.264 95.5108C345.468 95.51 345.67 95.5497 345.859 95.6275C346.048 95.7053 346.22 95.8196 346.364 95.964C346.508 96.1084 346.623 96.28 346.701 96.4688C346.778 96.6576 346.818 96.8599 346.817 97.0641Z" fill="#E0E0E0"/>
<path d="M346.398 78.9854H344.002V93.9058H346.398V78.9854Z" fill="#E0E0E0"/>
<path d="M331.507 105.267L340.919 73.1501L337.674 71.7285L328.021 104.103L331.507 105.267Z" fill="#F5F5F5"/>
<path d="M317.561 157.537V152.012H356.601L356.722 157.537H317.561Z" fill="#F5F5F5"/>
<path d="M356.619 152.911C356.619 152.911 321.997 153.163 319.756 153.696C319.275 153.805 318.782 155.932 319.756 156.127C320.731 156.322 356.619 156.614 356.619 156.614V152.911Z" fill="white"/>
<path d="M322.101 151.788V146.262H353.019L353.122 151.788H322.101Z" fill="#EBEBEB"/>
<path d="M353.036 147.168C353.036 147.168 325.608 147.42 323.837 147.948C323.453 148.062 323.063 150.189 323.837 150.384C324.611 150.579 353.036 150.871 353.036 150.871V147.168Z" fill="#FAFAFA"/>
<path d="M321.957 146.331V140.805H352.881L352.979 146.331H321.957Z" fill="#E0E0E0"/>
<path d="M352.899 141.705C352.899 141.705 325.471 141.957 323.7 142.49C323.316 142.599 322.926 144.726 323.7 144.921C324.474 145.116 352.899 145.408 352.899 145.408V141.705Z" fill="#FAFAFA"/>
<path d="M368.072 13.8921H360.236V50.3937H368.072V13.8921Z" fill="#F5F5F5"/>
<path d="M365.864 41.6471C365.864 41.9544 365.773 42.2547 365.602 42.5102C365.432 42.7656 365.189 42.9647 364.905 43.0823C364.621 43.1999 364.309 43.2306 364.008 43.1707C363.706 43.1107 363.43 42.9628 363.212 42.7455C362.995 42.5283 362.847 42.2515 362.787 41.9502C362.727 41.6489 362.758 41.3365 362.876 41.0527C362.993 40.7688 363.192 40.5262 363.448 40.3556C363.703 40.1849 364.003 40.0938 364.311 40.0938C364.515 40.093 364.717 40.1327 364.906 40.2105C365.095 40.2883 365.266 40.4027 365.411 40.547C365.555 40.6914 365.67 40.863 365.747 41.0518C365.825 41.2406 365.865 41.4429 365.864 41.6471Z" fill="#E0E0E0"/>
<path d="M365.446 23.5625H363.05V38.483H365.446V23.5625Z" fill="#E0E0E0"/>
<path d="M360.115 13.8921H352.285V50.3937H360.115V13.8921Z" fill="#EBEBEB"/>
<path d="M357.909 41.6471C357.909 41.9544 357.817 42.2547 357.647 42.5102C357.476 42.7656 357.233 42.9647 356.95 43.0823C356.666 43.1999 356.353 43.2306 356.052 43.1707C355.751 43.1107 355.474 42.9628 355.257 42.7455C355.04 42.5283 354.892 42.2515 354.832 41.9502C354.772 41.6489 354.802 41.3365 354.92 41.0527C355.038 40.7688 355.237 40.5262 355.492 40.3556C355.748 40.1849 356.048 40.0938 356.355 40.0938C356.559 40.093 356.762 40.1327 356.951 40.2105C357.139 40.2883 357.311 40.4027 357.455 40.547C357.6 40.6914 357.714 40.863 357.792 41.0518C357.87 41.2406 357.909 41.4429 357.909 41.6471Z" fill="#FAFAFA"/>
<path d="M357.49 23.5625H355.094V38.483H357.49V23.5625Z" fill="#FAFAFA"/>
<path d="M352.537 13.8921H344.708V50.3937H352.537V13.8921Z" fill="#E0E0E0"/>
<path d="M350.33 41.6471C350.33 41.9544 350.239 42.2547 350.069 42.5102C349.898 42.7656 349.655 42.9647 349.371 43.0823C349.088 43.1999 348.775 43.2306 348.474 43.1707C348.173 43.1107 347.896 42.9628 347.679 42.7455C347.461 42.5283 347.313 42.2515 347.253 41.9502C347.194 41.6489 347.224 41.3365 347.342 41.0527C347.459 40.7688 347.659 40.5262 347.914 40.3556C348.169 40.1849 348.47 40.0938 348.777 40.0938C348.981 40.093 349.184 40.1327 349.372 40.2105C349.561 40.2883 349.733 40.4027 349.877 40.547C350.022 40.6914 350.136 40.863 350.214 41.0518C350.291 41.2406 350.331 41.4429 350.33 41.6471Z" fill="#FAFAFA"/>
<path d="M349.912 23.5625H347.516V38.483H349.912V23.5625Z" fill="#FAFAFA"/>
<path d="M237.473 222.321V235.774H235.226V237.23H237.473V246.235H279.448V238.044H276.341V236.255H279.448V233.584H280.83V232.363H279.19V222.321H237.473Z" fill="#F5F5F5"/>
<path d="M268.299 222.361V246.086H279.448V237.895H276.341V236.255L279.448 236.313V233.636H280.858L280.835 232.254L279.19 232.214V222.321L268.299 222.361Z" fill="#E0E0E0"/>
<path d="M269.096 237.04C269.096 237.12 261.501 237.189 252.13 237.189C242.758 237.189 235.168 237.12 235.168 237.04C235.168 236.96 242.758 236.891 252.13 236.891C261.501 236.891 269.096 236.954 269.096 237.04Z" fill="#E0E0E0"/>
<path d="M269.096 235.67C269.096 235.756 261.501 235.819 252.13 235.819C242.758 235.819 235.168 235.756 235.168 235.67C235.168 235.584 242.758 235.521 252.13 235.521C261.501 235.521 269.096 235.59 269.096 235.67Z" fill="#E0E0E0"/>
<path d="M271.274 231.996C271.274 232.076 263.679 232.145 254.313 232.145C244.947 232.145 237.346 232.076 237.346 231.996C237.346 231.916 244.941 231.847 254.313 231.847C263.685 231.847 271.274 231.91 271.274 231.996Z" fill="#E0E0E0"/>
<path d="M271.475 242.016C271.475 242.096 263.88 242.165 254.508 242.165C245.136 242.165 237.542 242.096 237.542 242.016C237.542 241.935 245.136 241.867 254.508 241.867C263.88 241.867 271.475 241.935 271.475 242.016Z" fill="#E0E0E0"/>
<path d="M122.763 241.121C121.88 240.365 119.897 237.969 121.428 235.177C122.001 234.151 123.147 233.647 124.236 233.2C125.34 232.827 126.38 232.288 127.32 231.6C128.988 230.179 129.452 227.823 130.559 225.926C131.831 223.747 134.204 222.12 136.715 222.234C139.581 222.366 141.988 224.71 143.072 227.393C144.155 230.076 144.218 233.039 144.218 235.928C144.218 237.527 144.161 239.333 142.986 240.411C141.908 241.402 140.28 241.419 138.813 241.373L123.107 240.892" fill="#F5F5F5"/>
<path d="M152.822 197.931H111.552L119.003 242.291C119.157 243.215 119.57 244.077 120.194 244.776C120.818 245.475 121.628 245.983 122.529 246.24L122.672 246.28C122.798 246.315 122.913 246.355 123.039 246.378C123.317 246.431 123.598 246.463 123.881 246.475V246.515L124.082 246.481H142.493C142.832 246.481 143.17 246.448 143.502 246.384C144.578 246.218 145.569 245.703 146.324 244.919C147.079 244.135 147.555 243.125 147.681 242.044L151.269 211.481L151.43 210.266L152.851 198.16L152.822 197.931ZM145.01 226.218H140.785L141.209 213.344H146.122L145.01 226.218ZM146.517 213.35H150.575L149.068 226.218H145.422L146.517 213.35ZM134.405 240.502L134.147 229.314H140.252L139.879 240.502H134.405ZM127.814 229.314H133.746L134.004 240.502H128.685L127.814 229.314ZM128.272 240.502H123.297C122.827 237.482 122.213 233.555 121.548 229.314H127.401L128.272 240.502ZM127.601 226.218L126.604 213.344H133.408L133.7 226.218H127.601ZM134.113 226.218L133.815 213.344H140.785L140.361 226.218H134.113ZM133.746 210.26L133.471 198.332H141.318L140.923 210.26H133.746ZM133.333 210.26H126.335L125.406 198.332H133.03L133.333 210.26ZM125.951 210.26H118.545L117.811 205.675C117.043 200.854 116.751 199.037 116.59 198.355H124.993L125.951 210.26ZM126.191 213.344L127.16 226.218H121.061C120.855 224.917 120.648 223.593 120.442 222.269C119.961 219.231 119.485 216.193 119.032 213.344H126.191ZM120.648 226.218H116.636L114.481 213.344H118.596C119.25 217.328 119.943 221.759 120.648 226.218ZM121.13 229.308C121.738 233.177 122.339 236.994 122.884 240.497H119.055L117.181 229.308H121.13ZM140.298 240.497L140.67 229.308H144.746L143.789 240.497H140.298ZM141.301 210.26L141.697 198.332H147.394L146.374 210.26H141.301ZM116.2 198.332C116.367 199.197 117.118 203.886 118.126 210.26H113.982L111.982 198.332H116.2ZM147.394 240.497H144.224L145.182 229.308H148.73L147.394 240.497ZM150.942 210.26H146.787L147.807 198.332H152.341L150.942 210.26Z" fill="#E0E0E0"/>
<path d="M26.482 43.0454H6.06445V83.5136H26.482V43.0454Z" fill="#EBEBEB"/>
<path d="M49.3186 43.0454H27.2617V83.5136H49.3186V43.0454Z" fill="#EBEBEB"/>
<path d="M49.3186 86.3394H27.2617V125.438H49.3186V86.3394Z" fill="#EBEBEB"/>
<path d="M52.1504 42.3464H75.3823V6.44665H76.1676V42.3464H95.0719V5.6499H52.1504V42.3464Z" fill="#EBEBEB"/>
<path d="M95.0717 43.0454H76.1675V83.5136H95.0717V43.0454Z" fill="#EBEBEB"/>
<path d="M95.0717 86.3394H76.1675V125.438H95.0717V86.3394Z" fill="#EBEBEB"/>
<path d="M26.482 86.3394H6.06445V125.438H26.482V86.3394Z" fill="#EBEBEB"/>
<path d="M75.3823 86.3394H52.1504V125.438H75.3823V86.3394Z" fill="#EBEBEB"/>
<path d="M26.482 126.143H6.06445V161.378H26.482V126.143Z" fill="#EBEBEB"/>
<path d="M95.0717 126.143H76.1675V161.378H95.0717V126.143Z" fill="#EBEBEB"/>
<path d="M26.4762 42.3464V6.44665H27.2615V42.3464H49.3241V5.6499H6.06445V42.3464H26.4762Z" fill="#EBEBEB"/>
<path d="M75.3823 126.143H52.1504V161.378H75.3823V126.143Z" fill="#EBEBEB"/>
<path d="M49.3186 126.143H27.2617V161.378H49.3186V126.143Z" fill="#EBEBEB"/>
<path d="M75.3823 43.0454H52.1504V83.5136H75.3823V43.0454Z" fill="#EBEBEB"/>
<path d="M38.9954 205.394C41.2554 204.33 43.7973 204.021 46.2465 204.511C47.5591 204.729 48.929 205.124 49.829 206.11C50.7289 207.096 50.8894 208.833 49.8634 209.681C49.202 210.133 48.4019 210.337 47.6049 210.255C45.6904 210.255 43.5925 209.899 42.0334 211.051C41.1621 211.705 40.5775 212.771 39.5342 213.126C39.0115 213.246 38.4639 213.193 37.974 212.975C37.484 212.757 37.0781 212.385 36.8173 211.917C36.3221 210.956 36.2134 209.843 36.5135 208.804C36.6367 208.083 36.9248 207.4 37.3553 206.809C37.7858 206.217 38.3471 205.733 38.9954 205.394Z" fill="#EBEBEB"/>
<path d="M33.9452 195.644C35.298 197.57 37.9175 196.928 39.104 195.753C40.2906 194.578 40.8237 192.887 41.2994 191.253C42.3656 187.539 43.4432 183.647 42.6464 179.869C42.4573 178.723 41.9554 177.652 41.1962 176.774C40.8099 176.342 40.3173 176.018 39.7673 175.835C39.2173 175.652 38.629 175.616 38.0608 175.731C36.7424 176.08 35.9228 177.376 35.3266 178.597C33.5805 182.23 32.6642 186.207 32.644 190.238C32.644 192.113 32.8619 194.085 33.9166 195.632" fill="#EBEBEB"/>
<path d="M30.248 198.407C31.7097 196.687 31.9676 194.136 31.3371 191.958C30.5969 189.797 29.2762 187.881 27.5196 186.421C25.5216 184.653 23.1991 183.29 20.6813 182.409C19.7055 182.012 18.655 181.834 17.6032 181.887C17.0786 181.916 16.5691 182.074 16.1195 182.346C15.6698 182.617 15.2936 182.995 15.0237 183.446C14.3072 184.822 14.9951 186.484 15.7403 187.843C17.0558 190.237 18.5585 192.523 20.2342 194.681C21.5755 196.4 23.1002 198.12 25.1694 198.911C27.2387 199.702 29.3538 199.605 30.4429 198.183" fill="#EBEBEB"/>
<path d="M33.8535 224.683C33.9295 224.398 33.9718 224.106 33.9796 223.811C34.0427 223.175 34.1172 222.373 34.2089 221.421C34.3293 220.245 34.5092 219.076 34.7477 217.919C35.0587 216.509 35.4843 215.127 36.0202 213.786C36.5439 212.447 37.2541 211.189 38.1296 210.049C38.8422 209.118 39.7551 208.36 40.8007 207.83C41.508 207.48 42.2664 207.244 43.0477 207.131C43.3416 207.118 43.6335 207.076 43.919 207.005C43.6238 206.972 43.3257 206.972 43.0305 207.005C42.2188 207.068 41.4248 207.276 40.6861 207.618C39.5891 208.138 38.6261 208.903 37.8717 209.854C36.9577 211.011 36.2216 212.297 35.6878 213.671C35.141 215.031 34.717 216.437 34.421 217.873C34.1958 219.043 34.0408 220.226 33.9567 221.415C33.8822 222.43 33.8535 223.25 33.8363 223.817C33.8136 224.105 33.8194 224.395 33.8535 224.683Z" fill="#E0E0E0"/>
<path d="M34.0201 222.848C34.0372 222.713 34.0372 222.576 34.0201 222.441V221.295C34.0201 220.286 34.0201 218.824 34.0717 217.024C34.1577 213.425 34.4672 209.573 35.0691 204.087C35.6423 198.928 36.3989 192.973 37.2014 189.087C37.3733 188.204 37.5453 187.407 37.7058 186.708C37.8663 186.008 37.9981 185.412 38.1242 184.925C38.2503 184.438 38.3249 184.094 38.3936 183.779C38.4358 183.649 38.4608 183.514 38.4682 183.377C38.4039 183.497 38.3557 183.624 38.3249 183.756C38.2389 184.048 38.1242 184.421 37.9867 184.868C37.8491 185.315 37.6886 185.951 37.5109 186.645C37.3332 187.338 37.1383 188.135 36.9377 189.018C35.9582 193.616 35.2254 198.264 34.7423 202.941C34.1691 208.415 33.8711 213.402 33.8481 217.013C33.8481 218.813 33.8481 220.275 33.9112 221.283C33.9112 221.753 33.9628 222.137 33.9857 222.43C33.98 222.57 33.9916 222.711 34.0201 222.848Z" fill="#E0E0E0"/>
<path d="M34.043 213.235C34.0779 212.831 34.0779 212.424 34.043 212.02C33.9972 211.241 33.8882 210.117 33.6704 208.736C33.4042 207.122 33.0483 205.524 32.6043 203.949C32.0801 202.013 31.4094 200.12 30.5981 198.286C29.2125 194.898 27.2216 191.79 24.7227 189.115C24.2894 188.659 23.828 188.23 23.3413 187.831C23.1292 187.647 22.9401 187.47 22.7681 187.332L22.2293 186.96C21.9066 186.716 21.5655 186.497 21.209 186.306C22.385 187.232 23.503 188.229 24.5565 189.293C26.9699 191.986 28.9081 195.07 30.2885 198.412C31.0839 200.236 31.756 202.11 32.3005 204.024C32.8221 205.784 33.1717 207.4 33.4469 208.764C33.722 210.128 33.8424 211.24 33.9284 212.014C33.9375 212.424 33.9758 212.832 34.043 213.235Z" fill="#E0E0E0"/>
<path d="M24.7515 230.19L25.7144 243.391H42.6698L43.6328 230.19H24.7515Z" fill="#E0E0E0"/>
<path d="M45.6618 224.992H23.1177V230.196H45.6618V224.992Z" fill="#E0E0E0"/>
<path d="M23.1177 242.887V244.325H24.1724H45.2834V242.887H23.1177Z" fill="#EBEBEB"/>
<path d="M25.2099 246.865L24.1724 244.326H44.4752L43.2658 246.865H25.2099Z" fill="#E0E0E0"/>
<path d="M43.34 234.506C43.3206 234.55 43.2955 234.59 43.2655 234.627L43.0075 234.965L42.0216 236.226L41.9758 236.283L41.9356 236.226L39.511 232.867H39.6486L37.2583 236.249L37.1838 236.358L37.1035 236.255L34.2375 232.884H34.4037L34.249 233.079C33.3662 234.18 32.5294 235.246 31.7154 236.255L31.6294 236.364L31.5492 236.249L29.1589 232.867H29.2965L26.356 236.22L26.3044 236.278L26.2643 236.209C25.8745 235.561 25.5649 235.062 25.3414 234.661L25.1121 234.243C25.0823 234.198 25.0573 234.15 25.0376 234.099C25.0376 234.099 25.0777 234.14 25.135 234.231L25.3987 234.627L26.3674 236.146H26.2757C27.0266 235.257 27.9953 234.105 29.1417 232.747L29.2163 232.661L29.2793 232.758L31.6925 236.123H31.532L34.0598 232.942L34.2146 232.747L34.2948 232.644L34.3751 232.747L37.201 236.123H37.0462C37.9175 234.908 38.7257 233.773 39.4594 232.758L39.5282 232.661L39.597 232.758L41.97 236.152H41.884L42.9158 234.919L43.191 234.604C43.2827 234.535 43.34 234.501 43.34 234.506Z" fill="#F5F5F5"/>
<path d="M43.8676 230.105C43.8676 230.162 39.6201 230.214 34.381 230.214C29.142 230.214 24.8945 230.162 24.8945 230.105C24.8945 230.047 29.142 230.001 34.381 230.001C39.6201 230.001 43.8676 230.047 43.8676 230.105Z" fill="#F5F5F5"/>
<path d="M44.7276 244.469C44.7276 244.526 40.1076 244.578 34.4099 244.578C28.7123 244.578 24.0923 244.526 24.0923 244.469C24.0923 244.412 28.6779 244.366 34.4099 244.366C40.142 244.366 44.7276 244.412 44.7276 244.469Z" fill="#F5F5F5"/>
<path d="M325.93 197.702C325.878 197.765 325.454 197.507 324.984 197.129C324.514 196.75 324.17 196.389 324.221 196.326C324.273 196.263 324.697 196.515 325.167 196.899C325.637 197.283 325.998 197.639 325.93 197.702Z" fill="#263238"/>
<path d="M338.844 178.43C338.918 176.631 338.97 174.785 338.402 173.071C337.835 171.357 336.516 169.792 334.751 169.425C332.733 169.007 330.67 170.279 329.546 171.999C328.423 173.719 328.027 175.805 327.695 177.834C325.396 191.833 324.549 206.032 325.167 220.205L333.41 221.352C337.027 206.569 338.184 193.643 338.844 178.43Z" fill="#455A64"/>
<path d="M333.605 169.362C333.601 169.408 333.59 169.453 333.571 169.494C333.531 169.592 333.49 169.718 333.433 169.867C333.301 170.216 333.118 170.692 332.86 171.288C332.745 171.598 332.59 171.936 332.47 172.32C332.35 172.704 332.212 173.123 332.069 173.57C331.926 174.017 331.771 174.493 331.61 175.003C331.45 175.513 331.329 176.063 331.18 176.636C330.494 179.322 329.964 182.046 329.593 184.793C329.145 187.894 328.853 191.328 328.624 194.933C328.2 202.155 328.137 208.69 327.948 213.447C327.862 215.82 327.781 217.735 327.69 219.059C327.644 219.701 327.609 220.206 327.586 220.584C327.586 220.744 327.586 220.87 327.552 220.979C327.558 221.025 327.558 221.071 327.552 221.117C327.546 221.071 327.546 221.025 327.552 220.979V220.578C327.552 220.206 327.552 219.695 327.598 219.053C327.655 217.729 327.701 215.809 327.764 213.442C327.896 208.701 327.93 202.15 328.337 194.916C328.572 191.299 328.87 187.86 329.335 184.753C329.72 181.999 330.274 179.271 330.991 176.585C331.152 176.012 331.301 175.438 331.438 174.945C331.576 174.452 331.771 173.965 331.926 173.518C332.08 173.071 332.218 172.658 332.35 172.274C332.482 171.89 332.642 171.558 332.768 171.248C333.02 170.675 333.221 170.188 333.341 169.844L333.508 169.483C333.582 169.397 333.599 169.357 333.605 169.362Z" fill="#263238"/>
<path d="M334.367 169.368C334.801 169.878 335.143 170.46 335.376 171.087C336.007 172.789 336.263 174.608 336.127 176.418C335.909 181.004 335.502 187.252 334.981 194.187C334.459 201.123 333.834 207.371 333.347 211.911C333.106 214.175 332.894 216.009 332.739 217.27C332.659 217.884 332.596 218.365 332.55 218.726C332.55 218.875 332.51 219.001 332.493 219.105C332.5 219.146 332.5 219.189 332.493 219.231C332.485 219.187 332.485 219.142 332.493 219.099C332.493 218.996 332.493 218.87 332.493 218.72C332.527 218.359 332.567 217.872 332.625 217.259C332.751 215.963 332.923 214.135 333.141 211.894C333.571 207.36 334.144 201.094 334.688 194.164C335.233 187.234 335.674 180.981 335.944 176.424C336.094 174.636 335.874 172.837 335.296 171.139C335.043 170.52 334.732 169.927 334.367 169.368Z" fill="#263238"/>
<path d="M340.082 190.68C339.018 190.501 337.995 190.134 337.061 189.596C338.126 189.768 339.15 190.135 340.082 190.68Z" fill="#263238"/>
<path d="M341.08 182.3C340.63 182.653 340.127 182.931 339.589 183.125C339.091 183.406 338.548 183.599 337.984 183.698C338.928 183.061 339.975 182.593 341.08 182.317V182.3Z" fill="#263238"/>
<path d="M340.563 175.439C340.164 175.561 339.74 175.583 339.331 175.502C338.917 175.52 338.505 175.442 338.127 175.272C338.941 175.132 339.776 175.189 340.563 175.439Z" fill="#263238"/>
<path d="M332.057 171.048C331.988 171.094 331.627 170.641 331.249 170.045C330.871 169.449 330.624 168.927 330.676 168.898C330.727 168.87 331.106 169.305 331.484 169.907C331.755 170.241 331.951 170.631 332.057 171.048Z" fill="#263238"/>
<path d="M329.249 175.204C328.882 175.335 328.489 175.378 328.102 175.33C327.712 175.362 327.32 175.303 326.956 175.158C326.956 175.072 327.483 175.02 328.102 175.032C328.493 174.999 328.885 175.058 329.249 175.204Z" fill="#263238"/>
<path d="M327.231 183.486C327.196 183.566 326.658 183.411 325.998 183.148C325.339 182.884 324.852 182.615 324.852 182.54C325.283 182.559 325.704 182.674 326.084 182.878C326.755 183.142 327.26 183.411 327.231 183.486Z" fill="#263238"/>
<path d="M327.013 190.462C327.013 190.542 326.56 190.708 325.964 190.835C325.368 190.961 324.869 190.995 324.858 190.915C324.846 190.835 325.31 190.668 325.907 190.548C326.503 190.428 326.996 190.382 327.013 190.462Z" fill="#263238"/>
<path d="M326.062 201.875C326.062 201.955 325.58 202.11 324.95 202.224C324.319 202.339 323.803 202.362 323.803 202.282C323.803 202.201 324.285 202.047 324.915 201.932C325.546 201.817 326.05 201.794 326.062 201.875Z" fill="#263238"/>
<path d="M325.431 208.174C325.471 208.243 325.053 208.541 324.502 208.833C323.952 209.126 323.476 209.298 323.436 209.229C323.396 209.16 323.815 208.862 324.365 208.57C324.915 208.277 325.397 208.1 325.431 208.174Z" fill="#263238"/>
<path d="M330.579 215.327C330.504 215.367 330.143 214.869 329.765 214.21C329.488 213.834 329.293 213.404 329.191 212.949C329.26 212.908 329.621 213.407 330 214.095C330.276 214.461 330.473 214.881 330.579 215.327Z" fill="#263238"/>
<path d="M332.063 203.439C332.115 203.502 331.714 204.012 331.158 204.528C330.602 205.044 330.109 205.468 330.051 205.411C329.994 205.354 330.401 204.866 330.951 204.322C331.501 203.777 332.006 203.382 332.063 203.439Z" fill="#263238"/>
<path d="M331.731 197.209C331.673 197.266 331.301 196.956 330.894 196.521C330.487 196.085 330.217 195.69 330.275 195.638C330.332 195.586 330.71 195.89 331.112 196.32C331.513 196.75 331.794 197.151 331.731 197.209Z" fill="#263238"/>
<path d="M332.75 189.241C332.814 189.299 332.475 189.774 332 190.302C331.524 190.829 331.088 191.219 331.031 191.167C330.974 191.116 331.306 190.634 331.782 190.107C332.257 189.58 332.693 189.19 332.75 189.241Z" fill="#263238"/>
<path d="M333.324 183.463C333.266 183.52 332.802 183.154 332.28 182.638C331.759 182.122 331.381 181.663 331.438 181.606C331.495 181.549 331.965 181.916 332.487 182.431C333.008 182.947 333.381 183.406 333.324 183.463Z" fill="#263238"/>
<path d="M334.453 175.65C334.363 176.066 334.183 176.457 333.926 176.797C333.57 177.399 333.221 177.857 333.152 177.817C333.083 177.777 333.312 177.244 333.673 176.671C334.035 176.097 334.384 175.61 334.453 175.65Z" fill="#263238"/>
<path d="M336.579 168.411C336.509 168.823 336.349 169.214 336.109 169.557C335.783 170.165 335.456 170.623 335.387 170.589C335.453 170.167 335.611 169.766 335.852 169.414C336.184 168.829 336.505 168.371 336.579 168.411Z" fill="#263238"/>
<path d="M338.987 171.695C339.021 171.77 338.689 171.999 338.248 172.211C337.806 172.423 337.422 172.538 337.388 172.463C337.353 172.389 337.68 172.16 338.121 171.948C338.563 171.735 338.953 171.627 338.987 171.695Z" fill="#263238"/>
<path d="M339.044 197.702C338.484 197.707 337.93 197.573 337.434 197.312C336.899 197.137 336.418 196.83 336.035 196.418C336.559 196.576 337.066 196.786 337.548 197.043C338.068 197.212 338.569 197.433 339.044 197.702Z" fill="#263238"/>
<path d="M338.059 203.21C338.059 203.29 337.577 203.45 336.953 203.571C336.328 203.691 335.806 203.726 335.806 203.645C335.806 203.565 336.282 203.405 336.912 203.284C337.283 203.167 337.676 203.141 338.059 203.21Z" fill="#263238"/>
<path d="M336.849 212.657C336.342 212.403 335.909 212.022 335.594 211.55C335.207 211.137 334.936 210.629 334.809 210.077C335.181 210.479 335.521 210.91 335.823 211.367C336.204 211.765 336.547 212.196 336.849 212.657Z" fill="#263238"/>
<path d="M323.602 216.973C323.551 216.909 323.883 216.537 324.348 216.141C324.812 215.746 325.236 215.471 325.288 215.528C325.339 215.585 325.007 215.964 324.543 216.365C324.078 216.766 323.637 217.047 323.602 216.973Z" fill="#263238"/>
<path d="M319.79 196.36C319.257 194.687 318.248 192.732 316.489 192.709C315.967 192.738 315.462 192.907 315.028 193.197C314.593 193.487 314.245 193.889 314.018 194.36C313.538 195.296 313.307 196.34 313.347 197.392C313.565 204.852 314.838 212.243 317.131 219.346H323.562C323.489 211.536 322.217 203.784 319.79 196.36Z" fill="#455A64"/>
<path d="M308.16 185.819C307.26 182.219 304.577 180.276 301.459 180.087C298.593 180.586 297.515 183.389 297.177 186.255C296.839 189.121 297.75 191.987 298.605 194.732C301.429 203.56 304.252 212.391 307.076 221.226L315.101 220.349C312.545 208.524 311.089 197.558 308.16 185.819Z" fill="#455A64"/>
<path d="M316.489 192.709C316.284 192.998 316.102 193.303 315.945 193.62C315.614 194.537 315.512 195.521 315.646 196.486C315.767 197.707 315.91 199.18 316.116 200.797C316.323 202.413 316.615 204.185 316.976 206.03C317.704 209.727 318.524 213.046 319.046 215.465C319.309 216.675 319.51 217.655 319.619 218.331C319.676 218.641 319.722 218.904 319.756 219.116C319.767 219.208 319.767 219.3 319.756 219.392C319.715 219.308 319.686 219.219 319.67 219.128L319.481 218.354L318.799 215.488C318.226 213.086 317.378 209.756 316.65 206.065C316.283 204.213 316.002 202.436 315.807 200.808C315.704 199.994 315.635 199.221 315.566 198.516C315.497 197.81 315.429 197.123 315.394 196.498C315.282 195.51 315.422 194.51 315.801 193.592C315.964 193.251 316.198 192.95 316.489 192.709Z" fill="#263238"/>
<path d="M301.569 179.869C301.215 180.275 300.893 180.708 300.606 181.165C299.868 182.443 299.449 183.88 299.385 185.355C299.346 187.552 299.682 189.741 300.376 191.826C301.082 194.205 301.85 196.819 302.669 199.564L306.756 213.608C307.261 215.396 307.673 216.846 307.966 217.89L308.281 219.036C308.324 219.171 308.355 219.309 308.373 219.449C308.308 219.323 308.258 219.191 308.224 219.053L307.857 217.907C307.542 216.875 307.1 215.431 306.556 213.659L302.377 199.599C301.574 196.847 300.812 194.234 300.113 191.849C299.426 189.741 299.11 187.53 299.179 185.315C299.258 183.813 299.716 182.356 300.508 181.079C300.794 180.62 301.152 180.212 301.569 179.869Z" fill="#263238"/>
<path d="M313.319 219.501C313.25 219.378 313.19 219.249 313.141 219.116C313.032 218.859 312.866 218.486 312.683 217.97C312.304 216.984 311.811 215.534 311.307 213.717C310.803 211.9 310.298 209.705 309.817 207.257C309.335 204.809 308.842 202.098 308.309 199.295C307.776 196.492 307.128 193.81 306.412 191.431C305.789 189.32 305.009 187.258 304.079 185.263C303.448 183.918 302.726 182.618 301.918 181.371C301.643 180.924 301.396 180.603 301.247 180.368C301.162 180.253 301.086 180.133 301.018 180.007C301.122 180.105 301.214 180.214 301.293 180.334C301.459 180.557 301.723 180.867 302.015 181.308C302.862 182.536 303.614 183.828 304.262 185.171C305.228 187.164 306.033 189.23 306.67 191.351C307.454 193.957 308.1 196.603 308.607 199.278C309.135 202.104 309.633 204.792 310.092 207.245C310.55 209.699 311.038 211.883 311.519 213.7C312.001 215.517 312.453 216.973 312.803 217.97C312.969 218.469 313.118 218.847 313.204 219.116C313.255 219.241 313.293 219.369 313.319 219.501Z" fill="#263238"/>
<path d="M298.742 193.414C298.742 193.494 298.33 193.666 297.774 193.798C297.218 193.93 296.748 193.982 296.73 193.901C296.713 193.821 297.149 193.649 297.705 193.517C298.261 193.386 298.725 193.334 298.742 193.414Z" fill="#263238"/>
<path d="M297.894 187.951C297.001 188.108 296.091 188.143 295.188 188.055C295.609 187.859 296.072 187.772 296.535 187.802C296.994 187.734 297.462 187.785 297.894 187.951Z" fill="#263238"/>
<path d="M298.8 182.959C298.748 183.022 298.312 182.741 297.825 182.328C297.338 181.916 296.994 181.537 297.046 181.474C297.097 181.411 297.533 181.692 298.02 182.105C298.507 182.517 298.851 182.896 298.8 182.959Z" fill="#263238"/>
<path d="M301.241 178.338C301.322 178.338 301.299 178.745 301.287 179.215C301.276 179.685 301.287 180.075 301.19 180.092C301.092 180.11 300.978 179.714 300.995 179.21C301.012 178.705 301.161 178.321 301.241 178.338Z" fill="#263238"/>
<path d="M306.235 180.517C306.298 180.562 306.103 180.958 305.793 181.399C305.484 181.841 305.186 182.156 305.117 182.11C305.048 182.064 305.243 181.669 305.552 181.227C305.862 180.786 306.166 180.471 306.235 180.517Z" fill="#263238"/>
<path d="M309.467 186.14C309.502 186.22 309.089 186.455 308.544 186.679C308 186.902 307.535 187.017 307.507 186.942C307.478 186.868 307.891 186.627 308.435 186.404C308.98 186.18 309.438 186.094 309.467 186.14Z" fill="#263238"/>
<path d="M311.433 191.929C310.659 192.463 309.708 192.679 308.779 192.531C309.654 192.288 310.539 192.087 311.433 191.929Z" fill="#263238"/>
<path d="M302.428 190.284C302.348 190.284 302.428 189.86 302.549 189.396C302.669 188.931 302.881 188.565 302.956 188.587C303.03 188.61 302.956 189.012 302.83 189.482C302.703 189.952 302.491 190.313 302.428 190.284Z" fill="#263238"/>
<path d="M303.672 197.558C303.699 197.135 303.823 196.723 304.033 196.355C304.309 195.724 304.607 195.237 304.67 195.271C304.64 195.695 304.515 196.107 304.303 196.475C304.028 197.1 303.747 197.587 303.672 197.558Z" fill="#263238"/>
<path d="M300.565 199.541C300.531 199.622 300.027 199.484 299.419 199.289C298.811 199.094 298.307 198.922 298.324 198.842C298.341 198.762 298.897 198.813 299.505 199.008C300.113 199.203 300.594 199.473 300.565 199.541Z" fill="#263238"/>
<path d="M302.354 205.468C302.406 205.537 302.062 205.864 301.592 206.196C301.122 206.529 300.703 206.769 300.652 206.683C300.6 206.597 300.95 206.294 301.42 205.955C301.89 205.617 302.308 205.405 302.354 205.468Z" fill="#263238"/>
<path d="M303.793 211.378C303.793 211.458 303.386 211.625 302.847 211.757C302.308 211.888 301.849 211.934 301.827 211.854C301.804 211.774 302.234 211.608 302.778 211.476C303.323 211.344 303.775 211.315 303.793 211.378Z" fill="#263238"/>
<path d="M311.6 196.865C311.64 196.934 311.279 197.226 310.752 197.438C310.224 197.65 309.76 197.661 309.743 197.581C309.726 197.501 310.144 197.352 310.643 197.163C311.141 196.974 311.554 196.796 311.6 196.865Z" fill="#263238"/>
<path d="M312.706 206.059C312.671 206.133 312.241 206.001 311.743 205.766C311.244 205.531 310.866 205.279 310.9 205.193C310.935 205.107 311.37 205.245 311.869 205.48C312.367 205.715 312.746 205.984 312.706 206.059Z" fill="#263238"/>
<path d="M314.678 212.634C314.232 212.616 313.796 212.5 313.399 212.295C312.723 212.032 312.201 211.751 312.253 211.676C312.697 211.699 313.131 211.816 313.526 212.02C313.949 212.14 314.342 212.349 314.678 212.634Z" fill="#263238"/>
<path d="M304.108 217.787C304.068 217.712 304.595 217.363 305.203 216.881C305.549 216.553 305.934 216.268 306.349 216.033C306.412 216.084 306.028 216.606 305.392 217.11C305.035 217.451 304.591 217.685 304.108 217.787Z" fill="#263238"/>
<path d="M309.307 214.445C309.226 214.445 309.112 214.009 308.911 213.499C308.711 212.989 308.504 212.576 308.567 212.53C308.63 212.485 308.974 212.834 309.186 213.39C309.398 213.946 309.387 214.439 309.307 214.445Z" fill="#263238"/>
<path d="M307.931 206.535C307.885 206.598 307.547 206.437 307.18 206.173C306.813 205.91 306.555 205.646 306.607 205.6C306.658 205.554 306.991 205.698 307.358 205.961C307.724 206.225 307.977 206.466 307.931 206.535Z" fill="#263238"/>
<path d="M320.054 194.119C320.1 194.182 319.773 194.509 319.32 194.841C318.867 195.173 318.466 195.414 318.414 195.328C318.363 195.242 318.695 194.938 319.148 194.606C319.601 194.274 320.002 194.073 320.054 194.119Z" fill="#263238"/>
<path d="M321.877 199.128C321.877 199.209 321.373 199.318 320.731 199.249C320.089 199.18 319.619 198.968 319.642 198.893C319.665 198.819 320.158 198.893 320.788 198.957C321.419 199.02 321.872 199.048 321.877 199.128Z" fill="#263238"/>
<path d="M314.025 200.253C314.025 200.327 313.572 200.499 312.959 200.539C312.345 200.579 311.852 200.476 311.858 200.396C311.864 200.316 312.351 200.287 312.936 200.247C313.52 200.207 314.007 200.172 314.025 200.253Z" fill="#263238"/>
<path d="M314.701 195.529C314.701 195.609 314.213 195.621 313.692 195.38C313.17 195.139 312.861 194.767 312.918 194.709C312.975 194.652 313.336 194.893 313.812 195.111C314.288 195.328 314.712 195.443 314.701 195.529Z" fill="#263238"/>
<path d="M322.553 204.494C322.507 204.562 322.02 204.333 321.458 203.978C320.896 203.622 320.472 203.279 320.518 203.21C320.564 203.141 321.051 203.376 321.613 203.726C322.175 204.075 322.599 204.436 322.553 204.494Z" fill="#263238"/>
<path d="M341.716 218.509H299.82V225.938H341.716V218.509Z" fill="#38BEC9"/>
<path d="M302.944 224.464L308.04 246.653H333.015L338.586 224.464H302.944Z" fill="#38BEC9"/>
<path d="M341.693 225.943C341.693 226.024 332.24 226.092 320.587 226.092C308.934 226.092 299.476 226.024 299.476 225.943C299.476 225.863 308.928 225.794 320.587 225.794C332.246 225.794 341.693 225.863 341.693 225.943Z" fill="#263238"/>
<path d="M318.392 200.424C318.323 200.47 318.037 200.132 317.75 199.679C317.464 199.226 317.292 198.819 317.36 198.779C317.429 198.739 317.716 199.066 318.002 199.524C318.289 199.983 318.478 200.373 318.392 200.424Z" fill="#263238"/>
<path d="M318.409 206.385C318.329 206.385 318.409 205.858 318.627 205.239C318.845 204.62 319.046 204.179 319.126 204.202C319.148 204.596 319.074 204.989 318.908 205.348C318.707 205.95 318.478 206.414 318.409 206.385Z" fill="#263238"/>
<path d="M320.45 212.662C320.139 212.334 319.9 211.943 319.751 211.516C319.518 211.138 319.372 210.713 319.321 210.272C319.395 210.238 319.705 210.736 320.02 211.39C320.256 211.777 320.403 212.212 320.45 212.662Z" fill="#263238"/>
<path d="M316.025 217.706C315.968 217.655 316.214 217.265 316.598 216.841C316.982 216.417 317.315 216.113 317.378 216.164C317.441 216.216 317.188 216.606 316.804 217.03C316.42 217.454 316.088 217.758 316.025 217.706Z" fill="#263238"/>
<path d="M315.096 208.547C315.096 208.627 314.684 208.621 314.196 208.547C313.709 208.472 313.336 208.329 313.348 208.248C313.359 208.168 313.766 208.174 314.248 208.248C314.729 208.323 315.113 208.449 315.096 208.547Z" fill="#263238"/>
<path d="M282.871 160.874H289.445C289.445 160.874 275.024 59.3421 275.832 30.6934L274.812 160.874H282.871Z" fill="#E0E0E0"/>
<path d="M252.021 0.147367C252.021 0.147367 276.594 -1.34296 275.935 25.8383C274.032 104.539 283.289 163.74 283.289 163.74H191.227V2.96179L252.021 0.147367Z" fill="#EBEBEB"/>
<path d="M188.934 206.048L252.806 206.008C256.494 206.006 260.031 204.54 262.639 201.931C265.247 199.322 266.712 195.785 266.712 192.096L266.677 31.9659C266.678 30.1359 266.317 28.3237 265.616 26.6333C264.915 24.9429 263.888 23.4074 262.592 22.115C261.296 20.8226 259.758 19.7986 258.066 19.1018C256.374 18.405 254.561 18.049 252.731 18.0543L188.859 18.0944C187.032 18.0936 185.223 18.453 183.535 19.1519C181.847 19.8508 180.314 20.8756 179.022 22.1677C177.731 23.4597 176.707 24.9937 176.008 26.6818C175.31 28.37 174.952 30.1792 174.953 32.006L174.982 192.136C174.982 193.966 175.343 195.779 176.045 197.469C176.746 199.16 177.775 200.695 179.071 201.987C180.367 203.28 181.905 204.304 183.597 205C185.29 205.697 187.103 206.053 188.934 206.048Z" fill="#455A64"/>
<path d="M188.933 23.7578H201.32H237.484H252.679C255.264 23.7578 257.742 24.7845 259.57 26.6119C261.397 28.4393 262.424 30.9179 262.424 33.5023L262.452 189.798C262.452 192.382 261.426 194.861 259.598 196.688C257.771 198.515 255.292 199.542 252.708 199.542L188.962 199.582C186.378 199.582 183.899 198.556 182.072 196.728C180.244 194.901 179.218 192.422 179.218 189.838L179.189 33.5023C179.189 30.9179 180.216 28.4393 182.043 26.6119C183.87 24.7845 186.349 23.7578 188.933 23.7578Z" fill="#EBEBEB"/>
<path d="M196.959 0.130371L258.085 0.703574C249.12 0.285136 247.206 3.85046 245.732 6.10888C242.929 10.4366 243.21 15.3776 246.415 19.4244C248.28 21.628 250.839 23.1318 253.671 23.689H186.692C182.795 19.8658 181.981 15.7903 182.56 12.1218C183.66 5.16883 189.868 0.130371 196.959 0.130371Z" fill="#EBEBEB"/>
<path d="M264.878 3.34062C264.74 3.27669 264.609 3.19789 264.488 3.10561C264.133 2.86502 263.764 2.64678 263.382 2.45216C261.959 1.74828 260.435 1.27244 258.865 1.04208C256.552 0.651635 254.181 0.778883 251.923 1.41466C249.178 2.2972 246.883 4.21029 245.521 6.75118C244.093 9.25307 243.619 12.1868 244.185 15.011C244.471 16.2243 244.993 17.3695 245.721 18.3815C246.359 19.273 247.117 20.0717 247.974 20.7545C249.199 21.7577 250.574 22.5623 252.049 23.1391C253.093 23.5403 253.706 23.6721 253.694 23.7123C253.545 23.6949 253.397 23.6642 253.253 23.6206C252.824 23.5206 252.401 23.3962 251.986 23.248C250.477 22.7098 249.069 21.9232 247.819 20.9208C246.948 20.2314 246.177 19.4252 245.526 18.5248C244.77 17.4959 244.227 16.3268 243.927 15.0856C243.324 12.1944 243.802 9.18267 245.268 6.61935C246.667 4.01225 249.028 2.05424 251.849 1.16245C254.147 0.529105 256.559 0.421354 258.905 0.847189C260.494 1.08937 262.03 1.59705 263.45 2.34898C263.832 2.55829 264.198 2.79588 264.545 3.05975C264.663 3.14531 264.774 3.23917 264.878 3.34062Z" fill="#263238"/>
<path d="M267.462 4.77881C267.945 5.04408 268.398 5.35915 268.815 5.71886C270.02 6.73006 271.096 7.88508 272.019 9.15808C272.702 10.0719 273.306 11.0422 273.825 12.0585C274.453 13.2662 274.917 14.5518 275.206 15.8818C275.533 17.3262 275.401 18.9025 275.459 20.5419C275.516 22.1813 275.556 23.9353 275.608 25.7638C275.734 29.4266 275.9 33.4332 276.095 37.738C276.095 39.899 276.095 42.1173 276.06 44.4158C276.026 46.7144 276.06 49.0702 276.06 51.4949C276.06 61.1763 276.267 71.8264 276.685 83.0211C277.493 105.376 279.144 125.547 280.594 140.124C281.34 147.415 281.999 153.307 282.475 157.371C282.715 159.4 282.905 160.977 283.048 162.054C283.105 162.589 283.151 162.996 283.185 163.275C283.185 163.55 283.22 163.694 283.22 163.694C283.22 163.694 283.22 163.556 283.151 163.281C283.082 163.006 283.059 162.593 282.985 162.066C282.847 160.982 282.641 159.412 282.377 157.388C281.861 153.319 281.173 147.432 280.4 140.147C278.898 125.57 277.213 105.387 276.387 83.0325C275.969 71.8608 275.814 61.2107 275.814 51.5063C275.814 49.0817 275.814 46.7201 275.814 44.4273C275.814 42.1345 275.871 39.9047 275.866 37.7609C275.676 33.4562 275.527 29.4437 275.413 25.781C275.361 23.9525 275.315 22.2099 275.287 20.5591C275.258 18.9083 275.373 17.3434 275.057 15.9276C274.781 14.6088 274.33 13.3326 273.716 12.133C273.207 11.1204 272.615 10.1522 271.945 9.23833C271.034 7.95935 269.975 6.7916 268.792 5.75899C268.61 5.59874 268.419 5.44945 268.219 5.31189C268.087 5.20348 267.949 5.10207 267.806 5.00809C267.571 4.86479 267.462 4.77881 267.462 4.77881Z" fill="#263238"/>
<path d="M262.419 121.249C262.419 121.249 261.616 184.376 256.572 193.587L167.634 192.441L169.445 184.857L262.447 70.5259L262.419 121.249Z" fill="#E0E0E0"/>
<path d="M262.418 33.4619C262.418 33.4619 260.824 173.369 251.848 185.607H165.18C165.18 185.607 185.121 80.6251 179.189 33.502L262.418 33.4619Z" fill="#F5F5F5"/>
<path d="M263.169 33.4619C263.169 33.4619 261.575 173.369 252.599 185.607H165.18C165.18 185.607 179.08 82.2128 179.08 35.749" fill="#FAFAFA"/>
<path d="M179.081 35.7491V36.4885C179.081 36.9815 179.081 37.7152 179.081 38.6724C179.081 39.6297 179.081 40.8277 179.029 42.2378C178.977 43.6478 179 45.2815 178.909 47.1215C178.662 54.4871 178.077 65.1946 177.04 78.5788C174.902 105.342 170.958 142.778 165.347 185.63L165.203 185.464H252.6L252.485 185.521C253.187 184.371 253.72 183.126 254.067 181.824C254.434 180.523 254.761 179.216 255.024 177.898C255.597 175.267 255.993 172.63 256.366 170.016C257.099 164.783 257.632 159.618 258.085 154.54C258.997 144.411 259.616 134.695 260.132 125.49C261.135 107.073 261.708 90.7021 262.126 77.0599C262.545 63.4176 262.774 52.521 262.929 45.0235C262.998 41.2805 263.055 38.3858 263.095 36.4255C263.095 35.4453 263.129 34.7059 263.135 34.2015C263.141 33.697 263.135 33.4448 263.135 33.4448C263.135 33.4448 263.135 33.697 263.135 34.2015C263.135 34.7059 263.135 35.4453 263.135 36.4255C263.106 38.3858 263.066 41.2805 263.02 45.0235C262.894 52.521 262.688 63.4291 262.304 77.0656C261.92 90.7021 261.364 107.084 260.372 125.501C259.868 134.713 259.255 144.417 258.349 154.563C257.885 159.63 257.357 164.794 256.629 170.039C256.257 172.659 255.844 175.301 255.294 177.938C255.024 179.262 254.72 180.58 254.325 181.887C253.973 183.223 253.427 184.5 252.703 185.676L252.663 185.739H165.014V185.573C170.637 142.743 174.621 105.325 176.805 78.5445C177.871 65.1659 178.484 54.4699 178.765 47.1043C178.863 45.2643 178.88 43.6306 178.909 42.2206C178.937 40.8105 178.96 39.6182 178.983 38.6552C179.006 37.6923 179.018 36.9356 179.029 36.4713C179.04 36.007 179.081 35.7491 179.081 35.7491Z" fill="#263238"/>
<path d="M262.435 33.284C262.435 33.284 262.24 23.5396 252.691 23.5396C243.141 23.5396 186.715 23.5396 186.715 23.5396C186.715 23.5396 179.189 25.626 179.189 33.9776L238.131 38.5059L262.435 33.284Z" fill="#FAFAFA"/>
<path d="M196.958 0.130028H196.798C196.695 0.130028 196.534 0.130028 196.328 0.130028C195.721 0.136489 195.116 0.188222 194.517 0.284793C192.263 0.635897 190.131 1.542 188.315 2.92153C185.573 5.08867 183.606 8.08485 182.709 11.4623C182.221 13.5138 182.31 15.6603 182.967 17.6643C183.303 18.7412 183.785 19.7672 184.4 20.7138C185.018 21.712 185.763 22.6254 186.618 23.4307L186.526 23.3964H203.373L238.693 23.511L249.401 23.5798L252.307 23.6142H253.064H253.322C253.322 23.6142 253.236 23.6142 253.064 23.6142H252.307H249.401H238.693H203.373L186.526 23.574H186.469L186.434 23.5397C185.555 22.7139 184.785 21.7797 184.142 20.7596C183.525 19.7877 183.037 18.7394 182.691 17.6414C182.031 15.5902 181.949 13.3963 182.456 11.3018C183.378 7.88735 185.391 4.86797 188.188 2.70371C189.233 1.90583 190.392 1.27184 191.628 0.823604C192.552 0.476265 193.514 0.237736 194.494 0.112833C195.097 0.0236998 195.707 -0.012741 196.316 0.00392366C196.533 0.0287348 196.748 0.0709044 196.958 0.130028Z" fill="#263238"/>
<path d="M262.447 89.7964C262.447 89.7964 262.447 89.9683 262.447 90.2951C262.447 90.6218 262.447 91.1205 262.447 91.7625V97.3856C262.447 102.269 262.402 109.343 262.31 118.078C262.218 126.814 262.075 137.217 261.691 148.762C261.496 154.534 261.221 160.598 260.636 166.858C260.051 173.117 259.243 179.583 258.12 186.158C257.678 188.731 257.208 191.265 256.692 193.638L256.664 193.753H256.572C231.649 193.695 209.415 193.288 193.411 193.013L174.524 192.635L169.411 192.514L168.087 192.474H169.416L174.524 192.543L193.439 192.83C209.443 193.048 231.678 193.403 256.595 193.472L256.452 193.586C256.968 191.23 257.438 188.691 257.879 186.135C258.997 179.572 259.805 173.112 260.395 166.858C260.986 160.604 261.267 154.551 261.467 148.779C261.868 137.24 262.012 126.837 262.149 118.101C262.287 109.366 262.327 102.309 262.384 97.4143C262.384 94.9781 262.424 93.0808 262.436 91.7911C262.436 91.1491 262.436 90.6447 262.436 90.3237C262.436 90.0027 262.447 89.7964 262.447 89.7964Z" fill="#263238"/>
<path d="M256.641 39.6066C253.918 39.8054 251.184 39.8054 248.461 39.6066C251.184 39.4078 253.918 39.4078 256.641 39.6066Z" fill="#263238"/>
<path d="M256.641 37.4689C253.918 37.6677 251.184 37.6677 248.461 37.4689C251.184 37.2701 253.918 37.2701 256.641 37.4689Z" fill="#263238"/>
<path d="M256.641 35.342C253.918 35.5407 251.184 35.5407 248.461 35.342C251.184 35.1432 253.918 35.1432 256.641 35.342Z" fill="#263238"/>
<path d="M188.63 40.9883H188.808H189.295L191.1 40.9424L191.049 40.994C191.049 40.5928 191.049 40.1572 191.049 39.6871C191.049 39.4406 191.049 39.2114 191.049 38.9305C191.074 38.7819 191.147 38.6456 191.257 38.5422C191.366 38.4387 191.507 38.3738 191.656 38.3573C191.949 38.3573 192.201 38.3573 192.516 38.3573C192.678 38.3892 192.824 38.4765 192.928 38.604C193.033 38.7316 193.09 38.8916 193.089 39.0566C193.089 39.6699 193.089 40.3062 193.089 40.9654L193.003 40.8851H195.296L195.21 40.9711C195.21 40.054 195.21 39.1082 195.21 38.1051C195.21 37.8643 195.21 37.6236 195.21 37.3828C195.2 37.2749 195.166 37.1706 195.11 37.0774C195.055 36.9842 194.979 36.9045 194.889 36.844L193.892 35.8639L192.946 34.9009L192.476 34.4423C192.316 34.2875 192.189 34.1271 192.006 34.0927C191.917 34.068 191.824 34.0639 191.734 34.0808C191.644 34.0977 191.558 34.1351 191.484 34.1901C191.347 34.3047 191.198 34.471 191.06 34.6085L190.241 35.434C189.73 35.967 189.192 36.4543 188.802 36.9128C188.686 37.1817 188.647 37.4771 188.687 37.7669V38.5694C188.687 39.0623 188.687 39.4922 188.687 39.8591C188.687 40.2259 188.687 40.4667 188.687 40.6902C188.687 40.9138 188.687 40.9826 188.687 40.9883C188.679 40.8968 188.679 40.8047 188.687 40.7132C188.687 40.4953 188.687 40.2259 188.687 39.8992C188.687 39.5725 188.687 39.091 188.687 38.5923V37.7784C188.687 37.6293 188.687 37.4803 188.687 37.3255C188.687 37.1586 188.73 36.9945 188.813 36.8498C189.237 36.3339 189.736 35.8753 190.258 35.3308L191.066 34.4996C191.215 34.3506 191.335 34.213 191.507 34.0583C191.601 33.9891 191.708 33.9419 191.823 33.92C191.937 33.8982 192.054 33.9023 192.167 33.9322C192.391 34.004 192.59 34.1394 192.74 34.3219L193.204 34.7805L194.173 35.7263L195.17 36.7065C195.263 36.7901 195.347 36.8822 195.422 36.9816C195.496 37.0964 195.538 37.2291 195.543 37.3657C195.543 37.6064 195.543 37.8471 195.543 38.0936C195.543 39.0623 195.543 40.0139 195.543 40.9596V41.0456H195.457H193.164H192.946V40.9654C192.946 40.3005 192.946 39.6642 192.946 39.0509C192.949 38.916 192.903 38.7845 192.818 38.6797C192.733 38.5748 192.614 38.5033 192.482 38.4777C192.224 38.4777 191.909 38.4777 191.656 38.4777C191.539 38.4927 191.429 38.5438 191.342 38.6239C191.255 38.7039 191.194 38.809 191.169 38.9248C191.169 39.154 191.169 39.4177 191.169 39.6527V41.0112H191.118H189.283H188.802L188.63 40.9883Z" fill="#263238"/>
<path d="M213.495 37.2397H212.383V36.4258H215.633V37.2397H214.521V40.0484H213.495V37.2397Z" fill="#38BEC9"/>
<path d="M218.264 39.3549H216.728L216.447 40.0542H215.398L217.021 36.4258H218.029L219.634 40.0484H218.568L218.264 39.3549ZM217.961 38.5982L217.496 37.4518L217.032 38.5982H217.961Z" fill="#38BEC9"/>
<path d="M219.652 39.7267L219.99 38.9701C220.347 39.1961 220.76 39.3191 221.182 39.3255C221.606 39.3255 221.756 39.2051 221.756 39.0274C221.756 38.4542 219.698 38.8726 219.698 37.5313C219.698 36.8836 220.225 36.3849 221.303 36.3849C221.76 36.3748 222.212 36.4835 222.615 36.7002L222.3 37.4568C221.993 37.2846 221.649 37.1901 221.297 37.1817C220.867 37.1817 220.724 37.325 220.724 37.5027C220.724 38.0759 222.776 37.646 222.776 38.9815C222.776 39.6121 222.248 40.1279 221.171 40.1279C220.637 40.1383 220.111 39.9993 219.652 39.7267Z" fill="#38BEC9"/>
<path d="M224.655 38.7358L224.271 39.1428V40.0484H223.257V36.4258H224.271V37.9333L225.676 36.4258H226.822L225.338 38.0308L226.897 40.0484H225.704L224.655 38.7358Z" fill="#38BEC9"/>
<path d="M226.817 39.7267L227.155 38.9701C227.514 39.1972 227.929 39.3202 228.353 39.3254C228.777 39.3254 228.926 39.2051 228.926 39.0274C228.926 38.4542 226.863 38.8726 226.863 37.5313C226.863 36.8836 227.39 36.3849 228.468 36.3849C228.927 36.3749 229.381 36.4835 229.786 36.7002L229.471 37.4568C229.162 37.2845 228.816 37.1901 228.462 37.1817C228.032 37.1817 227.889 37.325 227.889 37.5027C227.889 38.0759 229.947 37.646 229.947 38.9815C229.947 39.612 229.419 40.1279 228.342 40.1279C227.806 40.1375 227.278 39.9987 226.817 39.7267Z" fill="#38BEC9"/>
<path d="M261.26 49.0475C261.26 49.1277 242.757 49.1965 219.944 49.1965C197.13 49.1965 178.622 49.1277 178.622 49.0475C178.622 48.9672 197.119 48.8984 219.944 48.8984C242.769 48.8984 261.26 48.9672 261.26 49.0475Z" fill="#E0E0E0"/>
<path d="M261.971 77.5929C261.971 77.6731 243.474 77.7419 220.655 77.7419C197.836 77.7419 179.338 77.6731 179.338 77.5929C179.338 77.5126 197.83 77.4438 220.655 77.4438C243.48 77.4438 261.971 77.5069 261.971 77.5929Z" fill="#E0E0E0"/>
<path d="M261.054 104.975C261.054 105.055 241.777 105.124 218.006 105.124C194.236 105.124 174.953 105.055 174.953 104.975C174.953 104.895 194.224 104.826 218.006 104.826C241.789 104.826 261.054 104.889 261.054 104.975Z" fill="#E0E0E0"/>
<path d="M259.896 131.669C259.896 131.755 240.121 131.818 215.76 131.818C191.399 131.818 171.623 131.755 171.623 131.669C171.623 131.583 191.387 131.52 215.76 131.52C240.132 131.52 259.896 131.589 259.896 131.669Z" fill="#E0E0E0"/>
<path d="M257.145 161.699C257.145 161.785 237.295 161.848 212.819 161.848C188.343 161.848 168.493 161.785 168.493 161.699C168.493 161.613 188.337 161.55 212.819 161.55C237.301 161.55 257.145 161.619 257.145 161.699Z" fill="#E0E0E0"/>
<path d="M195.554 68.7943C195.547 68.7314 195.547 68.668 195.554 68.6051C195.554 68.4618 195.554 68.2898 195.554 68.0835C195.554 67.5963 195.554 66.9371 195.52 66.1289C195.52 64.4093 195.485 62.0649 195.457 59.2504L195.588 59.3765H186.033L186.182 59.2275V61.7897C186.182 62.6266 186.182 63.452 186.182 64.2545C186.182 65.8595 186.182 67.3727 186.182 68.7599L186.05 68.6338L192.929 68.6968L194.883 68.7312H195.405H195.6C195.379 68.7581 195.157 68.7696 194.935 68.7656L193.009 68.7943L186.045 68.863H185.918V68.7312C185.918 67.3441 185.918 65.8308 185.918 64.2258C185.918 63.4233 185.918 62.5979 185.918 61.7611V59.1988L186.067 59.0498H195.623H195.749V59.1816C195.749 62.0477 195.697 64.4322 195.686 66.1461C195.686 66.9485 195.657 67.5963 195.651 68.072C195.646 68.5478 195.56 68.8057 195.554 68.7943Z" fill="#263238"/>
<path d="M250.518 63.3717C250.518 63.4519 239.628 63.5207 226.163 63.5207C212.698 63.5207 201.808 63.4519 201.808 63.3717C201.808 63.2914 212.698 63.2227 226.163 63.2227C239.628 63.2227 250.518 63.2857 250.518 63.3717Z" fill="#263238"/>
<path d="M226.937 67.1554C226.937 67.2414 221.314 67.3101 214.372 67.3101C207.431 67.3101 201.808 67.2414 201.808 67.1554C201.808 67.0694 207.431 67.0063 214.372 67.0063C221.314 67.0063 226.937 67.0751 226.937 67.1554Z" fill="#263238"/>
<path d="M195.812 54.1948C196.207 54.298 195.456 58.4652 193.777 63.3661C193.565 63.9794 193.353 64.5756 193.141 65.1488L192.82 65.9914L192.659 66.3983L192.613 66.5015C192.589 66.5666 192.561 66.6299 192.527 66.6907C192.457 66.8093 192.372 66.919 192.275 67.0174C192.085 67.197 191.849 67.3205 191.593 67.3742C191.337 67.4278 191.071 67.4095 190.825 67.3212C190.599 67.2306 190.402 67.0823 190.252 66.8913L190.154 66.748L190.103 66.6563L190.005 66.4843C189.764 66.0372 189.558 65.6073 189.38 65.2175C188.675 63.647 188.4 62.6152 188.578 62.5292C188.756 62.4432 189.38 63.303 190.297 64.7074L191.054 65.8538L191.163 66.0028L191.209 66.0716H191.255C191.283 66.0716 191.324 66.0716 191.318 66.0315L191.352 65.9341L191.49 65.5213C191.581 65.2405 191.673 64.9481 191.771 64.673L192.344 62.8961C194.012 58.041 195.399 54.0917 195.812 54.1948Z" fill="#38BEC9"/>
<path d="M194.505 97.5746C194.501 97.5116 194.501 97.4484 194.505 97.3855C194.505 97.2422 194.505 97.0702 194.505 96.8638C194.505 96.3747 194.494 95.7213 194.471 94.9035C194.471 93.1839 194.431 90.8452 194.408 88.025L194.534 88.1511H184.985L185.134 88.0021V90.5701C185.134 91.4127 185.134 92.2381 185.134 93.0406C185.134 94.6398 185.134 96.1531 185.134 97.546L185.007 97.4198L191.886 97.4829L193.841 97.5173H194.362C194.425 97.5094 194.488 97.5094 194.551 97.5173C194.332 97.5402 194.112 97.5498 193.892 97.546L191.966 97.5803L185.002 97.6491H184.87V97.5173C184.87 96.1244 184.87 94.6111 184.87 93.0119C184.87 92.2094 184.87 91.384 184.87 90.5414V87.9735C184.732 88.1053 185.048 87.79 185.019 87.8244H194.568H194.666V87.9563C194.637 90.8223 194.614 93.2011 194.597 94.9207C194.597 95.7232 194.586 96.3652 194.563 96.8466C194.565 97.0905 194.546 97.3341 194.505 97.5746Z" fill="#263238"/>
<path d="M249.475 92.1461C249.475 92.2321 238.584 92.3009 225.12 92.3009C211.655 92.3009 200.759 92.2321 200.759 92.1461C200.759 92.0601 211.65 91.9971 225.12 91.9971C238.59 91.9971 249.475 92.0888 249.475 92.1461Z" fill="#263238"/>
<path d="M193.026 124.355C193.026 124.355 193.026 124.286 193.026 124.166C193.026 124.045 193.026 123.85 193.026 123.644C193.026 123.157 193.026 122.498 192.992 121.689C192.992 119.97 192.958 117.625 192.929 114.811L193.055 114.937H183.505L183.654 114.788V117.345C183.654 118.187 183.654 119.013 183.654 119.815C183.654 121.42 183.654 122.933 183.654 124.32L183.528 124.194L190.407 124.257L192.361 124.292H192.883H193.072C192.854 124.319 192.633 124.331 192.413 124.326L190.487 124.355L183.523 124.424H183.396V124.292C183.396 122.905 183.396 121.391 183.396 119.786C183.396 118.984 183.396 118.158 183.396 117.316V114.759L183.546 114.61H193.095H193.227V114.742C193.198 117.608 193.175 119.987 193.158 121.707C193.158 122.509 193.158 123.157 193.129 123.633C193.115 123.876 193.08 124.117 193.026 124.355Z" fill="#263238"/>
<path d="M247.974 118.932C247.974 119.012 237.083 119.081 223.618 119.081C210.154 119.081 199.263 119.012 199.263 118.932C199.263 118.852 210.154 118.783 223.618 118.783C237.083 118.783 247.974 118.846 247.974 118.932Z" fill="#263238"/>
<path d="M190.717 152.7C190.71 152.637 190.71 152.573 190.717 152.511C190.717 152.367 190.717 152.195 190.717 151.989C190.717 151.502 190.717 150.843 190.682 150.034C190.682 148.315 190.642 145.97 190.613 143.156L190.745 143.282H181.196C181.161 143.316 181.477 143.001 181.339 143.133V148.16C181.339 149.765 181.339 151.278 181.339 152.665L181.207 152.539L188.086 152.602L190.04 152.637H190.568H190.757C190.538 152.664 190.318 152.676 190.098 152.671L188.172 152.7L181.201 152.769H181.075V152.637C181.075 151.25 181.075 149.736 181.075 148.131V145.667C181.075 145.242 181.075 144.818 181.075 144.388V143.104C180.944 143.236 181.259 142.921 181.23 142.955H190.78H190.912V143.087C190.912 145.953 190.866 148.338 190.848 150.052C190.848 150.854 190.848 151.502 190.814 151.978C190.798 152.22 190.765 152.461 190.717 152.7Z" fill="#263238"/>
<path d="M245.681 147.277C245.681 147.357 234.791 147.426 221.326 147.426C207.861 147.426 196.965 147.357 196.965 147.277C196.965 147.197 207.856 147.128 221.326 147.128C234.796 147.128 245.681 147.191 245.681 147.277Z" fill="#263238"/>
<path d="M189.341 179.588C189.341 179.588 189.341 179.52 189.341 179.399C189.341 179.279 189.341 179.084 189.341 178.872C189.341 178.39 189.341 177.725 189.306 176.917C189.306 175.198 189.272 172.859 189.243 170.039L189.369 170.171H179.82L179.969 170.022V172.59C179.969 173.432 179.969 174.258 179.969 175.06C179.969 176.659 179.969 178.173 179.969 179.565L179.837 179.434L186.715 179.502L188.67 179.537H189.192H189.381C189.381 179.537 189.163 179.537 188.722 179.565L186.796 179.6L179.831 179.663H179.705V179.537C179.705 178.144 179.705 176.631 179.705 175.031C179.705 174.229 179.705 173.404 179.705 172.561V170.045L179.854 169.896H189.404H189.536V170.045C189.507 172.911 189.484 175.295 189.472 177.009C189.472 177.819 189.461 178.461 189.438 178.935C189.421 179.155 189.388 179.373 189.341 179.588Z" fill="#263238"/>
<path d="M246.008 173.685C246.008 173.765 235.117 173.834 221.652 173.834C208.188 173.834 197.291 173.765 197.291 173.685C197.291 173.604 208.182 173.536 221.652 173.536C235.122 173.536 246.008 173.604 246.008 173.685Z" fill="#263238"/>
<path d="M237.163 122.607C237.163 122.693 228.594 122.756 218.018 122.756C207.442 122.756 198.873 122.693 198.873 122.607C198.873 122.521 207.471 122.458 218.018 122.458C228.565 122.458 237.163 122.526 237.163 122.607Z" fill="#263238"/>
<path d="M212.79 151.897C212.79 151.983 209.323 152.046 205.041 152.046C200.759 152.046 197.291 151.983 197.291 151.897C197.291 151.811 200.759 151.748 205.041 151.748C209.323 151.748 212.79 151.817 212.79 151.897Z" fill="#263238"/>
<path d="M251.568 0.239365C251.568 0.319613 239.37 0.388398 224.329 0.388398C209.288 0.388398 197.085 0.319613 197.085 0.239365C197.085 0.159117 209.283 0.090332 224.329 0.090332C239.376 0.090332 251.568 0.159117 251.568 0.239365Z" fill="#263238"/>
<path d="M373.603 246.653C373.603 246.734 294.5 246.802 196.964 246.802C99.428 246.802 20.3145 246.734 20.3145 246.653C20.3145 246.573 99.4165 246.504 196.964 246.504C294.512 246.504 373.603 246.573 373.603 246.653Z" fill="#263238"/>
<path d="M114.75 94.0723C114.75 94.0723 129.43 114.708 132.181 115.602C141.599 118.731 152.014 97.0587 152.014 97.0587L146.414 98.2911L136.136 104.774L124.919 89.4351L114.75 95.2875" fill="#A57E6D"/>
<path d="M133.975 111.039C133.857 110.719 133.81 110.377 133.838 110.036C133.831 108.382 134.421 106.78 135.5 105.525C135.705 105.253 135.962 105.025 136.256 104.854C135.553 105.725 134.974 106.69 134.537 107.721C134.194 108.795 134.004 109.912 133.975 111.039Z" fill="#755246"/>
<path d="M136.027 232.094L138.125 241.959L145.032 242.578L147.944 239.305L145.278 227.526L136.027 232.094Z" fill="#A57E6D"/>
<path d="M93.9769 230.346C93.8795 230.667 93.9769 242.956 93.9769 242.956L97.8518 245.249L102.913 242.211L103.985 230.329L93.9769 230.346Z" fill="#A57E6D"/>
<path d="M90.6868 124.051C90.6868 124.051 85.7171 133.451 83.5848 141.138C81.4525 148.824 79.4176 153.215 81.6129 160.117C83.8083 167.018 86.7374 193.173 88.1818 200.075C89.3684 205.761 91.9994 228.024 93.9139 235.08H104.673L105.768 156.035C105.768 156.035 124.896 200.424 127.091 205.755C129.286 211.086 135.718 233.842 135.718 233.842L146.855 232.122C146.855 232.122 140.108 192.76 138.068 183.348C136.027 173.936 130.226 148.383 127.876 140.358C125.526 132.333 125.767 126.813 122.431 122.921L90.6868 124.051Z" fill="#263238"/>
<path d="M107.218 125.599C107.218 125.599 107.275 125.513 107.43 125.45C107.662 125.369 107.914 125.369 108.146 125.45C108.325 125.51 108.485 125.616 108.609 125.758C108.733 125.9 108.816 126.073 108.851 126.258C108.901 126.488 108.878 126.727 108.787 126.944C108.695 127.16 108.54 127.343 108.341 127.468C108.142 127.593 107.909 127.654 107.675 127.643C107.44 127.631 107.214 127.548 107.029 127.404C106.878 127.292 106.759 127.141 106.686 126.968C106.612 126.795 106.586 126.605 106.61 126.418C106.634 126.175 106.744 125.947 106.92 125.776C107.04 125.656 107.132 125.633 107.143 125.645C106.965 125.871 106.853 126.143 106.822 126.43C106.814 126.576 106.843 126.722 106.908 126.853C106.972 126.985 107.069 127.098 107.189 127.181C107.331 127.287 107.501 127.347 107.678 127.355C107.854 127.362 108.029 127.316 108.179 127.223C108.329 127.129 108.447 126.992 108.518 126.831C108.589 126.669 108.609 126.489 108.576 126.315C108.555 126.171 108.497 126.034 108.408 125.919C108.318 125.803 108.201 125.713 108.066 125.656C107.796 125.552 107.5 125.532 107.218 125.599Z" fill="#455A64"/>
<path d="M110.336 146.022C110.253 146.056 110.166 146.081 110.078 146.097C109.9 146.137 109.642 146.183 109.31 146.223C108.357 146.338 107.392 146.322 106.444 146.177C106.125 146.131 105.809 146.066 105.498 145.982C105.32 145.927 105.157 145.831 105.022 145.701C104.885 145.558 104.795 145.376 104.764 145.18C104.672 144.44 104.678 143.707 104.632 142.887C104.563 141.293 104.495 139.545 104.414 137.728C104.271 134.054 104.157 130.729 104.088 128.322C104.088 127.175 104.036 126.19 104.019 125.456V124.682C104.004 124.593 104.004 124.502 104.019 124.413C104.046 124.5 104.059 124.591 104.059 124.682C104.059 124.894 104.099 125.146 104.122 125.456C104.162 126.172 104.214 127.135 104.283 128.322C104.403 130.729 104.552 134.054 104.695 137.722C104.764 139.557 104.833 141.305 104.89 142.881C104.93 143.666 104.919 144.458 104.988 145.122C105.011 145.272 105.078 145.412 105.18 145.524C105.282 145.636 105.414 145.715 105.561 145.753C105.858 145.841 106.161 145.91 106.467 145.959C107.398 146.118 108.345 146.164 109.287 146.097C109.963 146.062 110.33 145.971 110.336 146.022Z" fill="#455A64"/>
<path d="M125.526 133.016C125.397 133.148 125.248 133.258 125.085 133.343C124.649 133.594 124.183 133.786 123.698 133.916C122.891 134.139 122.048 134.193 121.22 134.073C120.392 133.954 119.598 133.664 118.887 133.223C118.177 132.781 117.566 132.197 117.092 131.507C116.619 130.818 116.294 130.037 116.137 129.216C116.038 128.722 116.005 128.217 116.04 127.714C116.039 127.519 116.072 127.325 116.137 127.141C116.144 127.812 116.213 128.482 116.343 129.141C116.518 129.926 116.847 130.667 117.312 131.323C117.778 131.978 118.369 132.534 119.052 132.957C119.735 133.381 120.496 133.663 121.29 133.789C122.084 133.914 122.894 133.879 123.675 133.687C124.311 133.521 124.931 133.296 125.526 133.016Z" fill="#455A64"/>
<path d="M111.643 128.82C111.397 127.229 111.345 125.614 111.488 124.011C111.742 125.601 111.794 127.217 111.643 128.82Z" fill="#455A64"/>
<path d="M113.506 128.476C113.437 127.687 113.437 126.893 113.506 126.103C113.476 125.311 113.522 124.519 113.644 123.736C113.823 124.515 113.877 125.318 113.804 126.115C113.832 126.913 113.731 127.71 113.506 128.476Z" fill="#455A64"/>
<path d="M123.887 127.227C123.887 127.227 123.795 127.267 123.6 127.307L122.769 127.479C122.047 127.628 120.992 127.806 119.685 127.995C112.865 128.971 105.951 129.111 99.096 128.413C97.7833 128.276 96.7229 128.138 95.9949 128.024L95.1581 127.886C95.0578 127.877 94.9593 127.854 94.8657 127.817C94.9646 127.803 95.0649 127.803 95.1638 127.817L96.0121 127.897C96.7401 127.978 97.8063 128.081 99.1189 128.19C102.537 128.474 105.967 128.585 109.396 128.522C112.827 128.448 116.252 128.197 119.657 127.771C120.964 127.611 122.024 127.468 122.752 127.353L123.595 127.238C123.692 127.226 123.789 127.222 123.887 127.227Z" fill="#455A64"/>
<path d="M95.8056 128.774C95.6154 129.255 95.3353 129.695 94.9802 130.07C94.1752 131.04 93.152 131.805 91.9942 132.303C90.8365 132.801 89.5772 133.018 88.3195 132.936C87.8024 132.931 87.2908 132.828 86.812 132.632C86.812 132.58 87.3852 132.712 88.331 132.724C89.5498 132.746 90.7592 132.507 91.8782 132.023C92.9973 131.54 94.0001 130.823 94.8197 129.921C95.4617 129.256 95.7597 128.774 95.8056 128.774Z" fill="#455A64"/>
<path d="M109.941 142.434C109.855 142.434 109.757 139.631 109.723 136.18C109.688 132.73 109.723 129.921 109.803 129.921C109.883 129.921 109.981 132.718 110.021 136.175C110.061 139.631 110.021 142.434 109.941 142.434Z" fill="#455A64"/>
<path d="M105.848 155.715C105.722 154.493 105.695 153.262 105.768 152.035C105.744 150.806 105.817 149.578 105.985 148.361C106.111 149.583 106.138 150.814 106.066 152.041C106.093 153.269 106.02 154.498 105.848 155.715Z" fill="#455A64"/>
<path d="M123.589 148.407C123 148.56 122.4 148.669 121.795 148.733C120.683 148.911 119.147 149.158 117.462 149.467C115.776 149.777 114.252 150.103 113.151 150.344C112.562 150.5 111.962 150.613 111.357 150.682C111.91 150.436 112.486 150.245 113.077 150.109C114.171 149.817 115.69 149.461 117.381 149.146C119.072 148.831 120.62 148.619 121.743 148.498C122.354 148.408 122.972 148.377 123.589 148.407Z" fill="#455A64"/>
<path d="M125.251 151.043C124.553 151.107 123.853 151.13 123.153 151.112C121.857 151.112 120.069 151.175 118.097 151.278C116.125 151.381 114.343 151.519 113.047 151.628C112.353 151.718 111.655 151.765 110.955 151.771C111.138 151.697 111.331 151.654 111.528 151.645C111.884 151.576 112.405 151.501 113.047 151.421C114.337 151.255 116.125 151.077 118.103 150.974C120.08 150.871 121.88 150.871 123.176 150.905C123.829 150.905 124.322 150.945 124.712 150.968C124.894 150.968 125.076 150.993 125.251 151.043Z" fill="#455A64"/>
<path d="M101.635 149.324C101.129 149.167 100.635 148.976 100.156 148.75C98.9815 148.265 97.7818 147.842 96.5622 147.484C95.3421 147.134 94.1041 146.851 92.8535 146.635C92.3275 146.575 91.8064 146.478 91.2944 146.343C91.825 146.303 92.3584 146.329 92.8822 146.423C95.433 146.739 97.9174 147.459 100.242 148.555C100.736 148.754 101.204 149.012 101.635 149.324Z" fill="#455A64"/>
<path d="M149.32 238.21V238.978C149.32 238.978 162.544 243.856 162.756 246.332L136.795 246.946L136.944 238.296C140.871 239.975 144.912 240.102 149.32 238.21Z" fill="#38BEC9"/>
<g opacity="0.6">
<path d="M139.639 240.996C139.391 241.077 139.182 241.248 139.052 241.474C138.922 241.7 138.88 241.967 138.934 242.222C139.006 242.473 139.172 242.686 139.397 242.818C139.622 242.951 139.889 242.992 140.143 242.933C140.406 242.847 140.628 242.666 140.764 242.425C140.901 242.185 140.943 241.902 140.883 241.632C140.779 241.378 140.582 241.175 140.332 241.063C140.083 240.951 139.799 240.939 139.541 241.03" fill="white"/>
</g>
<g opacity="0.6">
<path d="M136.818 246.946L136.852 244.865L161.718 245.037C161.718 245.037 162.864 245.513 162.778 246.333L136.818 246.946Z" fill="white"/>
</g>
<path d="M149.435 239.053C149.435 239.179 148.804 239.248 148.191 239.672C147.577 240.096 147.256 240.635 147.136 240.589C147.016 240.543 147.193 239.804 147.944 239.305C148.695 238.806 149.463 238.933 149.435 239.053Z" fill="#263238"/>
<path d="M152.185 240.113C152.22 240.234 151.675 240.463 151.257 241.008C150.838 241.552 150.724 242.125 150.598 242.125C150.472 242.125 150.374 241.409 150.907 240.738C151.44 240.067 152.18 239.976 152.185 240.113Z" fill="#263238"/>
<path d="M153.808 243.334C153.693 243.363 153.504 242.732 153.808 242.033C154.112 241.334 154.702 241.041 154.759 241.145C154.817 241.248 154.456 241.632 154.186 242.211C153.917 242.79 153.934 243.317 153.808 243.334Z" fill="#263238"/>
<path d="M103.274 241.156C103.274 241.156 96.3957 246.046 93.0425 241.81L92.1712 243.868L88.2505 258.49C88.1179 258.948 88.1571 259.439 88.3608 259.871C88.5645 260.303 88.9186 260.645 89.3568 260.834C89.693 260.968 90.0605 261.003 90.416 260.935C90.7714 260.867 91.1 260.699 91.363 260.45C94.1946 257.756 104.581 247.777 104.478 246.424L104.438 242.836C104.435 242.474 104.325 242.12 104.121 241.821C103.916 241.522 103.628 241.291 103.291 241.156H103.274Z" fill="#38BEC9"/>
<g opacity="0.6">
<path d="M89.6948 260.932L104.483 245.175V245.96C104.558 246.814 104.191 247.147 103.784 247.68C102.586 249.296 99.2788 252.902 91.4202 260.439C91.1965 260.657 90.922 260.815 90.6216 260.899C90.3212 260.983 90.0046 260.99 89.7006 260.921L89.6948 260.932Z" fill="white"/>
</g>
<g opacity="0.6">
<path d="M102.317 242.841C102.088 243.007 101.929 243.252 101.87 243.528C101.811 243.804 101.856 244.092 101.996 244.337C102.155 244.571 102.397 244.735 102.672 244.797C102.948 244.859 103.237 244.813 103.48 244.67C103.723 244.493 103.891 244.233 103.951 243.939C104.012 243.646 103.96 243.34 103.807 243.082C103.617 242.856 103.347 242.712 103.054 242.68C102.76 242.648 102.465 242.73 102.231 242.91" fill="white"/>
</g>
<path d="M93.9602 252.866C93.8513 252.912 93.4386 251.944 92.338 251.416C91.2375 250.889 90.2344 251.118 90.2115 251.004C90.1885 250.889 90.4293 250.814 90.8649 250.751C91.4348 250.692 92.0097 250.798 92.5215 251.055C93.0399 251.304 93.4713 251.704 93.7596 252.202C93.9774 252.586 94.0061 252.849 93.9602 252.866Z" fill="#263238"/>
<path d="M92.6356 255.338C92.5439 255.418 91.9535 254.816 90.9962 254.535C90.039 254.254 89.2193 254.409 89.1906 254.294C89.162 254.18 90.0332 253.813 91.1166 254.145C92.1999 254.478 92.7273 255.286 92.6356 255.338Z" fill="#263238"/>
<path d="M96.4243 249.72C96.3383 249.806 95.4327 248.871 93.9825 248.31C92.5323 247.748 91.2426 247.782 91.2368 247.662C91.2311 247.542 92.5839 247.307 94.1315 247.931C95.6792 248.556 96.516 249.645 96.4243 249.72Z" fill="#263238"/>
<path d="M96.7513 245.244C96.7055 245.358 95.6794 244.928 94.3496 244.871C93.0198 244.814 91.9651 245.135 91.9249 245.02C91.8848 244.905 92.9395 244.389 94.3725 244.447C95.8055 244.504 96.8144 245.163 96.7513 245.244Z" fill="#263238"/>
<path d="M93.5926 244.83C93.5764 244.595 93.6116 244.358 93.6958 244.137C93.8746 243.51 94.1766 242.926 94.5843 242.417C94.8456 242.023 95.2308 241.726 95.6791 241.575C95.8319 241.538 95.9924 241.55 96.1382 241.608C96.2841 241.667 96.4081 241.769 96.493 241.901C96.6448 242.165 96.6938 242.475 96.6306 242.773C96.4745 243.377 96.1127 243.908 95.6073 244.274C95.102 244.64 94.4848 244.819 93.862 244.779C93.2485 244.727 92.6644 244.494 92.1837 244.109C91.703 243.724 91.3475 243.205 91.1622 242.618C91.1146 242.471 91.1001 242.314 91.12 242.161C91.1398 242.007 91.1934 241.86 91.2769 241.729C91.3732 241.604 91.5066 241.513 91.658 241.469C91.8095 241.425 91.971 241.43 92.1195 241.483C92.5466 241.667 92.9181 241.959 93.1971 242.331C93.62 242.816 93.952 243.374 94.1773 243.976C94.2788 244.19 94.3335 244.422 94.3378 244.659C93.9934 243.884 93.5377 243.163 92.985 242.52C92.7278 242.206 92.3971 241.96 92.022 241.804C91.9415 241.775 91.8538 241.772 91.7714 241.796C91.6891 241.819 91.6163 241.868 91.5635 241.936C91.5186 242.024 91.4919 242.12 91.485 242.218C91.4781 242.317 91.4911 242.416 91.5234 242.509C91.6983 243.011 92.014 243.452 92.4328 243.779C92.8516 244.106 93.3557 244.306 93.885 244.355C94.4122 244.393 94.9364 244.248 95.3688 243.944C95.8012 243.64 96.1154 243.196 96.258 242.687C96.3094 242.481 96.2871 242.264 96.195 242.073C96.1498 241.999 96.0821 241.941 96.0016 241.908C95.9211 241.875 95.8322 241.869 95.7479 241.89C95.368 242.017 95.0373 242.259 94.8021 242.584C94.2711 243.256 93.8618 244.017 93.5926 244.83Z" fill="#263238"/>
<path d="M116.9 75.5002C115.822 74.6404 114.561 74.0385 113.46 73.2361C112.36 72.4336 111.305 70.3185 111.047 68.96L102.203 69.7338C101.264 73.2271 100.877 76.8457 101.056 80.4584C101.131 81.9946 101.354 83.634 102.386 84.7746C103.532 86.03 105.315 86.3624 106.972 86.6318L115.042 87.9215C115.994 88.0706 117.02 88.2139 117.908 87.7954C118.732 87.3207 119.346 86.5532 119.628 85.6459C120.274 83.8798 120.359 81.9571 119.87 80.141C119.382 78.3249 118.344 76.7041 116.9 75.5002Z" fill="#263238"/>
<path d="M84.21 83.4167C83.7399 80.7971 84.2444 78.1317 84.4851 75.5122C84.8405 71.6946 84.6341 67.751 84.4851 63.8418C84.3361 59.9325 84.187 55.9831 84.6972 52.2172C85.2073 48.4513 86.4168 44.863 88.4631 42.8396C90.5095 40.8162 93.4557 40.6958 95.4963 43.1835L94.6939 53.1114C95.8754 67.1959 96.021 81.3481 95.1295 95.4539C92.433 95.9828 89.662 96.01 86.9556 95.5342C86.6274 95.5117 86.3125 95.3955 86.0484 95.1994C85.7842 95.0033 85.5819 94.7355 85.4653 94.4279C85.1328 93.4649 85.5914 92.4159 85.7691 91.4071C85.9321 90.0279 85.7852 88.6297 85.3392 87.3144C84.892 86.0367 84.515 84.7355 84.21 83.4167Z" fill="#263238"/>
<path d="M91.7186 44.0201C92.518 43.22 93.5024 42.6294 94.5846 42.3005C95.0137 42.1412 95.48 42.1113 95.9259 42.2145C96.1463 42.2737 96.3403 42.4055 96.4765 42.5886C96.6128 42.7716 96.6833 42.9953 96.6768 43.2234L94.0286 46.9721C93.7394 47.1834 93.3943 47.3048 93.0365 47.3211C92.6786 47.3374 92.3239 47.2479 92.0167 47.0638C91.7575 46.962 91.5242 46.8037 91.3338 46.6005C91.1434 46.3972 91.0008 46.1541 90.9161 45.8888C90.8868 45.5354 90.9446 45.1802 91.0845 44.8544C91.2244 44.5286 91.4422 44.2422 91.7186 44.0201Z" fill="#455A64"/>
<path d="M111.552 54.8595C111.328 52.2062 110.106 49.7365 108.133 47.9491C106.159 46.1617 103.581 45.1898 100.919 45.2297C99.5435 45.2471 98.1861 45.5421 96.9278 46.0971C95.6696 46.6521 94.5364 47.4555 93.5964 48.4593C92.6563 49.463 91.9288 50.6464 91.4574 51.9383C90.986 53.2302 90.7804 54.604 90.8531 55.9773L92.8135 78.9054C92.8503 79.3491 93.0361 79.7673 93.3408 80.0919C95.0298 81.8711 97.3493 82.9166 99.8008 83.0038C101.914 82.9441 103.951 82.2021 105.607 80.8887C105.879 80.6796 106.09 80.4025 106.22 80.0854C106.35 79.7683 106.394 79.4225 106.347 79.0831L105.63 73.1734C106.142 73.1068 106.649 73.0111 107.149 72.8868C108.445 72.3594 111.592 71.3735 111.735 66.1803C111.879 62.4062 111.818 58.627 111.552 54.8595Z" fill="#A57E6D"/>
<path d="M105.137 63.383C105.603 63.1996 106.09 63.0745 106.587 63.0104C106.817 62.9703 107.034 62.9072 107.063 62.7525C107.061 62.5145 106.987 62.2828 106.851 62.0876C106.593 61.5545 106.318 60.9927 106.026 60.4081C104.879 58.0178 104.031 56.0403 104.128 56.0001C104.226 55.96 105.235 57.8573 106.387 60.2476C106.662 60.8208 106.925 61.394 107.183 61.9672C107.348 62.2302 107.415 62.5426 107.373 62.8499C107.345 62.9333 107.299 63.0093 107.237 63.0719C107.175 63.1345 107.1 63.1821 107.017 63.211C106.893 63.2551 106.764 63.284 106.633 63.297C106.14 63.3863 105.637 63.4152 105.137 63.383Z" fill="#263238"/>
<path d="M109.831 58.1042C109.85 58.3215 109.783 58.5375 109.643 58.705C109.504 58.8726 109.303 58.978 109.086 58.9984C108.981 59.0155 108.873 59.0116 108.769 58.9868C108.665 58.962 108.567 58.9168 108.481 58.8539C108.394 58.791 108.321 58.7116 108.266 58.6203C108.21 58.529 108.174 58.4276 108.158 58.322C108.14 58.1045 108.208 57.8886 108.347 57.7205C108.486 57.5524 108.686 57.4453 108.903 57.4221C109.008 57.4058 109.116 57.4105 109.22 57.436C109.324 57.4615 109.422 57.5072 109.508 57.5706C109.595 57.6339 109.668 57.7137 109.723 57.8052C109.778 57.8968 109.815 57.9984 109.831 58.1042Z" fill="#263238"/>
<path d="M110.193 56.4588C110.113 56.6021 109.385 56.1321 108.473 56.2697C107.562 56.4072 107.006 57.0492 106.885 56.9289C106.765 56.8085 106.885 56.6251 107.138 56.3557C107.451 55.9797 107.892 55.7327 108.376 55.6621C108.863 55.5938 109.358 55.706 109.769 55.9773C110.101 56.1665 110.233 56.3901 110.193 56.4588Z" fill="#263238"/>
<path d="M101.325 58.9006C101.345 59.1178 101.277 59.3338 101.137 59.5014C100.998 59.6689 100.797 59.7744 100.58 59.7948C100.474 59.8119 100.366 59.8077 100.262 59.7825C100.158 59.7574 100.059 59.7117 99.973 59.6482C99.8866 59.5848 99.8137 59.5047 99.7585 59.4128C99.7033 59.3208 99.667 59.2188 99.6516 59.1127C99.6325 58.8954 99.7001 58.6794 99.8397 58.5119C99.9794 58.3443 100.18 58.2388 100.397 58.2185C100.503 58.2022 100.611 58.2069 100.714 58.2324C100.818 58.2579 100.916 58.3036 101.003 58.3669C101.089 58.4303 101.162 58.51 101.217 58.6016C101.272 58.6932 101.309 58.7948 101.325 58.9006Z" fill="#263238"/>
<path d="M101.446 57.3357C101.337 57.4733 100.626 56.9058 99.6461 56.923C98.666 56.9402 97.9609 57.4962 97.852 57.3644C97.7431 57.2325 97.9036 57.0606 98.2074 56.7912C98.6116 56.4589 99.1172 56.2748 99.6404 56.2696C100.163 56.267 100.67 56.443 101.079 56.7683C101.389 57.0377 101.498 57.2784 101.446 57.3357Z" fill="#263238"/>
<path d="M105.63 73.1733C105.63 73.1733 102.076 73.7465 97.4907 71.4995C97.4907 71.4995 99.3078 75.9132 105.831 74.8126L105.63 73.1733Z" fill="#755246"/>
<path d="M104.931 65.5554C104.738 65.3559 104.499 65.2071 104.235 65.1221C103.971 65.0371 103.691 65.0186 103.418 65.0682C103.22 65.1015 103.031 65.174 102.862 65.2813C102.692 65.3885 102.546 65.5285 102.432 65.6929C102.321 65.8488 102.262 66.0351 102.262 66.226C102.262 66.417 102.321 66.6032 102.432 66.7591C102.594 66.9057 102.794 67.0029 103.009 67.0395C103.225 67.076 103.446 67.0504 103.647 66.9655C104.061 66.785 104.435 66.5239 104.747 66.1974C104.844 66.1193 104.926 66.0241 104.988 65.9165C105.021 65.8671 105.038 65.8093 105.038 65.7503C105.038 65.6912 105.021 65.6335 104.988 65.584" fill="#755246"/>
<path d="M101.927 53.9823C101.858 54.2288 100.947 54.2001 99.8978 54.4237C98.8489 54.6472 98.0177 54.9969 97.8572 54.8077C97.7827 54.7103 97.9088 54.4695 98.2298 54.2345C98.6631 53.8976 99.1698 53.6678 99.7087 53.5639C100.247 53.4512 100.804 53.463 101.337 53.5983C101.738 53.6842 101.956 53.8619 101.927 53.9823Z" fill="#263238"/>
<path d="M109.964 54.5038C109.786 54.7159 109.035 54.5382 108.135 54.5668C107.235 54.5955 106.496 54.7789 106.307 54.5668C106.226 54.4637 106.335 54.2573 106.656 54.0509C107.101 53.8032 107.603 53.6767 108.112 53.6841C108.626 53.6653 109.136 53.7819 109.591 54.0223C109.929 54.1942 110.044 54.4006 109.964 54.5038Z" fill="#263238"/>
<path d="M101.532 43.9743C101.214 43.6329 100.823 43.3678 100.388 43.1991C99.9534 43.0303 99.486 42.9622 99.0211 42.9998C94.9514 42.9998 90.8587 46.0206 89.1162 49.7006C87.3736 53.3805 87.9698 58.3961 90.1537 61.8353L91.6841 61.8811C94.768 61.2391 98.7345 51.8157 102.397 46.4046C102.856 45.7168 102.042 44.6048 101.532 43.9743Z" fill="#263238"/>
<path d="M109.533 45.4764C107.59 43.8199 104.547 41.9054 101.285 43.7282C100.918 44.7714 102.128 45.8777 103.091 46.4853C104.501 47.3795 105.699 47.9412 106.633 48.5947C108.525 49.9073 110.961 52.1772 111.54 55.0088C111.58 55.1865 111.62 60.7695 111.792 60.7122C111.964 60.6549 112.485 53.8337 112.537 52.2345C112.64 48.8469 111.477 47.1273 109.533 45.4764Z" fill="#263238"/>
<path d="M92.4119 59.9207C92.3088 59.8863 88.3995 58.9634 88.7492 62.867C89.0988 66.7705 92.9336 65.6355 92.9278 65.5209C92.9221 65.4062 92.4119 59.9207 92.4119 59.9207Z" fill="#A57E6D"/>
<path d="M91.61 64.1458C91.61 64.1458 91.5469 64.1974 91.438 64.2604C91.3608 64.3027 91.2758 64.329 91.1882 64.3379C91.1006 64.3467 91.0121 64.3379 90.9279 64.312C90.663 64.174 90.4395 63.968 90.2803 63.7152C90.1212 63.4624 90.0321 63.1718 90.0222 62.8733C89.9838 62.5387 90.021 62.1998 90.1311 61.8816C90.1572 61.7551 90.2135 61.6369 90.2954 61.537C90.3773 61.4372 90.4822 61.3587 90.6012 61.3084C90.6772 61.2818 90.7601 61.2827 90.8356 61.311C90.911 61.3393 90.9741 61.3932 91.0139 61.4632C91.0769 61.5664 91.0597 61.6466 91.0826 61.6523C91.1056 61.6581 91.1572 61.5778 91.1113 61.4231C91.0831 61.3271 91.0223 61.244 90.9393 61.188C90.8827 61.1526 90.8196 61.1288 90.7536 61.118C90.6877 61.1072 90.6203 61.1095 90.5553 61.125C90.3979 61.1706 90.2548 61.2556 90.1395 61.372C90.0241 61.4883 89.9404 61.6322 89.8961 61.7899C89.7591 62.1415 89.71 62.5213 89.7528 62.8962C89.7636 63.2464 89.8784 63.5855 90.0826 63.8703C90.2867 64.1551 90.571 64.3727 90.8992 64.4954C91.0065 64.5183 91.1176 64.5162 91.2239 64.4894C91.3302 64.4626 91.429 64.4117 91.5125 64.3407C91.61 64.2375 91.6272 64.1515 91.61 64.1458Z" fill="#755246"/>
<path d="M110.405 46.1529C110.049 46.2999 109.675 46.3982 109.293 46.4453C107.463 46.7624 105.592 46.7624 103.761 46.4453C103.379 46.4071 103.004 46.3124 102.649 46.1644C103.034 46.1741 103.417 46.2124 103.796 46.279C104.706 46.3793 105.62 46.429 106.536 46.4281C107.452 46.4199 108.367 46.3586 109.276 46.2446C109.649 46.1815 110.027 46.1508 110.405 46.1529Z" fill="#455A64"/>
<path d="M112.09 48.7665C111.841 48.9243 111.562 49.0296 111.27 49.076C109.882 49.4102 108.422 49.2793 107.115 48.7034C106.837 48.6062 106.582 48.4542 106.364 48.2563C107.271 48.6126 108.218 48.857 109.184 48.9843C110.158 49.0314 111.134 48.9582 112.09 48.7665Z" fill="#455A64"/>
<path d="M88.7896 51.0881C88.7896 51.0365 89.6436 51.0881 90.9964 50.8703C91.7859 50.7466 92.5655 50.5666 93.3293 50.3315C94.26 50.0292 95.1696 49.6654 96.052 49.2424C96.9291 48.807 97.779 48.3189 98.5971 47.7807C99.2615 47.333 99.9006 46.8489 100.512 46.3305C101.549 45.4478 102.117 44.8058 102.145 44.8402C102.037 45.0073 101.912 45.1628 101.773 45.3045C101.623 45.4844 101.464 45.6566 101.297 45.8204C101.102 46.0153 100.884 46.2388 100.62 46.4624C100.021 47.0036 99.3875 47.5052 98.7232 47.9641C97.9042 48.5206 97.0481 49.0205 96.1609 49.4602C95.2662 49.8893 94.3408 50.2514 93.3924 50.5436C92.6159 50.7726 91.8223 50.9393 91.0193 51.0422C90.7115 51.086 90.4015 51.1128 90.0907 51.1225C89.856 51.1391 89.6204 51.1391 89.3857 51.1225C89.1863 51.1338 88.9863 51.1223 88.7896 51.0881Z" fill="#455A64"/>
<path d="M102.065 46.2329C102.001 46.4315 101.919 46.6234 101.819 46.8061C101.722 47.0325 101.61 47.2527 101.486 47.4653C101.343 47.7118 101.199 48.0098 100.993 48.3079C100.544 49.0272 100.038 49.7096 99.4799 50.3485C98.7928 51.1276 98.0369 51.8432 97.2215 52.4866C96.3955 53.1205 95.5129 53.677 94.5847 54.1488C93.824 54.525 93.0342 54.8393 92.2231 55.0889C91.8849 55.2035 91.5582 55.2666 91.2831 55.3411C91.0079 55.4156 90.7615 55.45 90.5608 55.4844C90.355 55.5267 90.146 55.5516 89.936 55.5589C89.936 55.5073 90.813 55.3755 92.1715 54.9227C92.9585 54.654 93.7248 54.3284 94.4643 53.9482C96.2901 53.0063 97.9263 51.7354 99.2907 50.1995C99.8494 49.5759 100.363 48.9131 100.827 48.2162C101.647 47.0182 102.019 46.2329 102.065 46.2329Z" fill="#455A64"/>
<path d="M99.021 43.0002C99.274 42.9154 99.5451 42.8996 99.8063 42.9543C100.444 43.0531 101.04 43.3315 101.526 43.7568C101.665 43.8797 101.792 44.016 101.904 44.1638C102.005 44.3026 102.09 44.4527 102.156 44.6109C102.284 44.8658 102.391 45.1303 102.477 45.4019C102.583 45.6507 102.597 45.9289 102.518 46.1872C102.477 46.1872 102.489 45.8891 102.317 45.4592C102.21 45.2046 102.089 44.9559 101.956 44.7141C101.891 44.5701 101.81 44.4336 101.715 44.3071C101.609 44.1751 101.492 44.0524 101.365 43.9402C100.909 43.5425 100.362 43.263 99.7719 43.1263C99.3191 43.0231 99.0267 43.0403 99.021 43.0002Z" fill="#455A64"/>
<path d="M89.2657 60.3624C89.2568 60.293 89.2375 60.2253 89.2084 60.1617C89.1683 60.0299 89.0995 59.8465 89.025 59.5885C88.7911 58.9036 88.5997 58.2048 88.4518 57.4963C88.2405 56.4475 88.1425 55.3791 88.1594 54.3093C88.1758 53.0011 88.3962 51.7034 88.8129 50.4631C89.0365 49.826 89.3246 49.2133 89.6727 48.6346C90.0093 48.0991 90.393 47.5946 90.8191 47.1271C91.5384 46.3362 92.3528 45.6373 93.2437 45.0464C93.8428 44.6437 94.4648 44.2762 95.1066 43.9458L95.634 43.6764C95.6976 43.6501 95.7573 43.6154 95.8117 43.5732L95.6225 43.642C95.4964 43.6993 95.3073 43.7681 95.078 43.8828C94.4195 44.189 93.7836 44.5414 93.175 44.9375C92.2636 45.5219 91.4296 46.2191 90.693 47.0125C90.2654 47.4869 89.8817 47.9992 89.5466 48.5429C89.1864 49.1304 88.8905 49.755 88.6638 50.4058C88.2407 51.664 88.0221 52.9819 88.0161 54.3093C88.0072 55.3884 88.1187 56.465 88.3486 57.5193C88.4991 58.2307 88.7022 58.9301 88.9562 59.6115C89.0422 59.8579 89.1281 60.0356 89.174 60.1847C89.2 60.2461 89.2307 60.3056 89.2657 60.3624Z" fill="#455A64"/>
<path d="M105.441 66.5934C105.441 66.473 104.552 66.3469 103.526 65.8884C102.5 65.4298 101.772 64.742 101.715 64.8509C102.119 65.4961 102.723 65.9913 103.434 66.261C104.495 66.7424 105.435 66.6909 105.441 66.5934Z" fill="#263238"/>
<path d="M111.592 76.8881L105.986 76.2231L92.7275 77.937L85.958 81.7087L97.7201 86.6669L106.278 84.9129L111.592 76.8881Z" fill="#A57E6D"/>
<path d="M89.4145 79.4784L80.0254 83.3074L82.129 101.335C82.129 101.335 85.6199 100.085 87.4942 109.193C89.3686 118.301 89.3973 124.131 89.3973 124.131L123.549 122.916C123.549 122.916 122.305 101.082 121.68 96.2159L119.387 77.6269L110.577 76.1538C110.577 76.1538 102.088 90.4954 89.4145 79.4784Z" fill="#455A64"/>
<path d="M119.393 77.6276C119.393 77.6276 123.554 77.3296 126.845 83.0845C129.344 87.4638 130.226 89.1547 130.226 89.1547L120.551 94.8065L116.682 84.2424L119.393 77.6276Z" fill="#455A64"/>
<path d="M80.1399 83.2451C80.1399 83.2451 76.3969 85.366 74.4078 88.1116C72.4188 90.8573 70.04 95.8957 70.04 95.8957L81.5041 102.27L83.2237 98.9967L80.1399 83.2451Z" fill="#455A64"/>
<path d="M83.3438 98.675C83.2922 98.675 83.5902 97.8897 83.8539 96.6C84.0124 95.8444 84.114 95.078 84.1577 94.3072C84.2106 93.3668 84.1876 92.4237 84.0889 91.487C83.9684 90.5528 83.7768 89.6292 83.5157 88.7242C83.298 87.9856 83.0279 87.2634 82.7075 86.5632C82.1343 85.3709 81.6987 84.6888 81.7445 84.6602C81.8835 84.7938 82.0031 84.9462 82.0999 85.113C82.3984 85.5457 82.6647 85.9997 82.8967 86.4715C83.2498 87.1703 83.545 87.8969 83.7794 88.6439C84.0527 89.5634 84.2445 90.5052 84.3526 91.4583C84.4574 92.4101 84.4747 93.3695 84.4042 94.3244C84.3452 95.0978 84.2205 95.8648 84.0316 96.6172C83.9122 97.1287 83.7551 97.6307 83.5616 98.119C83.519 98.3147 83.4454 98.5024 83.3438 98.675Z" fill="#263238"/>
<path d="M120.046 86.3574C119.954 86.3574 119.651 84.569 118.739 82.5341C118.147 81.3213 117.495 80.139 116.785 78.9917C117.093 79.2516 117.36 79.557 117.576 79.8974C118.709 81.473 119.504 83.2667 119.909 85.1651C120.02 85.5521 120.067 85.9551 120.046 86.3574Z" fill="#263238"/>
<path d="M113.271 76.1827C113.254 76.2839 113.223 76.3823 113.179 76.475C113.099 76.6584 113.007 76.9393 112.835 77.2775C112.371 78.2475 111.794 79.1594 111.116 79.9945C110.121 81.2449 108.935 82.3302 107.602 83.2101C105.286 84.7259 102.592 85.5641 99.8252 85.6299C97.058 85.6957 94.3275 84.9867 91.9421 83.5827C91.0124 83.045 90.1487 82.4005 89.3684 81.6625C89.0875 81.4103 88.8984 81.181 88.7608 81.0377C88.6232 80.8944 88.5602 80.8084 88.5716 80.8027C88.5831 80.797 88.8812 81.0836 89.4486 81.5765C90.248 82.2733 91.1183 82.8843 92.0452 83.3993C93.4167 84.1664 94.8974 84.7192 96.436 85.0387C98.3157 85.4491 100.259 85.4784 102.15 85.1249C104.041 84.7715 105.843 84.0424 107.447 82.9809C108.766 82.1254 109.947 81.0739 110.949 79.8626C111.628 79.0476 112.22 78.1639 112.715 77.2259C113.076 76.561 113.271 76.1769 113.271 76.1827Z" fill="#263238"/>
<path d="M97.2217 97.1272C95.2931 91.014 94.0173 84.7137 93.4157 78.3318C93.0316 73.8322 91.8566 70.2038 91.6961 65.7729L89.1338 70.307C87.7912 76.0075 86.8545 81.7961 86.3309 87.6292C86.1646 89.4577 86.1016 91.4983 87.2939 92.8969C88.2511 94.0433 89.9019 94.565 90.4293 95.9406C91.0025 97.431 90.1656 99.6321 91.5757 100.377C91.9426 100.526 92.3474 100.555 92.7316 100.459C93.1159 100.364 93.4598 100.148 93.7137 99.8442C94.2044 99.2249 94.5562 98.5075 94.7455 97.7405C94.8773 98.8869 96.2186 100.102 97.0899 99.3283C97.6402 98.8067 97.4568 97.8723 97.2217 97.1272Z" fill="#263238"/>
<path d="M28.5922 149.461C29.0819 150.652 29.8142 151.727 30.7424 152.619C31.6706 153.51 32.7743 154.199 33.9833 154.641C35.1923 155.082 36.48 155.267 37.7644 155.184C39.0488 155.1 40.3017 154.75 41.4434 154.156L169.182 87.5383L185.495 63.8994L157.448 68.1812L32.6447 137.848C30.6653 138.953 29.1596 140.745 28.4127 142.885C27.6659 145.025 27.7297 147.365 28.5922 149.461Z" fill="#38BEC9"/>
<path d="M32.6447 137.848C30.6653 138.953 29.1596 140.745 28.4127 142.885C27.6659 145.025 27.7297 147.365 28.5922 149.461C29.0819 150.652 29.8142 151.727 30.7424 152.618C31.6706 153.51 32.7743 154.199 33.9833 154.64C35.1923 155.082 36.48 155.267 37.7644 155.184C39.0488 155.1 40.3017 154.75 41.4434 154.156L32.6447 137.848Z" fill="#263238"/>
<g opacity="0.4">
<path d="M157.442 68.1812L32.644 137.848L34.1458 140.634L159.437 71.9012L157.442 68.1812Z" fill="black"/>
</g>
<g opacity="0.4">
<path d="M166.986 83.772L39.9985 151.479L41.443 154.156L169.181 87.5379L166.986 83.772Z" fill="black"/>
</g>
<g opacity="0.4">
<path d="M161.941 75.6787L36.2666 144.555L38.2671 148.269L164.079 79.5134L161.941 75.6787Z" fill="black"/>
</g>
<g opacity="0.4">
<path d="M169.182 87.5376L157.442 68.1806L174.61 65.561L179.889 72.0153L169.182 87.5376Z" fill="white"/>
</g>
<path d="M146.614 99.541L148.907 97.122C148.907 97.122 148.638 91.6136 149.578 90.2436L150.065 89.4297C150.065 89.4297 149.578 86.7528 151.016 86.1337C151.423 85.1192 151.951 84.7065 152.667 85.2739C152.667 85.2739 152.266 83.2563 154.146 82.9811C156.026 82.706 156.565 91.2467 156.565 91.2467C156.565 91.2467 157.505 95.0757 155.356 95.0757C155.356 95.0757 154.146 96.417 152.799 96.5546C152.799 96.5546 152.398 98.8474 150.506 98.7041L146.614 99.541Z" fill="#A57E6D"/>
<path d="M152.512 95.5684C152.512 95.5684 152.621 95.6371 152.724 95.8435C152.861 96.1389 152.899 96.4705 152.833 96.7893C152.745 97.2649 152.496 97.6958 152.128 98.0102C151.688 98.3819 151.177 98.6608 150.626 98.8299C149.662 99.1641 148.654 99.3572 147.634 99.4031C147.213 99.4542 146.786 99.4309 146.373 99.3343C147.784 99.2207 149.178 98.9496 150.529 98.5261C151.043 98.3683 151.523 98.1156 151.945 97.7809C152.282 97.5113 152.521 97.1389 152.627 96.7205C152.708 96.3338 152.668 95.9314 152.512 95.5684Z" fill="#755246"/>
<path d="M154.18 92.5361C154.089 92.5361 154.083 90.8165 153.676 88.7644C153.269 86.7124 152.627 85.1189 152.713 85.0845C152.932 85.392 153.1 85.7326 153.212 86.0933C153.541 86.9405 153.794 87.8152 153.968 88.7071C154.141 89.5993 154.239 90.5042 154.261 91.4126C154.295 91.789 154.268 92.1685 154.18 92.5361Z" fill="#755246"/>
<path d="M152.558 93.4762C152.472 93.4762 152.312 91.8081 151.882 89.7905C151.452 87.7728 150.93 86.1678 151.011 86.1392C151.567 87.2726 151.953 88.4816 152.157 89.7274C152.471 90.9511 152.606 92.2138 152.558 93.4762Z" fill="#755246"/>
<path d="M155.562 93.4129C155.631 93.3671 155.912 93.8944 155.728 94.5593C155.545 95.2243 155.04 95.5453 155.006 95.4707C154.972 95.3962 155.298 95.0466 155.442 94.4848C155.585 93.9231 155.482 93.4416 155.562 93.4129Z" fill="#755246"/>
<path d="M150.311 93.8088C150.187 93.1184 150.128 92.418 150.134 91.7166C150.044 91.0211 150.015 90.3191 150.048 89.6187C150.308 90.2813 150.438 90.9876 150.432 91.6994C150.522 92.4039 150.481 93.119 150.311 93.8088Z" fill="#755246"/>
<path d="M70.6017 95.895C70.6017 95.895 63.0182 111.882 61.8718 114.266C60.7254 116.651 58.874 121.059 61.8718 123.529C64.8697 126 85.7572 126.154 85.7572 126.154L86.7947 117.734L73.0378 114.404L81.12 102.269L70.6017 95.895Z" fill="#A57E6D"/>
<path d="M88.6235 117.884C89.0448 116.965 89.6633 116.151 90.4348 115.499C91.7475 114.353 94.6364 113.47 95.0204 112.375C95.4045 111.28 96.4878 112.134 96.2299 113.493C96.0694 114.364 94.281 116.64 94.281 116.64C94.281 116.64 96.3789 117.161 97.7776 116.359C99.1762 115.556 104.083 114.106 104.587 114.794C105.092 115.482 103.894 115.82 103.349 116.135C102.931 116.37 99.6806 117.981 99.6806 117.981C99.6806 117.981 106.146 117.763 106.96 118.073C107.774 118.382 106.96 119.185 106.53 119.219C106.278 119.219 105.166 120.222 104.381 120.939C103.849 121.438 103.15 121.72 102.421 121.73H100.919L105.504 122.211C105.504 122.211 106.29 122.934 105.195 123.312C104.702 123.478 90.8647 125.473 89.7871 125.536C87.9299 125.645 84.9951 126.109 84.9951 126.109L85.7403 117.511L88.6235 117.884Z" fill="#A57E6D"/>
<path d="M106.622 119.254C105.648 119.73 104.602 120.041 103.526 120.176C102.473 120.411 101.39 120.475 100.316 120.366C100.316 120.28 101.744 120.194 103.475 119.884C105.206 119.575 106.593 119.173 106.622 119.254Z" fill="#755246"/>
<path d="M121.336 60.4831L124.936 54.132C122.706 50.5135 121.911 46.1919 122.706 42.0168C123.502 37.8417 125.83 34.1151 129.233 31.5695C132.637 29.024 136.87 27.8435 141.099 28.2603C145.329 28.6771 149.25 30.6609 152.091 33.8218C154.932 36.9827 156.488 41.0921 156.453 45.3421C156.419 49.5921 154.795 53.6754 151.903 56.7892C149.01 59.9031 145.057 61.8223 140.821 62.1696C136.585 62.5169 132.372 61.2672 129.011 58.6661L121.336 60.4831Z" fill="white"/>
<path d="M121.336 60.4832L129.034 58.7636H129.137L129.074 58.6776L128.977 58.7693C131.346 60.6168 134.162 61.8035 137.139 62.2086C138.031 62.3331 138.933 62.3792 139.833 62.3461C140.297 62.3461 140.768 62.3117 141.249 62.2716L142.682 62.0538C144.969 61.6163 147.141 60.7154 149.067 59.4065C150.992 58.0977 152.629 56.4086 153.877 54.4433C155.125 52.4779 155.957 50.278 156.323 47.9789C156.689 45.6797 156.58 43.3301 156.003 41.0746C155.363 38.4814 154.111 36.0795 152.352 34.07C150.57 32.009 148.322 30.4035 145.795 29.3869C143.37 28.4284 140.76 28.0268 138.159 28.2119C135.7 28.3801 133.309 29.0886 131.155 30.2869C127.288 32.4448 124.397 36.0046 123.078 40.2319C122.551 42.0291 122.301 43.8964 122.339 45.7691C122.429 48.7575 123.31 51.6686 124.89 54.2066V54.1379L121.347 60.5233L125.004 54.2181V54.1837V54.1493C123.462 51.6221 122.61 48.7344 122.534 45.7748C122.508 43.9242 122.763 42.0804 123.291 40.3065C124.589 36.1237 127.446 32.6001 131.27 30.4646C133.387 29.2957 135.735 28.605 138.148 28.4412C140.707 28.2548 143.275 28.6466 145.663 29.5876C148.148 30.5819 150.36 32.1538 152.117 34.1732C153.846 36.1471 155.078 38.5053 155.711 41.0516C156.324 43.4905 156.394 46.0342 155.917 48.5033C155.458 50.7618 154.542 52.9028 153.226 54.7952C151.91 56.6876 150.222 58.2915 148.265 59.5088C146.531 60.5886 144.616 61.3477 142.613 61.75L141.197 61.9678C140.727 62.0079 140.257 62.0194 139.799 62.0481C138.91 62.0877 138.02 62.0455 137.139 61.922C134.189 61.536 131.393 60.3772 129.034 58.563L128.61 58.2363L128.937 58.6547L128.977 58.5458L121.336 60.4832Z" fill="#263238"/>
<path d="M130.897 46.2388L133.276 43.86L137.861 47.9355L146.866 39.2744L149.073 41.6475L137.523 52.5211L130.897 46.2388Z" fill="#38BEC9"/>
</g>
<defs>
<filter id="filter0_d_57_1694" x="2.06445" y="0" width="393.279" height="268.969" filterUnits="userSpaceOnUse" color-interpolation-filters="sRGB">
<feFlood flood-opacity="0" result="BackgroundImageFix"/>
<feColorMatrix in="SourceAlpha" type="matrix" values="0 0 0 0 0 0 0 0 0 0 0 0 0 0 0 0 0 0 127 0" result="hardAlpha"/>
<feOffset dy="4"/>
<feGaussianBlur stdDeviation="2"/>
<feComposite in2="hardAlpha" operator="out"/>
<feColorMatrix type="matrix" values="0 0 0 0 0 0 0 0 0 0 0 0 0 0 0 0 0 0 0.25 0"/>
<feBlend mode="normal" in2="BackgroundImageFix" result="effect1_dropShadow_57_1694"/>
<feBlend mode="normal" in="SourceGraphic" in2="effect1_dropShadow_57_1694" result="shape"/>
</filter>
</defs>
</svg>
